SplineFontDB: 3.0
FontName: ElaineSans-ExtraLight
FullName: Elaine Sans ExtraLight
FamilyName: Elaine Sans ExtraLight
Weight: ExtraLight
Copyright: Copyright (c) 2015 by Wei Huang. All rights reserved.
Version: 1.030;PS 001.030;hotconv 1.0.70;makeotf.lib2.5.58329
ItalicAngle: 0
UnderlinePosition: -250
UnderlineWidth: 50
Ascent: 760
Descent: 240
InvalidEm: 0
sfntRevision: 0x000107ae
LayerCount: 2
Layer: 0 1 "Back" 1
Layer: 1 1 "Fore" 0
XUID: [1021 288 1899785369 25442]
StyleMap: 0x0040
FSType: 4
OS2Version: 3
OS2_WeightWidthSlopeOnly: 0
OS2_UseTypoMetrics: 0
CreationTime: 1436215488
ModificationTime: 1543786065
PfmFamily: 81
TTFWeight: 200
TTFWidth: 5
LineGap: 0
VLineGap: 0
Panose: 0 0 3 0 0 0 0 0 0 0
OS2TypoAscent: 760
OS2TypoAOffset: 0
OS2TypoDescent: -240
OS2TypoDOffset: 0
OS2TypoLinegap: 173
OS2WinAscent: 930
OS2WinAOffset: 0
OS2WinDescent: 243
OS2WinDOffset: 0
HheadAscent: 930
HheadAOffset: 0
HheadDescent: -243
HheadDOffset: 0
OS2SubXSize: 650
OS2SubYSize: 600
OS2SubXOff: 0
OS2SubYOff: 75
OS2SupXSize: 650
OS2SupYSize: 600
OS2SupXOff: 0
OS2SupYOff: 350
OS2StrikeYSize: 50
OS2StrikeYPos: 300
OS2CapHeight: 660
OS2XHeight: 500
OS2Vendor: 'UKWN'
OS2CodePages: 20000093.00000000
OS2UnicodeRanges: 00000007.00000001.00000000.00000000
Lookup: 1 0 0 "'aalt' Access All Alternates lookup 0" { "'aalt' Access All Alternates lookup 0 subtable"  } ['aalt' ('DFLT' <'dflt' > 'grek' <'dflt' > 'latn' <'CAT ' 'MOL ' 'NLD ' 'ROM ' 'TRK ' 'dflt' > ) ]
Lookup: 3 0 0 "'aalt' Access All Alternates lookup 1" { "'aalt' Access All Alternates lookup 1 subtable"  } ['aalt' ('DFLT' <'dflt' > 'grek' <'dflt' > 'latn' <'CAT ' 'MOL ' 'NLD ' 'ROM ' 'TRK ' 'dflt' > ) ]
Lookup: 1 0 0 "'locl' Localized Forms in Latin lookup 2" { "'locl' Localized Forms in Latin lookup 2 subtable"  } ['locl' ('latn' <'TRK ' > ) ]
Lookup: 1 0 0 "'locl' Localized Forms in Latin lookup 3" { "'locl' Localized Forms in Latin lookup 3 subtable"  } ['locl' ('latn' <'TAT ' > ) ]

StartChar: .notdef
Encoding: 65536 -1 0
Width: 500
Flags: W
LayerCount: 2
Fore
SplineSet
50 0 m 1,0,-1
 50 660 l 1,1,-1
 450 660 l 1,2,-1
 450 0 l 1,3,-1
 50 0 l 1,0,-1
130 80 m 1,4,-1
 370 80 l 1,5,-1
 370 580 l 1,6,-1
 130 580 l 1,7,-1
 130 80 l 1,4,-1
EndSplineSet
EndChar

StartChar: exclam
Encoding: 33 33 4
Width: 217
GlyphClass: 2
Flags: W
LayerCount: 2
Fore
SplineSet
130 660 m 1,0,-1
 130 330 l 1,1,-1
 125 185 l 1,2,-1
 92 185 l 1,3,-1
 87 330 l 1,4,-1
 87 660 l 1,5,-1
 130 660 l 1,0,-1
109 71 m 0,6,7
 126 71 126 71 136.5 60 c 128,-1,8
 147 49 147 49 147 32 c 128,-1,9
 147 15 147 15 136.5 4 c 128,-1,10
 126 -7 126 -7 109 -7 c 0,11,12
 91 -7 91 -7 80.5 4 c 128,-1,13
 70 15 70 15 70 32 c 128,-1,14
 70 49 70 49 80.5 60 c 128,-1,15
 91 71 91 71 109 71 c 0,6,7
EndSplineSet
Substitution2: "'smcp' Lowercase to Small Capitals lookup 12 subtable" exclam.sc
Substitution2: "'c2sc' Capitals to Small Capitals lookup 11 subtable" exclam.sc
Substitution2: "'aalt' Access All Alternates lookup 0 subtable" exclam.sc
EndChar

StartChar: quotedbl
Encoding: 34 34 5
Width: 304
GlyphClass: 2
Flags: W
LayerCount: 2
Fore
SplineSet
239 684 m 1,0,-1
 229 491 l 1,1,-1
 194 491 l 1,2,-1
 194 684 l 1,3,-1
 239 684 l 1,0,-1
117 684 m 1,4,-1
 107 491 l 1,5,-1
 72 491 l 1,6,-1
 72 684 l 1,7,-1
 117 684 l 1,4,-1
EndSplineSet
Substitution2: "'smcp' Lowercase to Small Capitals lookup 12 subtable" quotedbl.sc
Substitution2: "'c2sc' Capitals to Small Capitals lookup 11 subtable" quotedbl.sc
Substitution2: "'aalt' Access All Alternates lookup 0 subtable" quotedbl.sc
EndChar

StartChar: numbersign
Encoding: 35 35 6
Width: 604
GlyphClass: 2
Flags: W
LayerCount: 2
Fore
SplineSet
573 433 m 1,0,-1
 442 433 l 1,1,-1
 412 235 l 1,2,-1
 535 235 l 1,3,-1
 535 203 l 1,4,-1
 408 203 l 1,5,-1
 377 0 l 1,6,-1
 340 0 l 1,7,-1
 370 203 l 1,8,-1
 196 203 l 1,9,-1
 166 0 l 1,10,-1
 129 0 l 1,11,-1
 159 203 l 1,12,-1
 31 203 l 1,13,-1
 31 235 l 1,14,-1
 164 235 l 1,15,-1
 194 433 l 1,16,-1
 69 433 l 1,17,-1
 69 465 l 1,18,-1
 199 465 l 1,19,-1
 228 660 l 1,20,-1
 265 660 l 1,21,-1
 236 465 l 1,22,-1
 410 465 l 1,23,-1
 439 660 l 1,24,-1
 477 660 l 1,25,-1
 447 465 l 1,26,-1
 573 465 l 1,27,-1
 573 433 l 1,0,-1
375 235 m 1,28,-1
 405 433 l 1,29,-1
 231 433 l 1,30,-1
 201 235 l 1,31,-1
 375 235 l 1,28,-1
EndSplineSet
Substitution2: "'tnum' Tabular Numbers lookup 26 subtable" numbersign.tf
Substitution2: "'aalt' Access All Alternates lookup 0 subtable" numbersign.tf
EndChar

StartChar: dollar
Encoding: 36 36 7
Width: 604
GlyphClass: 2
Flags: W
LayerCount: 2
Fore
SplineSet
542 172 m 0,0,1
 542 97 542 97 484.5 50 c 128,-1,2
 427 3 427 3 331 0 c 1,3,-1
 331 -100 l 1,4,-1
 296 -100 l 1,5,-1
 296 1 l 1,6,7
 211 6 211 6 153 50 c 128,-1,8
 95 94 95 94 74 171 c 1,9,-1
 112 191 l 1,10,11
 125 124 125 124 175 83 c 128,-1,12
 225 42 225 42 296 36 c 1,13,-1
 296 313 l 1,14,15
 248 323 248 323 219.5 332 c 128,-1,16
 191 341 191 341 157.5 359.5 c 128,-1,17
 124 378 124 378 108 407.5 c 128,-1,18
 92 437 92 437 92 480 c 0,19,20
 92 552 92 552 147.5 604 c 128,-1,21
 203 656 203 656 296 660 c 1,22,-1
 296 760 l 1,23,-1
 331 760 l 1,24,-1
 331 659 l 1,25,26
 485 652 485 652 536 515 c 1,27,-1
 503 489 l 1,28,29
 482 555 482 555 440.5 587.5 c 128,-1,30
 399 620 399 620 331 624 c 1,31,-1
 331 342 l 1,32,33
 371 334 371 334 394 328 c 128,-1,34
 417 322 417 322 449.5 308.5 c 128,-1,35
 482 295 482 295 499 278.5 c 128,-1,36
 516 262 516 262 529 235 c 128,-1,37
 542 208 542 208 542 172 c 0,0,1
132 482 m 0,38,39
 132 422 132 422 174 394 c 128,-1,40
 216 366 216 366 296 349 c 1,41,-1
 296 625 l 1,42,43
 219 621 219 621 175.5 582 c 128,-1,44
 132 543 132 543 132 482 c 0,38,39
331 34 m 1,45,46
 408 36 408 36 455.5 71.5 c 128,-1,47
 503 107 503 107 503 170 c 0,48,49
 503 196 503 196 493.5 217 c 128,-1,50
 484 238 484 238 469.5 251 c 128,-1,51
 455 264 455 264 430.5 275 c 128,-1,52
 406 286 406 286 384.5 292 c 128,-1,53
 363 298 363 298 331 305 c 1,54,-1
 331 34 l 1,45,46
EndSplineSet
Substitution2: "'tnum' Tabular Numbers lookup 26 subtable" dollar.tf
Substitution2: "'aalt' Access All Alternates lookup 0 subtable" dollar.tf
EndChar

StartChar: percent
Encoding: 37 37 8
Width: 794
GlyphClass: 2
Flags: W
LayerCount: 2
Fore
SplineSet
186 664 m 128,-1,1
 256 664 256 664 294 614.5 c 128,-1,2
 332 565 332 565 332 490 c 0,3,4
 332 416 332 416 294 367.5 c 128,-1,5
 256 319 256 319 186 319 c 128,-1,6
 116 319 116 319 77.5 367.5 c 128,-1,7
 39 416 39 416 39 490 c 0,8,9
 39 565 39 565 77.5 614.5 c 128,-1,0
 116 664 116 664 186 664 c 128,-1,1
158 0 m 1,10,-1
 595 660 l 1,11,-1
 636 660 l 1,12,-1
 199 0 l 1,13,-1
 158 0 l 1,10,-1
186 631 m 128,-1,15
 133 631 133 631 105 591.5 c 128,-1,16
 77 552 77 552 77 490 c 0,17,18
 77 429 77 429 105 390.5 c 128,-1,19
 133 352 133 352 186 352 c 0,20,21
 240 352 240 352 267.5 390 c 128,-1,22
 295 428 295 428 295 490 c 128,-1,23
 295 552 295 552 267 591.5 c 128,-1,14
 239 631 239 631 186 631 c 128,-1,15
609 341 m 0,24,25
 679 341 679 341 717 292 c 128,-1,26
 755 243 755 243 755 168 c 0,27,28
 755 94 755 94 717 45 c 128,-1,29
 679 -4 679 -4 609 -4 c 0,30,31
 538 -4 538 -4 499.5 45 c 128,-1,32
 461 94 461 94 461 168 c 0,33,34
 461 243 461 243 499.5 292 c 128,-1,35
 538 341 538 341 609 341 c 0,24,25
609 308 m 0,36,37
 555 308 555 308 527 269 c 128,-1,38
 499 230 499 230 499 168 c 128,-1,39
 499 106 499 106 527 67.5 c 128,-1,40
 555 29 555 29 609 29 c 0,41,42
 662 29 662 29 690 67.5 c 128,-1,43
 718 106 718 106 718 168 c 128,-1,44
 718 230 718 230 690 269 c 128,-1,45
 662 308 662 308 609 308 c 0,36,37
EndSplineSet
EndChar

StartChar: ampersand
Encoding: 38 38 9
Width: 592
GlyphClass: 2
Flags: W
LayerCount: 2
Fore
SplineSet
464 105 m 1,0,1
 508 56 508 56 536.5 38.5 c 128,-1,2
 565 21 565 21 598 21 c 1,3,-1
 589 -10 l 1,4,5
 552 -10 552 -10 520.5 8.5 c 128,-1,6
 489 27 489 27 443 77 c 1,7,8
 367 -10 367 -10 243 -10 c 0,9,10
 157 -10 157 -10 101.5 33.5 c 128,-1,11
 46 77 46 77 46 148 c 0,12,13
 46 215 46 215 86.5 262 c 128,-1,14
 127 309 127 309 216 359 c 1,15,16
 167 423 167 423 149.5 457.5 c 128,-1,17
 132 492 132 492 132 529 c 0,18,19
 132 589 132 589 171.5 628.5 c 128,-1,20
 211 668 211 668 278 668 c 0,21,22
 340 668 340 668 380 635 c 128,-1,23
 420 602 420 602 420 543 c 0,24,25
 420 487 420 487 388.5 443 c 128,-1,26
 357 399 357 399 270 349 c 1,27,28
 280 335 280 335 304 304.5 c 128,-1,29
 328 274 328 274 339 260 c 0,30,31
 395 186 395 186 441 132 c 1,32,33
 500 224 500 224 495 362 c 1,34,-1
 530 359 l 1,35,36
 533 208 533 208 464 105 c 1,0,1
278 632 m 0,37,38
 229 632 229 632 200 604 c 128,-1,39
 171 576 171 576 171 530 c 0,40,41
 171 498 171 498 185 470 c 128,-1,42
 199 442 199 442 249 377 c 1,43,44
 327 420 327 420 355 457.5 c 128,-1,45
 383 495 383 495 383 542 c 0,46,47
 383 584 383 584 354.5 608 c 128,-1,48
 326 632 326 632 278 632 c 0,37,38
240 24 m 0,49,50
 352 24 352 24 420 103 c 1,51,52
 403 122 403 122 312 236 c 0,53,54
 295 258 295 258 266 294 c 2,55,-1
 238 331 l 1,56,57
 155 284 155 284 120 245 c 128,-1,58
 85 206 85 206 85 150 c 0,59,60
 85 93 85 93 129.5 58.5 c 128,-1,61
 174 24 174 24 240 24 c 0,49,50
EndSplineSet
Substitution2: "'smcp' Lowercase to Small Capitals lookup 12 subtable" ampersand.sc
Substitution2: "'c2sc' Capitals to Small Capitals lookup 11 subtable" ampersand.sc
Substitution2: "'aalt' Access All Alternates lookup 0 subtable" ampersand.sc
EndChar

StartChar: quotesingle
Encoding: 39 39 10
Width: 182
GlyphClass: 2
Flags: W
LayerCount: 2
Fore
SplineSet
117 684 m 1,0,-1
 107 491 l 1,1,-1
 72 491 l 1,2,-1
 72 684 l 1,3,-1
 117 684 l 1,0,-1
EndSplineSet
Substitution2: "'smcp' Lowercase to Small Capitals lookup 12 subtable" quotesingle.sc
Substitution2: "'c2sc' Capitals to Small Capitals lookup 11 subtable" quotesingle.sc
Substitution2: "'aalt' Access All Alternates lookup 0 subtable" quotesingle.sc
EndChar

StartChar: parenleft
Encoding: 40 40 11
Width: 291
GlyphClass: 2
Flags: W
LayerCount: 2
Fore
SplineSet
251 744 m 1,0,-1
 274 720 l 1,1,2
 181 639 181 639 139 534.5 c 128,-1,3
 97 430 97 430 97 283 c 0,4,5
 97 137 97 137 139 32 c 128,-1,6
 181 -73 181 -73 274 -153 c 1,7,-1
 251 -177 l 1,8,9
 56 -10 56 -10 56 283 c 0,10,11
 56 577 56 577 251 744 c 1,0,-1
EndSplineSet
Substitution2: "'case' Case-Sensitive Forms lookup 29 subtable" parenleft.case
Substitution2: "'sups' Superscript lookup 15 subtable" uni207D
Substitution2: "'subs' Subscript lookup 14 subtable" uni208D
Substitution2: "'sinf' Scientific Inferiors lookup 13 subtable" uni208D
AlternateSubs2: "'aalt' Access All Alternates lookup 1 subtable" uni208D uni207D parenleft.case
EndChar

StartChar: parenright
Encoding: 41 41 12
Width: 291
GlyphClass: 2
Flags: W
LayerCount: 2
Fore
SplineSet
40 744 m 1,0,1
 235 577 235 577 235 283 c 0,2,3
 235 -10 235 -10 40 -177 c 1,4,-1
 17 -153 l 1,5,6
 110 -73 110 -73 152 32 c 128,-1,7
 194 137 194 137 194 283 c 0,8,9
 194 430 194 430 152 534.5 c 128,-1,10
 110 639 110 639 17 720 c 1,11,-1
 40 744 l 1,0,1
EndSplineSet
Substitution2: "'case' Case-Sensitive Forms lookup 29 subtable" parenright.case
Substitution2: "'sups' Superscript lookup 15 subtable" uni207E
Substitution2: "'subs' Subscript lookup 14 subtable" uni208E
Substitution2: "'sinf' Scientific Inferiors lookup 13 subtable" uni208E
AlternateSubs2: "'aalt' Access All Alternates lookup 1 subtable" uni208E uni207E parenright.case
EndChar

StartChar: asterisk
Encoding: 42 42 13
Width: 534
GlyphClass: 2
Flags: W
LayerCount: 2
Fore
SplineSet
287 500 m 1,0,-1
 337 440 l 1,1,-1
 413 335 l 1,2,-1
 385 315 l 1,3,-1
 308 418 l 1,4,-1
 267 485 l 1,5,-1
 226 418 l 1,6,-1
 150 315 l 1,7,-1
 121 335 l 1,8,-1
 197 440 l 1,9,-1
 247 500 l 1,10,-1
 171 519 l 1,11,-1
 49 559 l 1,12,-1
 59 592 l 1,13,-1
 182 553 l 1,14,-1
 255 523 l 1,15,-1
 249 601 l 1,16,-1
 249 730 l 1,17,-1
 285 730 l 1,18,-1
 285 601 l 1,19,-1
 279 523 l 1,20,-1
 352 553 l 1,21,-1
 475 592 l 1,22,-1
 485 559 l 1,23,-1
 363 519 l 1,24,-1
 287 500 l 1,0,-1
EndSplineSet
EndChar

StartChar: plus
Encoding: 43 43 14
Width: 604
GlyphClass: 2
Flags: W
LayerCount: 2
Fore
SplineSet
538 335 m 1,0,-1
 538 297 l 1,1,-1
 322 297 l 1,2,-1
 322 75 l 1,3,-1
 283 75 l 1,4,-1
 283 297 l 1,5,-1
 66 297 l 1,6,-1
 66 335 l 1,7,-1
 283 335 l 1,8,-1
 283 552 l 1,9,-1
 322 552 l 1,10,-1
 322 335 l 1,11,-1
 538 335 l 1,0,-1
EndSplineSet
Substitution2: "'sups' Superscript lookup 15 subtable" uni207A
Substitution2: "'subs' Subscript lookup 14 subtable" uni208A
Substitution2: "'sinf' Scientific Inferiors lookup 13 subtable" uni208A
AlternateSubs2: "'aalt' Access All Alternates lookup 1 subtable" uni208A uni207A
EndChar

StartChar: comma
Encoding: 44 44 15
Width: 302
GlyphClass: 2
Flags: W
LayerCount: 2
Fore
SplineSet
153 71 m 0,0,1
 176 71 176 71 189.5 52.5 c 128,-1,2
 203 34 203 34 203 5 c 0,3,4
 203 -34 203 -34 183 -68.5 c 128,-1,5
 163 -103 163 -103 124 -122 c 1,6,-1
 100 -102 l 1,7,8
 134 -89 134 -89 155 -57.5 c 128,-1,9
 176 -26 176 -26 172 2 c 1,10,-1
 169 3 l 1,11,12
 164 -7 164 -7 148 -7 c 0,13,14
 134 -7 134 -7 124 3.5 c 128,-1,15
 114 14 114 14 114 31 c 0,16,17
 114 47 114 47 125.5 59 c 128,-1,18
 137 71 137 71 153 71 c 0,0,1
EndSplineSet
Substitution2: "'tnum' Tabular Numbers lookup 26 subtable" comma.tf
Substitution2: "'sups' Superscript lookup 15 subtable" commasuperior
Substitution2: "'subs' Subscript lookup 14 subtable" commainferior
Substitution2: "'sinf' Scientific Inferiors lookup 13 subtable" commainferior
AlternateSubs2: "'aalt' Access All Alternates lookup 1 subtable" commainferior commasuperior comma.tf
EndChar

StartChar: hyphen
Encoding: 45 45 16
Width: 453
GlyphClass: 2
Flags: W
LayerCount: 2
Fore
SplineSet
377 288 m 1,0,-1
 377 246 l 1,1,-1
 77 246 l 1,2,-1
 77 288 l 1,3,-1
 377 288 l 1,0,-1
EndSplineSet
Substitution2: "'case' Case-Sensitive Forms lookup 29 subtable" hyphen.case
Substitution2: "'sups' Superscript lookup 15 subtable" hyphensuperior
Substitution2: "'subs' Subscript lookup 14 subtable" hypheninferior
Substitution2: "'sinf' Scientific Inferiors lookup 13 subtable" hypheninferior
AlternateSubs2: "'aalt' Access All Alternates lookup 1 subtable" hypheninferior hyphensuperior hyphen.case
EndChar

StartChar: period
Encoding: 46 46 17
Width: 302
GlyphClass: 2
Flags: W
LayerCount: 2
Fore
SplineSet
151 71 m 128,-1,1
 168 71 168 71 179 60 c 128,-1,2
 190 49 190 49 190 32 c 128,-1,3
 190 15 190 15 179 4 c 128,-1,4
 168 -7 168 -7 151 -7 c 128,-1,5
 134 -7 134 -7 123 4 c 128,-1,6
 112 15 112 15 112 32 c 128,-1,7
 112 49 112 49 123 60 c 128,-1,0
 134 71 134 71 151 71 c 128,-1,1
EndSplineSet
Substitution2: "'tnum' Tabular Numbers lookup 26 subtable" period.tf
Substitution2: "'sups' Superscript lookup 15 subtable" periodsuperior
Substitution2: "'subs' Subscript lookup 14 subtable" periodinferior
Substitution2: "'sinf' Scientific Inferiors lookup 13 subtable" periodinferior
AlternateSubs2: "'aalt' Access All Alternates lookup 1 subtable" periodinferior periodsuperior period.tf
EndChar

StartChar: slash
Encoding: 47 47 18
Width: 384
GlyphClass: 2
Flags: W
LayerCount: 2
Fore
SplineSet
351 730 m 1,0,-1
 72 -70 l 1,1,-1
 32 -70 l 1,2,-1
 311 730 l 1,3,-1
 351 730 l 1,0,-1
EndSplineSet
Substitution2: "'frac' Diagonal Fractions lookup 18 subtable" fraction
Substitution2: "'aalt' Access All Alternates lookup 0 subtable" fraction
EndChar

StartChar: zero
Encoding: 48 48 19
Width: 604
GlyphClass: 2
Flags: W
LayerCount: 2
Fore
SplineSet
302 -10 m 128,-1,1
 186 -10 186 -10 124.5 77.5 c 128,-1,2
 63 165 63 165 63 330 c 128,-1,3
 63 495 63 495 124.5 582.5 c 128,-1,4
 186 670 186 670 302 670 c 128,-1,5
 418 670 418 670 479.5 582.5 c 128,-1,6
 541 495 541 495 541 330 c 128,-1,7
 541 165 541 165 479.5 77.5 c 128,-1,0
 418 -10 418 -10 302 -10 c 128,-1,1
302 27 m 128,-1,9
 397 27 397 27 448 105 c 128,-1,10
 499 183 499 183 499 330 c 128,-1,11
 499 477 499 477 448 555 c 128,-1,12
 397 633 397 633 302 633 c 128,-1,13
 207 633 207 633 156 555 c 128,-1,14
 105 477 105 477 105 330 c 128,-1,15
 105 183 105 183 156 105 c 128,-1,8
 207 27 207 27 302 27 c 128,-1,9
EndSplineSet
Substitution2: "'zero' Slashed Zero lookup 28 subtable" zero.zero
Substitution2: "'onum' Oldstyle Figures lookup 27 subtable" zero.osf
Substitution2: "'tnum' Tabular Numbers lookup 26 subtable" zero.tf
Substitution2: "'frac' Diagonal Fractions lookup 19 subtable" zero.numr
Substitution2: "'dnom' Denominators lookup 17 subtable" zero.dnom
Substitution2: "'numr' Numerators lookup 16 subtable" zero.numr
Substitution2: "'sups' Superscript lookup 15 subtable" uni2070
Substitution2: "'subs' Subscript lookup 14 subtable" uni2080
Substitution2: "'sinf' Scientific Inferiors lookup 13 subtable" uni2080
Substitution2: "'smcp' Lowercase to Small Capitals lookup 12 subtable" zero.sc
Substitution2: "'c2sc' Capitals to Small Capitals lookup 11 subtable" zero.sc
AlternateSubs2: "'aalt' Access All Alternates lookup 1 subtable" zero.sc uni2080 uni2070 zero.numr zero.dnom zero.tf zero.osf zero.zero
EndChar

StartChar: one
Encoding: 49 49 20
Width: 604
GlyphClass: 2
Flags: W
LayerCount: 2
Fore
SplineSet
360 37 m 1,0,-1
 548 37 l 1,1,-1
 548 0 l 1,2,-1
 110 0 l 1,3,-1
 110 37 l 1,4,-1
 319 37 l 1,5,-1
 319 536 l 2,6,7
 319 546 319 546 319.5 569.5 c 128,-1,8
 320 593 320 593 320 605 c 1,9,10
 284 564 284 564 224.5 529 c 128,-1,11
 165 494 165 494 111 478 c 1,12,-1
 100 516 l 1,13,14
 156 533 156 533 227.5 575 c 128,-1,15
 299 617 299 617 323 660 c 1,16,-1
 360 660 l 1,17,-1
 360 37 l 1,0,-1
EndSplineSet
Substitution2: "'onum' Oldstyle Figures lookup 27 subtable" one.osf
Substitution2: "'tnum' Tabular Numbers lookup 26 subtable" one.tf
Substitution2: "'nalt' Alternate Annotation Forms lookup 23 subtable" uni2780
Substitution2: "'frac' Diagonal Fractions lookup 19 subtable" one.numr
Substitution2: "'dnom' Denominators lookup 17 subtable" one.dnom
Substitution2: "'numr' Numerators lookup 16 subtable" one.numr
Substitution2: "'sups' Superscript lookup 15 subtable" uni00B9
Substitution2: "'subs' Subscript lookup 14 subtable" uni2081
Substitution2: "'sinf' Scientific Inferiors lookup 13 subtable" uni2081
Substitution2: "'smcp' Lowercase to Small Capitals lookup 12 subtable" one.sc
Substitution2: "'c2sc' Capitals to Small Capitals lookup 11 subtable" one.sc
AlternateSubs2: "'aalt' Access All Alternates lookup 1 subtable" one.sc uni2081 uni00B9 one.numr one.dnom uni2780 one.tf one.osf
EndChar

StartChar: two
Encoding: 50 50 21
Width: 604
GlyphClass: 2
Flags: W
LayerCount: 2
Fore
SplineSet
95 0 m 1,0,-1
 95 34 l 1,1,2
 181 102 181 102 230.5 143.5 c 128,-1,3
 280 185 280 185 332.5 234 c 128,-1,4
 385 283 385 283 411 318 c 128,-1,5
 437 353 437 353 453.5 392.5 c 128,-1,6
 470 432 470 432 470 470 c 0,7,8
 470 545 470 545 424.5 588.5 c 128,-1,9
 379 632 379 632 301 632 c 0,10,11
 221 632 221 632 172.5 582.5 c 128,-1,12
 124 533 124 533 119 448 c 1,13,-1
 82 468 l 1,14,15
 90 560 90 560 148 615 c 128,-1,16
 206 670 206 670 302 670 c 0,17,18
 399 670 399 670 455.5 616 c 128,-1,19
 512 562 512 562 512 470 c 0,20,21
 512 374 512 374 430.5 280.5 c 128,-1,22
 349 187 349 187 156 38 c 1,23,-1
 156 37 l 1,24,-1
 211 38 l 1,25,-1
 535 38 l 1,26,-1
 535 0 l 1,27,-1
 95 0 l 1,0,-1
EndSplineSet
Substitution2: "'onum' Oldstyle Figures lookup 27 subtable" two.osf
Substitution2: "'tnum' Tabular Numbers lookup 26 subtable" two.tf
Substitution2: "'nalt' Alternate Annotation Forms lookup 23 subtable" uni2781
Substitution2: "'frac' Diagonal Fractions lookup 19 subtable" two.numr
Substitution2: "'dnom' Denominators lookup 17 subtable" two.dnom
Substitution2: "'numr' Numerators lookup 16 subtable" two.numr
Substitution2: "'sups' Superscript lookup 15 subtable" uni00B2
Substitution2: "'subs' Subscript lookup 14 subtable" uni2082
Substitution2: "'sinf' Scientific Inferiors lookup 13 subtable" uni2082
Substitution2: "'smcp' Lowercase to Small Capitals lookup 12 subtable" two.sc
Substitution2: "'c2sc' Capitals to Small Capitals lookup 11 subtable" two.sc
AlternateSubs2: "'aalt' Access All Alternates lookup 1 subtable" two.sc uni2082 uni00B2 two.numr two.dnom uni2781 two.tf two.osf
EndChar

StartChar: three
Encoding: 51 51 22
Width: 604
GlyphClass: 2
Flags: W
LayerCount: 2
Fore
SplineSet
302 670 m 0,0,1
 393 670 393 670 445 622.5 c 128,-1,2
 497 575 497 575 497 498 c 0,3,4
 497 432 497 432 462 386 c 128,-1,5
 427 340 427 340 371 334 c 1,6,-1
 371 332 l 1,7,8
 434 330 434 330 473.5 283.5 c 128,-1,9
 513 237 513 237 513 174 c 0,10,11
 513 92 513 92 453 41 c 128,-1,12
 393 -10 393 -10 300 -10 c 0,13,14
 213 -10 213 -10 155.5 30.5 c 128,-1,15
 98 71 98 71 76 144 c 1,16,-1
 115 165 l 1,17,18
 146 28 146 28 303 28 c 0,19,20
 378 28 378 28 425 69 c 128,-1,21
 472 110 472 110 471 179 c 0,22,23
 471 240 471 240 429 277 c 128,-1,24
 387 314 387 314 309 314 c 2,25,-1
 268 314 l 1,26,-1
 268 352 l 1,27,-1
 309 352 l 2,28,29
 379 352 379 352 417 390 c 128,-1,30
 455 428 455 428 455 491 c 0,31,32
 455 558 455 558 415 595 c 128,-1,33
 375 632 375 632 302 632 c 0,34,35
 240 632 240 632 198 601 c 128,-1,36
 156 570 156 570 140 514 c 1,37,-1
 101 533 l 1,38,39
 124 596 124 596 177.5 633 c 128,-1,40
 231 670 231 670 302 670 c 0,0,1
EndSplineSet
Substitution2: "'onum' Oldstyle Figures lookup 27 subtable" three.osf
Substitution2: "'tnum' Tabular Numbers lookup 26 subtable" three.tf
Substitution2: "'nalt' Alternate Annotation Forms lookup 23 subtable" uni2782
Substitution2: "'frac' Diagonal Fractions lookup 19 subtable" three.numr
Substitution2: "'dnom' Denominators lookup 17 subtable" three.dnom
Substitution2: "'numr' Numerators lookup 16 subtable" three.numr
Substitution2: "'sups' Superscript lookup 15 subtable" uni00B3
Substitution2: "'subs' Subscript lookup 14 subtable" uni2083
Substitution2: "'sinf' Scientific Inferiors lookup 13 subtable" uni2083
Substitution2: "'smcp' Lowercase to Small Capitals lookup 12 subtable" three.sc
Substitution2: "'c2sc' Capitals to Small Capitals lookup 11 subtable" three.sc
AlternateSubs2: "'aalt' Access All Alternates lookup 1 subtable" three.sc uni2083 uni00B3 three.numr three.dnom uni2782 three.tf three.osf
EndChar

StartChar: four
Encoding: 52 52 23
Width: 604
GlyphClass: 2
Flags: W
LayerCount: 2
Fore
SplineSet
376 0 m 1,0,-1
 376 193 l 1,1,-1
 52 193 l 1,2,-1
 52 224 l 1,3,-1
 362 660 l 1,4,-1
 417 660 l 1,5,-1
 417 228 l 1,6,-1
 558 228 l 1,7,-1
 558 193 l 1,8,-1
 417 193 l 1,9,-1
 417 0 l 1,10,-1
 376 0 l 1,0,-1
95 228 m 1,11,-1
 376 228 l 1,12,-1
 376 492 l 2,13,14
 376 534 376 534 378 624 c 1,15,-1
 377 624 l 1,16,17
 357 590 357 590 320 538 c 2,18,-1
 95 228 l 1,11,-1
EndSplineSet
Substitution2: "'onum' Oldstyle Figures lookup 27 subtable" four.osf
Substitution2: "'tnum' Tabular Numbers lookup 26 subtable" four.tf
Substitution2: "'nalt' Alternate Annotation Forms lookup 23 subtable" uni2783
Substitution2: "'frac' Diagonal Fractions lookup 19 subtable" four.numr
Substitution2: "'dnom' Denominators lookup 17 subtable" four.dnom
Substitution2: "'numr' Numerators lookup 16 subtable" four.numr
Substitution2: "'sups' Superscript lookup 15 subtable" uni2074
Substitution2: "'subs' Subscript lookup 14 subtable" uni2084
Substitution2: "'sinf' Scientific Inferiors lookup 13 subtable" uni2084
Substitution2: "'smcp' Lowercase to Small Capitals lookup 12 subtable" four.sc
Substitution2: "'c2sc' Capitals to Small Capitals lookup 11 subtable" four.sc
AlternateSubs2: "'aalt' Access All Alternates lookup 1 subtable" four.sc uni2084 uni2074 four.numr four.dnom uni2783 four.tf four.osf
EndChar

StartChar: five
Encoding: 53 53 24
Width: 604
GlyphClass: 2
Flags: W
LayerCount: 2
Fore
SplineSet
323 409 m 0,0,1
 415 409 415 409 472.5 351.5 c 128,-1,2
 530 294 530 294 530 201 c 0,3,4
 530 106 530 106 470.5 48 c 128,-1,5
 411 -10 411 -10 313 -10 c 0,6,7
 128 -10 128 -10 86 146 c 1,8,-1
 125 166 l 1,9,10
 152 28 152 28 312 28 c 0,11,12
 391 28 391 28 439.5 75.5 c 128,-1,13
 488 123 488 123 487 200 c 0,14,15
 487 278 487 278 440.5 324.5 c 128,-1,16
 394 371 394 371 317 371 c 0,17,18
 197 371 197 371 141 294 c 1,19,-1
 105 294 l 1,20,-1
 139 660 l 1,21,-1
 503 660 l 1,22,-1
 503 622 l 1,23,-1
 173 622 l 1,24,-1
 147 353 l 1,25,-1
 146 338 l 1,26,-1
 147 338 l 1,27,28
 203 409 203 409 323 409 c 0,0,1
EndSplineSet
Substitution2: "'onum' Oldstyle Figures lookup 27 subtable" five.osf
Substitution2: "'tnum' Tabular Numbers lookup 26 subtable" five.tf
Substitution2: "'nalt' Alternate Annotation Forms lookup 23 subtable" uni2784
Substitution2: "'frac' Diagonal Fractions lookup 19 subtable" five.numr
Substitution2: "'dnom' Denominators lookup 17 subtable" five.dnom
Substitution2: "'numr' Numerators lookup 16 subtable" five.numr
Substitution2: "'sups' Superscript lookup 15 subtable" uni2075
Substitution2: "'subs' Subscript lookup 14 subtable" uni2085
Substitution2: "'sinf' Scientific Inferiors lookup 13 subtable" uni2085
Substitution2: "'smcp' Lowercase to Small Capitals lookup 12 subtable" five.sc
Substitution2: "'c2sc' Capitals to Small Capitals lookup 11 subtable" five.sc
AlternateSubs2: "'aalt' Access All Alternates lookup 1 subtable" five.sc uni2085 uni2075 five.numr five.dnom uni2784 five.tf five.osf
EndChar

StartChar: six
Encoding: 54 54 25
Width: 604
GlyphClass: 2
Flags: W
LayerCount: 2
Fore
SplineSet
343 670 m 0,0,1
 484 670 484 670 534 543 c 1,2,-1
 495 525 l 1,3,4
 460 632 460 632 341 632 c 0,5,6
 269 632 269 632 219 586.5 c 128,-1,7
 169 541 169 541 147 471.5 c 128,-1,8
 125 402 125 402 125 316 c 0,9,10
 125 294 125 294 131 234 c 1,11,-1
 134 234 l 1,12,13
 140 312 140 312 199.5 358 c 128,-1,14
 259 404 259 404 334 404 c 0,15,16
 433 404 433 404 490.5 347.5 c 128,-1,17
 548 291 548 291 548 197 c 0,18,19
 548 102 548 102 489 46 c 128,-1,20
 430 -10 430 -10 330 -10 c 0,21,22
 211 -10 211 -10 149 79 c 128,-1,23
 87 168 87 168 87 330 c 0,24,25
 87 493 87 493 158 581.5 c 128,-1,26
 229 670 229 670 343 670 c 0,0,1
332 365 m 0,27,28
 254 365 254 365 204 315 c 128,-1,29
 154 265 154 265 154 198 c 0,30,31
 154 124 154 124 202.5 76.5 c 128,-1,32
 251 29 251 29 329 29 c 0,33,34
 411 29 411 29 458.5 74.5 c 128,-1,35
 506 120 506 120 506 198 c 0,36,37
 506 273 506 273 459 319 c 128,-1,38
 412 365 412 365 332 365 c 0,27,28
EndSplineSet
Substitution2: "'onum' Oldstyle Figures lookup 27 subtable" six.osf
Substitution2: "'tnum' Tabular Numbers lookup 26 subtable" six.tf
Substitution2: "'nalt' Alternate Annotation Forms lookup 23 subtable" uni2785
Substitution2: "'frac' Diagonal Fractions lookup 19 subtable" six.numr
Substitution2: "'dnom' Denominators lookup 17 subtable" six.dnom
Substitution2: "'numr' Numerators lookup 16 subtable" six.numr
Substitution2: "'sups' Superscript lookup 15 subtable" uni2076
Substitution2: "'subs' Subscript lookup 14 subtable" uni2086
Substitution2: "'sinf' Scientific Inferiors lookup 13 subtable" uni2086
Substitution2: "'smcp' Lowercase to Small Capitals lookup 12 subtable" six.sc
Substitution2: "'c2sc' Capitals to Small Capitals lookup 11 subtable" six.sc
AlternateSubs2: "'aalt' Access All Alternates lookup 1 subtable" six.sc uni2086 uni2076 six.numr six.dnom uni2785 six.tf six.osf
EndChar

StartChar: seven
Encoding: 55 55 26
Width: 604
GlyphClass: 2
Flags: W
LayerCount: 2
Fore
SplineSet
57 660 m 1,0,-1
 570 660 l 1,1,-1
 570 622 l 1,2,3
 305 363 305 363 292 0 c 1,4,-1
 250 0 l 1,5,6
 264 364 264 364 523 622 c 1,7,-1
 57 622 l 1,8,-1
 57 660 l 1,0,-1
EndSplineSet
Substitution2: "'onum' Oldstyle Figures lookup 27 subtable" seven.osf
Substitution2: "'tnum' Tabular Numbers lookup 26 subtable" seven.tf
Substitution2: "'nalt' Alternate Annotation Forms lookup 23 subtable" uni2786
Substitution2: "'frac' Diagonal Fractions lookup 19 subtable" seven.numr
Substitution2: "'dnom' Denominators lookup 17 subtable" seven.dnom
Substitution2: "'numr' Numerators lookup 16 subtable" seven.numr
Substitution2: "'sups' Superscript lookup 15 subtable" uni2077
Substitution2: "'subs' Subscript lookup 14 subtable" uni2087
Substitution2: "'sinf' Scientific Inferiors lookup 13 subtable" uni2087
Substitution2: "'smcp' Lowercase to Small Capitals lookup 12 subtable" seven.sc
Substitution2: "'c2sc' Capitals to Small Capitals lookup 11 subtable" seven.sc
AlternateSubs2: "'aalt' Access All Alternates lookup 1 subtable" seven.sc uni2087 uni2077 seven.numr seven.dnom uni2786 seven.tf seven.osf
EndChar

StartChar: eight
Encoding: 56 56 27
Width: 604
GlyphClass: 2
Flags: W
LayerCount: 2
Fore
SplineSet
302 670 m 0,0,1
 391 670 391 670 445 624.5 c 128,-1,2
 499 579 499 579 499 503 c 0,3,4
 499 446 499 446 467 405 c 128,-1,5
 435 364 435 364 380 348 c 1,6,-1
 380 347 l 1,7,8
 447 330 447 330 487 284 c 128,-1,9
 527 238 527 238 527 173 c 0,10,11
 527 91 527 91 465 40.5 c 128,-1,12
 403 -10 403 -10 302 -10 c 128,-1,13
 201 -10 201 -10 138.5 40.5 c 128,-1,14
 76 91 76 91 76 173 c 0,15,16
 76 238 76 238 116.5 284.5 c 128,-1,17
 157 331 157 331 225 347 c 1,18,-1
 225 348 l 1,19,20
 169 364 169 364 137 404.5 c 128,-1,21
 105 445 105 445 105 503 c 0,22,23
 105 579 105 579 158.5 624.5 c 128,-1,24
 212 670 212 670 302 670 c 0,0,1
302 632 m 128,-1,26
 231 632 231 632 189 596.5 c 128,-1,27
 147 561 147 561 147 500 c 128,-1,28
 147 439 147 439 189.5 402.5 c 128,-1,29
 232 366 232 366 302 366 c 128,-1,30
 372 366 372 366 414.5 402.5 c 128,-1,31
 457 439 457 439 457 500 c 128,-1,32
 457 561 457 561 415 596.5 c 128,-1,25
 373 632 373 632 302 632 c 128,-1,26
302 28 m 0,33,34
 384 28 384 28 434.5 68.5 c 128,-1,35
 485 109 485 109 485 176 c 128,-1,36
 485 243 485 243 434.5 285 c 128,-1,37
 384 327 384 327 302 327 c 128,-1,38
 220 327 220 327 169 285 c 128,-1,39
 118 243 118 243 118 176 c 128,-1,40
 118 109 118 109 168.5 68.5 c 128,-1,41
 219 28 219 28 302 28 c 0,33,34
EndSplineSet
Substitution2: "'onum' Oldstyle Figures lookup 27 subtable" eight.osf
Substitution2: "'tnum' Tabular Numbers lookup 26 subtable" eight.tf
Substitution2: "'nalt' Alternate Annotation Forms lookup 23 subtable" uni2787
Substitution2: "'frac' Diagonal Fractions lookup 19 subtable" eight.numr
Substitution2: "'dnom' Denominators lookup 17 subtable" eight.dnom
Substitution2: "'numr' Numerators lookup 16 subtable" eight.numr
Substitution2: "'sups' Superscript lookup 15 subtable" uni2078
Substitution2: "'subs' Subscript lookup 14 subtable" uni2088
Substitution2: "'sinf' Scientific Inferiors lookup 13 subtable" uni2088
Substitution2: "'smcp' Lowercase to Small Capitals lookup 12 subtable" eight.sc
Substitution2: "'c2sc' Capitals to Small Capitals lookup 11 subtable" eight.sc
AlternateSubs2: "'aalt' Access All Alternates lookup 1 subtable" eight.sc uni2088 uni2078 eight.numr eight.dnom uni2787 eight.tf eight.osf
EndChar

StartChar: nine
Encoding: 57 57 28
Width: 604
GlyphClass: 2
Flags: W
LayerCount: 2
Fore
SplineSet
289 670 m 0,0,1
 406 670 406 670 469 579.5 c 128,-1,2
 532 489 532 489 532 330 c 0,3,4
 532 165 532 165 467.5 77.5 c 128,-1,5
 403 -10 403 -10 290 -10 c 0,6,7
 206 -10 206 -10 149.5 28 c 128,-1,8
 93 66 93 66 73 134 c 1,9,-1
 114 155 l 1,10,11
 142 28 142 28 289 28 c 0,12,13
 345 28 345 28 386.5 53 c 128,-1,14
 428 78 428 78 450.5 123.5 c 128,-1,15
 473 169 473 169 483.5 223 c 128,-1,16
 494 277 494 277 494 343 c 0,17,18
 494 384 494 384 487 429 c 1,19,-1
 484 429 l 1,20,21
 480 348 480 348 420 302 c 128,-1,22
 360 256 360 256 285 256 c 0,23,24
 187 256 187 256 128.5 312 c 128,-1,25
 70 368 70 368 70 463 c 128,-1,26
 70 558 70 558 129.5 614 c 128,-1,27
 189 670 189 670 289 670 c 0,0,1
290 631 m 0,28,29
 208 631 208 631 160 585.5 c 128,-1,30
 112 540 112 540 112 462 c 0,31,32
 112 386 112 386 159.5 340.5 c 128,-1,33
 207 295 207 295 287 295 c 0,34,35
 363 295 363 295 413.5 345 c 128,-1,36
 464 395 464 395 464 462 c 0,37,38
 464 536 464 536 415.5 583.5 c 128,-1,39
 367 631 367 631 290 631 c 0,28,29
EndSplineSet
Substitution2: "'onum' Oldstyle Figures lookup 27 subtable" nine.osf
Substitution2: "'tnum' Tabular Numbers lookup 26 subtable" nine.tf
Substitution2: "'nalt' Alternate Annotation Forms lookup 23 subtable" uni2788
Substitution2: "'frac' Diagonal Fractions lookup 19 subtable" nine.numr
Substitution2: "'dnom' Denominators lookup 17 subtable" nine.dnom
Substitution2: "'numr' Numerators lookup 16 subtable" nine.numr
Substitution2: "'sups' Superscript lookup 15 subtable" uni2079
Substitution2: "'subs' Subscript lookup 14 subtable" uni2089
Substitution2: "'sinf' Scientific Inferiors lookup 13 subtable" uni2089
Substitution2: "'smcp' Lowercase to Small Capitals lookup 12 subtable" nine.sc
Substitution2: "'c2sc' Capitals to Small Capitals lookup 11 subtable" nine.sc
AlternateSubs2: "'aalt' Access All Alternates lookup 1 subtable" nine.sc uni2089 uni2079 nine.numr nine.dnom uni2788 nine.tf nine.osf
EndChar

StartChar: colon
Encoding: 58 58 29
Width: 302
GlyphClass: 2
Flags: W
LayerCount: 2
Fore
SplineSet
151 504 m 128,-1,1
 168 504 168 504 179 493 c 128,-1,2
 190 482 190 482 190 465 c 128,-1,3
 190 448 190 448 179 437 c 128,-1,4
 168 426 168 426 151 426 c 128,-1,5
 134 426 134 426 123 437 c 128,-1,6
 112 448 112 448 112 465 c 128,-1,7
 112 482 112 482 123 493 c 128,-1,0
 134 504 134 504 151 504 c 128,-1,1
151 71 m 128,-1,9
 168 71 168 71 179 60 c 128,-1,10
 190 49 190 49 190 32 c 128,-1,11
 190 15 190 15 179 4 c 128,-1,12
 168 -7 168 -7 151 -7 c 128,-1,13
 134 -7 134 -7 123 4 c 128,-1,14
 112 15 112 15 112 32 c 128,-1,15
 112 49 112 49 123 60 c 128,-1,8
 134 71 134 71 151 71 c 128,-1,9
EndSplineSet
Substitution2: "'tnum' Tabular Numbers lookup 26 subtable" colon.tf
Substitution2: "'sups' Superscript lookup 15 subtable" colonsuperior
Substitution2: "'subs' Subscript lookup 14 subtable" coloninferior
Substitution2: "'sinf' Scientific Inferiors lookup 13 subtable" coloninferior
AlternateSubs2: "'aalt' Access All Alternates lookup 1 subtable" coloninferior colonsuperior colon.tf
EndChar

StartChar: semicolon
Encoding: 59 59 30
Width: 302
GlyphClass: 2
Flags: W
LayerCount: 2
Fore
SplineSet
157 426 m 0,0,1
 139 426 139 426 128.5 437 c 128,-1,2
 118 448 118 448 118 465 c 128,-1,3
 118 482 118 482 128.5 493 c 128,-1,4
 139 504 139 504 157 504 c 0,5,6
 174 504 174 504 184.5 493 c 128,-1,7
 195 482 195 482 195 465 c 128,-1,8
 195 448 195 448 184.5 437 c 128,-1,9
 174 426 174 426 157 426 c 0,0,1
153 71 m 0,10,11
 176 71 176 71 189.5 52.5 c 128,-1,12
 203 34 203 34 203 5 c 0,13,14
 203 -34 203 -34 183 -68.5 c 128,-1,15
 163 -103 163 -103 124 -122 c 1,16,-1
 100 -102 l 1,17,18
 134 -89 134 -89 155 -57.5 c 128,-1,19
 176 -26 176 -26 172 2 c 1,20,-1
 169 3 l 1,21,22
 164 -7 164 -7 148 -7 c 0,23,24
 134 -7 134 -7 124 3.5 c 128,-1,25
 114 14 114 14 114 31 c 0,26,27
 114 47 114 47 125.5 59 c 128,-1,28
 137 71 137 71 153 71 c 0,10,11
EndSplineSet
Substitution2: "'tnum' Tabular Numbers lookup 26 subtable" semicolon.tf
Substitution2: "'aalt' Access All Alternates lookup 0 subtable" semicolon.tf
EndChar

StartChar: less
Encoding: 60 60 31
Width: 604
GlyphClass: 2
Flags: W
LayerCount: 2
Fore
SplineSet
538 553 m 1,0,-1
 538 509 l 1,1,-1
 116 300 l 1,2,-1
 538 90 l 1,3,-1
 538 46 l 1,4,-1
 83 276 l 1,5,-1
 83 323 l 1,6,-1
 538 553 l 1,0,-1
EndSplineSet
EndChar

StartChar: equal
Encoding: 61 61 32
Width: 604
GlyphClass: 2
Flags: W
LayerCount: 2
Fore
SplineSet
526 429 m 1,0,-1
 526 392 l 1,1,-1
 78 392 l 1,2,-1
 78 429 l 1,3,-1
 526 429 l 1,0,-1
526 227 m 1,4,-1
 526 189 l 1,5,-1
 78 189 l 1,6,-1
 78 227 l 1,7,-1
 526 227 l 1,4,-1
EndSplineSet
Substitution2: "'sups' Superscript lookup 15 subtable" uni207C
Substitution2: "'subs' Subscript lookup 14 subtable" uni208C
Substitution2: "'sinf' Scientific Inferiors lookup 13 subtable" uni208C
AlternateSubs2: "'aalt' Access All Alternates lookup 1 subtable" uni208C uni207C
EndChar

StartChar: greater
Encoding: 62 62 33
Width: 604
GlyphClass: 2
Flags: W
LayerCount: 2
Fore
SplineSet
66 553 m 1,0,-1
 521 323 l 1,1,-1
 521 276 l 1,2,-1
 66 46 l 1,3,-1
 66 90 l 1,4,-1
 488 300 l 1,5,-1
 66 509 l 1,6,-1
 66 553 l 1,0,-1
EndSplineSet
EndChar

StartChar: question
Encoding: 63 63 34
Width: 500
GlyphClass: 2
Flags: W
LayerCount: 2
Fore
SplineSet
254 670 m 0,0,1
 344 670 344 670 399.5 624.5 c 128,-1,2
 455 579 455 579 455 501 c 0,3,4
 455 339 455 339 261 294 c 1,5,-1
 261 173 l 1,6,-1
 219 173 l 1,7,-1
 219 317 l 1,8,9
 326 343 326 343 369.5 383.5 c 128,-1,10
 413 424 413 424 413 497 c 0,11,12
 413 559 413 559 369.5 595.5 c 128,-1,13
 326 632 326 632 252 632 c 0,14,15
 89 632 89 632 70 481 c 1,16,-1
 34 501 l 1,17,18
 48 581 48 581 103.5 625.5 c 128,-1,19
 159 670 159 670 254 670 c 0,0,1
240 71 m 128,-1,21
 257 71 257 71 267.5 60 c 128,-1,22
 278 49 278 49 278 32 c 128,-1,23
 278 15 278 15 267.5 4 c 128,-1,24
 257 -7 257 -7 240 -7 c 128,-1,25
 223 -7 223 -7 212 4 c 128,-1,26
 201 15 201 15 201 32 c 128,-1,27
 201 49 201 49 212 60 c 128,-1,20
 223 71 223 71 240 71 c 128,-1,21
EndSplineSet
Substitution2: "'smcp' Lowercase to Small Capitals lookup 12 subtable" question.sc
Substitution2: "'c2sc' Capitals to Small Capitals lookup 11 subtable" question.sc
Substitution2: "'aalt' Access All Alternates lookup 0 subtable" question.sc
EndChar

StartChar: at
Encoding: 64 64 35
Width: 960
GlyphClass: 2
Flags: W
LayerCount: 2
Fore
SplineSet
488 666 m 0,0,1
 594 666 594 666 675 632 c 128,-1,2
 756 598 756 598 803.5 539 c 128,-1,3
 851 480 851 480 874 407.5 c 128,-1,4
 897 335 897 335 897 251 c 0,5,6
 897 130 897 130 857.5 61 c 128,-1,7
 818 -8 818 -8 749 -8 c 0,8,9
 650 -8 650 -8 644 119 c 1,10,11
 622 60 622 60 574 27 c 128,-1,12
 526 -6 526 -6 458 -6 c 0,13,14
 368 -6 368 -6 312 56 c 128,-1,15
 256 118 256 118 256 223 c 0,16,17
 256 336 256 336 320 403.5 c 128,-1,18
 384 471 384 471 482 471 c 0,19,20
 619 471 619 471 657 349 c 1,21,-1
 665 457 l 1,22,-1
 694 457 l 1,23,-1
 679 138 l 2,24,25
 674 22 674 22 756 22 c 0,26,27
 807 22 807 22 835 82 c 128,-1,28
 863 142 863 142 863 251 c 0,29,30
 863 330 863 330 841.5 397.5 c 128,-1,31
 820 465 820 465 776.5 519.5 c 128,-1,32
 733 574 733 574 659 604.5 c 128,-1,33
 585 635 585 635 488 635 c 0,34,35
 307 635 307 635 201 525 c 128,-1,36
 95 415 95 415 95 230 c 0,37,38
 95 49 95 49 203.5 -56 c 128,-1,39
 312 -161 312 -161 488 -161 c 0,40,41
 629 -161 629 -161 715 -87 c 1,42,-1
 735 -113 l 1,43,44
 634 -193 634 -193 488 -193 c 0,45,46
 293 -193 293 -193 176 -79 c 128,-1,47
 59 35 59 35 59 230 c 0,48,49
 59 427 59 427 176 546.5 c 128,-1,50
 293 666 293 666 488 666 c 0,0,1
485 440 m 0,51,52
 398 440 398 440 346 381.5 c 128,-1,53
 294 323 294 323 294 224 c 0,54,55
 294 133 294 133 340.5 79.5 c 128,-1,56
 387 26 387 26 467 26 c 0,57,58
 543 26 543 26 593 78.5 c 128,-1,59
 643 131 643 131 647 215 c 2,60,-1
 649 253 l 2,61,62
 652 334 652 334 609 387 c 128,-1,63
 566 440 566 440 485 440 c 0,51,52
EndSplineSet
Substitution2: "'case' Case-Sensitive Forms lookup 29 subtable" at.case
Substitution2: "'aalt' Access All Alternates lookup 0 subtable" at.case
EndChar

StartChar: A
Encoding: 65 65 36
Width: 615
GlyphClass: 2
Flags: W
LayerCount: 2
Fore
SplineSet
554 0 m 1,0,-1
 468 214 l 1,1,-1
 147 214 l 1,2,-1
 61 0 l 1,3,-1
 17 0 l 1,4,-1
 284 660 l 1,5,-1
 332 660 l 1,6,-1
 597 0 l 1,7,-1
 554 0 l 1,0,-1
162 252 m 1,8,-1
 452 252 l 1,9,-1
 330 555 l 1,10,-1
 307 619 l 1,11,-1
 285 557 l 1,12,-1
 162 252 l 1,8,-1
EndSplineSet
Substitution2: "Single Substitution lookup 56 subtable" A.swsh
Substitution2: "Single Substitution lookup 55 subtable" ordfeminine
Substitution2: "'swsh' Swash lookup 32 subtable" A.swsh
Substitution2: "'c2sc' Capitals to Small Capitals lookup 11 subtable" a.sc
AlternateSubs2: "'aalt' Access All Alternates lookup 1 subtable" a.sc ordfeminine A.swsh
EndChar

StartChar: B
Encoding: 66 66 37
Width: 626
GlyphClass: 2
Flags: W
LayerCount: 2
Fore
SplineSet
103 0 m 1,0,-1
 103 660 l 1,1,-1
 336 660 l 2,2,3
 547 660 547 660 547 487 c 0,4,5
 547 427 547 427 515.5 387.5 c 128,-1,6
 484 348 484 348 423 335 c 1,7,-1
 423 334 l 1,8,9
 489 323 489 323 527 281 c 128,-1,10
 565 239 565 239 565 175 c 0,11,12
 565 91 565 91 506 45.5 c 128,-1,13
 447 0 447 0 335 0 c 2,14,-1
 103 0 l 1,0,-1
144 352 m 1,15,-1
 336 352 l 2,16,17
 504 352 504 352 504 487 c 128,-1,18
 504 622 504 622 336 622 c 2,19,-1
 144 622 l 1,20,-1
 144 352 l 1,15,-1
144 38 m 1,21,-1
 343 38 l 2,22,23
 522 38 522 38 522 176 c 128,-1,24
 522 314 522 314 343 314 c 2,25,-1
 144 314 l 1,26,-1
 144 38 l 1,21,-1
EndSplineSet
Substitution2: "'c2sc' Capitals to Small Capitals lookup 11 subtable" b.sc
Substitution2: "'aalt' Access All Alternates lookup 0 subtable" b.sc
EndChar

StartChar: C
Encoding: 67 67 38
Width: 663
GlyphClass: 2
Flags: W
LayerCount: 2
Fore
SplineSet
622 167 m 1,0,1
 594 83 594 83 525 36.5 c 128,-1,2
 456 -10 456 -10 359 -10 c 0,3,4
 223 -10 223 -10 142 82 c 128,-1,5
 61 174 61 174 61 330 c 128,-1,6
 61 486 61 486 142 578 c 128,-1,7
 223 670 223 670 358 670 c 0,8,9
 558 670 558 670 614 504 c 1,10,-1
 574 485 l 1,11,12
 528 632 528 632 360 632 c 0,13,14
 244 632 244 632 173.5 550.5 c 128,-1,15
 103 469 103 469 103 330 c 128,-1,16
 103 191 103 191 173 109.5 c 128,-1,17
 243 28 243 28 359 28 c 0,18,19
 443 28 443 28 501 68 c 128,-1,20
 559 108 559 108 581 182 c 1,21,-1
 622 167 l 1,0,1
EndSplineSet
Substitution2: "'c2sc' Capitals to Small Capitals lookup 11 subtable" c.sc
Substitution2: "'aalt' Access All Alternates lookup 0 subtable" c.sc
EndChar

StartChar: D
Encoding: 68 68 39
Width: 698
GlyphClass: 2
Flags: W
LayerCount: 2
Fore
SplineSet
309 660 m 2,0,1
 468 660 468 660 552.5 577 c 128,-1,2
 637 494 637 494 637 336 c 0,3,4
 637 172 637 172 552.5 86 c 128,-1,5
 468 0 468 0 309 0 c 2,6,-1
 103 0 l 1,7,-1
 103 660 l 1,8,-1
 309 660 l 2,0,1
313 38 m 2,9,10
 450 38 450 38 522.5 114.5 c 128,-1,11
 595 191 595 191 595 336 c 0,12,13
 595 475 595 475 522.5 548.5 c 128,-1,14
 450 622 450 622 313 622 c 2,15,-1
 144 622 l 1,16,-1
 144 38 l 1,17,-1
 313 38 l 2,9,10
EndSplineSet
Substitution2: "'c2sc' Capitals to Small Capitals lookup 11 subtable" d.sc
Substitution2: "'aalt' Access All Alternates lookup 0 subtable" d.sc
EndChar

StartChar: E
Encoding: 69 69 40
Width: 604
GlyphClass: 2
Flags: W
AnchorPoint: "Anchor-0" 326 0 basechar 0
LayerCount: 2
Fore
SplineSet
144 38 m 1,0,-1
 566 38 l 1,1,-1
 566 0 l 1,2,-1
 103 0 l 1,3,-1
 103 660 l 1,4,-1
 550 660 l 1,5,-1
 550 622 l 1,6,-1
 144 622 l 1,7,-1
 144 355 l 1,8,-1
 466 355 l 1,9,-1
 466 317 l 1,10,-1
 144 317 l 1,11,-1
 144 38 l 1,0,-1
EndSplineSet
Substitution2: "Single Substitution lookup 57 subtable" E.swsh.001
Substitution2: "Single Substitution lookup 56 subtable" E.swsh
AlternateSubs2: "'swsh' Swash lookup 33 subtable" E.swsh E.swsh.001
Substitution2: "'c2sc' Capitals to Small Capitals lookup 11 subtable" e.sc
AlternateSubs2: "'aalt' Access All Alternates lookup 1 subtable" e.sc E.swsh E.swsh.001
EndChar

StartChar: F
Encoding: 70 70 41
Width: 576
GlyphClass: 2
Flags: W
LayerCount: 2
Fore
SplineSet
549 622 m 1,0,-1
 144 622 l 1,1,-1
 144 355 l 1,2,-1
 466 355 l 1,3,-1
 466 317 l 1,4,-1
 144 317 l 1,5,-1
 144 0 l 1,6,-1
 103 0 l 1,7,-1
 103 660 l 1,8,-1
 549 660 l 1,9,-1
 549 622 l 1,0,-1
EndSplineSet
Substitution2: "Single Substitution lookup 56 subtable" F.swsh
Substitution2: "'swsh' Swash lookup 34 subtable" F.swsh
Substitution2: "'c2sc' Capitals to Small Capitals lookup 11 subtable" f.sc
AlternateSubs2: "'aalt' Access All Alternates lookup 1 subtable" f.sc F.swsh
EndChar

StartChar: G
Encoding: 71 71 42
Width: 695
GlyphClass: 2
Flags: W
AnchorPoint: "Anchor-0" 372 0 basechar 0
LayerCount: 2
Fore
SplineSet
357 320 m 1,0,-1
 624 320 l 1,1,-1
 624 0 l 1,2,-1
 590 0 l 1,3,-1
 589 124 l 1,4,5
 564 60 564 60 504.5 25 c 128,-1,6
 445 -10 445 -10 356 -10 c 0,7,8
 221 -10 221 -10 141 82 c 128,-1,9
 61 174 61 174 61 330 c 128,-1,10
 61 486 61 486 142.5 578 c 128,-1,11
 224 670 224 670 360 670 c 0,12,13
 560 670 560 670 619 505 c 1,14,-1
 582 485 l 1,15,16
 534 632 534 632 360 632 c 0,17,18
 244 632 244 632 173.5 550.5 c 128,-1,19
 103 469 103 469 103 330 c 0,20,21
 103 190 103 190 171.5 109 c 128,-1,22
 240 28 240 28 358 28 c 0,23,24
 471 28 471 28 528 92 c 128,-1,25
 585 156 585 156 585 240 c 2,26,-1
 585 282 l 1,27,-1
 357 282 l 1,28,-1
 357 320 l 1,0,-1
EndSplineSet
Substitution2: "'ss04' Style Set 4 lookup 50 subtable" G.ss04
Substitution2: "'salt' Stylistic Alternatives lookup 42 subtable" G.ss04
Substitution2: "'c2sc' Capitals to Small Capitals lookup 11 subtable" g.sc
AlternateSubs2: "'aalt' Access All Alternates lookup 1 subtable" g.sc G.ss04
EndChar

StartChar: H
Encoding: 72 72 43
Width: 711
GlyphClass: 2
Flags: W
LayerCount: 2
Fore
SplineSet
567 660 m 1,0,-1
 608 660 l 1,1,-1
 608 0 l 1,2,-1
 567 0 l 1,3,-1
 567 317 l 1,4,-1
 144 317 l 1,5,-1
 144 0 l 1,6,-1
 103 0 l 1,7,-1
 103 660 l 1,8,-1
 144 660 l 1,9,-1
 144 355 l 1,10,-1
 567 355 l 1,11,-1
 567 660 l 1,0,-1
EndSplineSet
Substitution2: "'sups' Superscript lookup 15 subtable" Hsuperior
Substitution2: "'subs' Subscript lookup 14 subtable" Hinferior
Substitution2: "'sinf' Scientific Inferiors lookup 13 subtable" Hinferior
Substitution2: "'c2sc' Capitals to Small Capitals lookup 11 subtable" h.sc
AlternateSubs2: "'aalt' Access All Alternates lookup 1 subtable" h.sc Hinferior Hsuperior
EndChar

StartChar: I
Encoding: 73 73 44
Width: 246
GlyphClass: 2
Flags: W
LayerCount: 2
Fore
SplineSet
144 660 m 1,0,-1
 144 0 l 1,1,-1
 103 0 l 1,2,-1
 103 660 l 1,3,-1
 144 660 l 1,0,-1
EndSplineSet
Substitution2: "'c2sc' Capitals to Small Capitals lookup 11 subtable" i.sc
Substitution2: "'aalt' Access All Alternates lookup 0 subtable" i.sc
EndChar

StartChar: J
Encoding: 74 74 45
Width: 525
GlyphClass: 2
Flags: W
LayerCount: 2
Fore
SplineSet
429 660 m 1,0,-1
 429 216 l 2,1,2
 429 110 429 110 375.5 50 c 128,-1,3
 322 -10 322 -10 223 -10 c 0,4,5
 120 -10 120 -10 71 49 c 128,-1,6
 22 108 22 108 38 207 c 1,7,-1
 77 218 l 1,8,9
 64 124 64 124 101 76 c 128,-1,10
 138 28 138 28 222 28 c 0,11,12
 388 28 388 28 388 223 c 2,13,-1
 388 660 l 1,14,-1
 429 660 l 1,0,-1
EndSplineSet
Substitution2: "'c2sc' Capitals to Small Capitals lookup 11 subtable" j.sc
Substitution2: "'aalt' Access All Alternates lookup 0 subtable" j.sc
EndChar

StartChar: K
Encoding: 75 75 46
Width: 596
GlyphClass: 2
Flags: W
AnchorPoint: "Anchor-0" 340 0 basechar 0
LayerCount: 2
Fore
SplineSet
527 0 m 1,0,-1
 280 364 l 1,1,-1
 144 225 l 1,2,-1
 144 0 l 1,3,-1
 103 0 l 1,4,-1
 103 660 l 1,5,-1
 144 660 l 1,6,-1
 144 282 l 1,7,-1
 515 660 l 1,8,-1
 570 660 l 1,9,-1
 309 394 l 1,10,-1
 577 0 l 1,11,-1
 527 0 l 1,0,-1
EndSplineSet
Substitution2: "'c2sc' Capitals to Small Capitals lookup 11 subtable" k.sc
Substitution2: "'aalt' Access All Alternates lookup 0 subtable" k.sc
EndChar

StartChar: L
Encoding: 76 76 47
Width: 564
GlyphClass: 2
Flags: W
AnchorPoint: "Anchor-0" 343 0 basechar 0
LayerCount: 2
Fore
SplineSet
144 38 m 1,0,-1
 545 38 l 1,1,-1
 545 0 l 1,2,-1
 103 0 l 1,3,-1
 103 660 l 1,4,-1
 144 660 l 1,5,-1
 144 38 l 1,0,-1
EndSplineSet
Substitution2: "Single Substitution lookup 57 subtable" L.swsh
Substitution2: "'swsh' Swash lookup 34 subtable" L.swsh
Substitution2: "'c2sc' Capitals to Small Capitals lookup 11 subtable" l.sc
AlternateSubs2: "'aalt' Access All Alternates lookup 1 subtable" l.sc L.swsh
Position2: "Single Positioning lookup 6 subtable" dx=0 dy=0 dh=-152 dv=0
EndChar

StartChar: M
Encoding: 77 77 48
Width: 813
GlyphClass: 2
Flags: W
LayerCount: 2
Fore
SplineSet
710 660 m 1,0,-1
 710 0 l 1,1,-1
 671 0 l 1,2,-1
 671 516 l 1,3,-1
 675 618 l 1,4,-1
 674 618 l 1,5,-1
 426 0 l 1,6,-1
 387 0 l 1,7,-1
 138 618 l 1,8,-1
 142 516 l 1,9,-1
 142 0 l 1,10,-1
 103 0 l 1,11,-1
 103 660 l 1,12,-1
 163 660 l 1,13,-1
 379 130 l 1,14,-1
 406 48 l 1,15,-1
 407 48 l 1,16,-1
 434 129 l 1,17,-1
 649 660 l 1,18,-1
 710 660 l 1,0,-1
EndSplineSet
Substitution2: "Single Substitution lookup 56 subtable" M.swsh
AlternateSubs2: "'swsh' Swash lookup 35 subtable" M.swsh M.swsh.001
Substitution2: "'c2sc' Capitals to Small Capitals lookup 11 subtable" m.sc
AlternateSubs2: "'aalt' Access All Alternates lookup 1 subtable" m.sc M.swsh M.swsh.001
EndChar

StartChar: N
Encoding: 78 78 49
Width: 710
GlyphClass: 2
Flags: W
AnchorPoint: "Anchor-0" 367 0 basechar 0
LayerCount: 2
Fore
SplineSet
607 660 m 1,0,-1
 607 0 l 1,1,-1
 555 0 l 1,2,-1
 183 541 l 1,3,-1
 140 616 l 1,4,-1
 142 540 l 1,5,-1
 142 0 l 1,6,-1
 103 0 l 1,7,-1
 103 660 l 1,8,-1
 155 660 l 1,9,-1
 526 119 l 1,10,-1
 569 44 l 1,11,-1
 570 44 l 1,12,-1
 568 120 l 1,13,-1
 568 660 l 1,14,-1
 607 660 l 1,0,-1
EndSplineSet
Substitution2: "Single Substitution lookup 57 subtable" N.swsh
Substitution2: "'swsh' Swash lookup 36 subtable" N.swsh
Substitution2: "'c2sc' Capitals to Small Capitals lookup 11 subtable" n.sc
AlternateSubs2: "'aalt' Access All Alternates lookup 1 subtable" n.sc N.swsh
EndChar

StartChar: O
Encoding: 79 79 50
Width: 727
GlyphClass: 2
Flags: W
LayerCount: 2
Fore
SplineSet
364 670 m 128,-1,1
 504 670 504 670 585.5 578.5 c 128,-1,2
 667 487 667 487 667 330 c 128,-1,3
 667 173 667 173 585.5 81.5 c 128,-1,4
 504 -10 504 -10 364 -10 c 128,-1,5
 224 -10 224 -10 142.5 81.5 c 128,-1,6
 61 173 61 173 61 330 c 128,-1,7
 61 487 61 487 142.5 578.5 c 128,-1,0
 224 670 224 670 364 670 c 128,-1,1
364 632 m 0,8,9
 243 632 243 632 173 551 c 128,-1,10
 103 470 103 470 103 330 c 128,-1,11
 103 190 103 190 173 109 c 128,-1,12
 243 28 243 28 364 28 c 0,13,14
 484 28 484 28 554 109 c 128,-1,15
 624 190 624 190 624 330 c 128,-1,16
 624 470 624 470 554 551 c 128,-1,17
 484 632 484 632 364 632 c 0,8,9
EndSplineSet
Substitution2: "Single Substitution lookup 55 subtable" ordmasculine
Substitution2: "'nalt' Alternate Annotation Forms lookup 23 subtable" indexring
Substitution2: "'sups' Superscript lookup 15 subtable" Osuperior
Substitution2: "'subs' Subscript lookup 14 subtable" Oinferior
Substitution2: "'sinf' Scientific Inferiors lookup 13 subtable" Oinferior
Substitution2: "'c2sc' Capitals to Small Capitals lookup 11 subtable" o.sc
AlternateSubs2: "'aalt' Access All Alternates lookup 1 subtable" o.sc Oinferior Osuperior ordmasculine indexring
EndChar

StartChar: P
Encoding: 80 80 51
Width: 580
GlyphClass: 2
Flags: W
LayerCount: 2
Fore
SplineSet
318 660 m 2,0,1
 422 660 422 660 482 609 c 128,-1,2
 542 558 542 558 542 469 c 128,-1,3
 542 380 542 380 482 329 c 128,-1,4
 422 278 422 278 318 278 c 2,5,-1
 144 278 l 1,6,-1
 144 0 l 1,7,-1
 103 0 l 1,8,-1
 103 660 l 1,9,-1
 318 660 l 2,0,1
313 316 m 2,10,11
 403 316 403 316 451 356 c 128,-1,12
 499 396 499 396 499 469 c 128,-1,13
 499 542 499 542 451 582 c 128,-1,14
 403 622 403 622 313 622 c 2,15,-1
 144 622 l 1,16,-1
 144 316 l 1,17,-1
 313 316 l 2,10,11
EndSplineSet
Substitution2: "'c2sc' Capitals to Small Capitals lookup 11 subtable" p.sc
Substitution2: "'aalt' Access All Alternates lookup 0 subtable" p.sc
EndChar

StartChar: Q
Encoding: 81 81 52
Width: 727
GlyphClass: 2
Flags: W
LayerCount: 2
Fore
SplineSet
536 -155 m 0,0,1
 608 -155 608 -155 645 -118 c 1,2,-1
 661 -155 l 1,3,4
 616 -195 616 -195 535 -195 c 0,5,6
 457 -195 457 -195 406 -148.5 c 128,-1,7
 355 -102 355 -102 349 -10 c 1,8,9
 216 -5 216 -5 138.5 86.5 c 128,-1,10
 61 178 61 178 61 330 c 0,11,12
 61 487 61 487 142.5 578.5 c 128,-1,13
 224 670 224 670 364 670 c 128,-1,14
 504 670 504 670 585.5 578.5 c 128,-1,15
 667 487 667 487 667 330 c 0,16,17
 667 180 667 180 591.5 89.5 c 128,-1,18
 516 -1 516 -1 386 -9 c 1,19,20
 396 -155 396 -155 536 -155 c 0,0,1
103 330 m 128,-1,22
 103 190 103 190 173 109 c 128,-1,23
 243 28 243 28 364 28 c 0,24,25
 484 28 484 28 554 109 c 128,-1,26
 624 190 624 190 624 330 c 128,-1,27
 624 470 624 470 554 551 c 128,-1,28
 484 632 484 632 364 632 c 0,29,30
 243 632 243 632 173 551 c 128,-1,21
 103 470 103 470 103 330 c 128,-1,22
EndSplineSet
Substitution2: "'c2sc' Capitals to Small Capitals lookup 11 subtable" q.sc
Substitution2: "'aalt' Access All Alternates lookup 0 subtable" q.sc
EndChar

StartChar: R
Encoding: 82 82 53
Width: 629
GlyphClass: 2
Flags: W
AnchorPoint: "Anchor-0" 353 0 basechar 0
LayerCount: 2
Fore
SplineSet
103 0 m 1,0,-1
 103 660 l 1,1,-1
 346 660 l 2,2,3
 445 660 445 660 502.5 610.5 c 128,-1,4
 560 561 560 561 560 475 c 0,5,6
 560 407 560 407 521.5 362.5 c 128,-1,7
 483 318 483 318 416 305 c 1,8,-1
 416 304 l 1,9,10
 539 285 539 285 542 162 c 0,11,12
 545 101 545 101 550.5 65.5 c 128,-1,13
 556 30 556 30 559 22 c 128,-1,14
 562 14 562 14 570 2 c 1,15,-1
 570 0 l 1,16,-1
 526 0 l 1,17,18
 506 39 506 39 502 157 c 0,19,20
 497 290 497 290 342 290 c 2,21,-1
 144 290 l 1,22,-1
 144 0 l 1,23,-1
 103 0 l 1,0,-1
144 328 m 1,24,-1
 345 328 l 2,25,26
 428 328 428 328 473 366 c 128,-1,27
 518 404 518 404 518 475 c 128,-1,28
 518 546 518 546 473 584 c 128,-1,29
 428 622 428 622 345 622 c 2,30,-1
 144 622 l 1,31,-1
 144 328 l 1,24,-1
EndSplineSet
Substitution2: "Single Substitution lookup 57 subtable" R.swsh.001
Substitution2: "Single Substitution lookup 56 subtable" R.swsh
Substitution2: "'ss03' Style Set 3 lookup 49 subtable" R.ss03
Substitution2: "'salt' Stylistic Alternatives lookup 42 subtable" R.ss03
AlternateSubs2: "'swsh' Swash lookup 37 subtable" R.swsh R.swsh.001
Substitution2: "'c2sc' Capitals to Small Capitals lookup 11 subtable" r.sc
AlternateSubs2: "'aalt' Access All Alternates lookup 1 subtable" r.sc R.swsh R.swsh.001 R.ss03
EndChar

StartChar: S
Encoding: 83 83 54
Width: 612
GlyphClass: 2
Flags: W
AnchorPoint: "Anchor-0" 330 0 basechar 0
LayerCount: 2
Fore
SplineSet
305 670 m 0,0,1
 494 670 494 670 551 522 c 1,2,-1
 516 494 l 1,3,4
 492 566 492 566 440.5 599 c 128,-1,5
 389 632 389 632 305 632 c 0,6,7
 215 632 215 632 161.5 591 c 128,-1,8
 108 550 108 550 108 488 c 0,9,10
 108 430 108 430 155.5 398 c 128,-1,11
 203 366 203 366 326 345 c 0,12,13
 454 323 454 323 507.5 282 c 128,-1,14
 561 241 561 241 561 167 c 0,15,16
 561 88 561 88 493 39 c 128,-1,17
 425 -10 425 -10 316 -10 c 0,18,19
 211 -10 211 -10 139.5 32 c 128,-1,20
 68 74 68 74 44 153 c 1,21,-1
 80 180 l 1,22,23
 98 106 98 106 160.5 67 c 128,-1,24
 223 28 223 28 316 28 c 0,25,26
 406 28 406 28 462.5 64.5 c 128,-1,27
 519 101 519 101 519 165 c 0,28,29
 519 221 519 221 473 253.5 c 128,-1,30
 427 286 427 286 314 304 c 0,31,32
 176 328 176 328 120.5 369 c 128,-1,33
 65 410 65 410 65 485 c 0,34,35
 65 562 65 562 130.5 616 c 128,-1,36
 196 670 196 670 305 670 c 0,0,1
EndSplineSet
Substitution2: "Single Substitution lookup 57 subtable" S.swsh
Substitution2: "Single Substitution lookup 56 subtable" S.swsh
Substitution2: "'swsh' Swash lookup 38 subtable" S.swsh
Substitution2: "'c2sc' Capitals to Small Capitals lookup 11 subtable" s.sc
AlternateSubs2: "'aalt' Access All Alternates lookup 1 subtable" s.sc S.swsh
EndChar

StartChar: T
Encoding: 84 84 55
Width: 567
GlyphClass: 2
Flags: W
AnchorPoint: "Anchor-0" 292 0 basechar 0
LayerCount: 2
Fore
SplineSet
548 660 m 1,0,-1
 548 622 l 1,1,-1
 304 622 l 1,2,-1
 304 0 l 1,3,-1
 263 0 l 1,4,-1
 263 622 l 1,5,-1
 19 622 l 1,6,-1
 19 660 l 1,7,-1
 548 660 l 1,0,-1
EndSplineSet
Substitution2: "Single Substitution lookup 56 subtable" T.swsh
Substitution2: "'swsh' Swash lookup 38 subtable" T.swsh
Substitution2: "'c2sc' Capitals to Small Capitals lookup 11 subtable" t.sc
AlternateSubs2: "'aalt' Access All Alternates lookup 1 subtable" t.sc T.swsh
EndChar

StartChar: U
Encoding: 85 85 56
Width: 696
GlyphClass: 2
Flags: W
LayerCount: 2
Fore
SplineSet
601 660 m 1,0,-1
 601 239 l 2,1,2
 601 118 601 118 535 54 c 128,-1,3
 469 -10 469 -10 348 -10 c 128,-1,4
 227 -10 227 -10 161 54 c 128,-1,5
 95 118 95 118 95 239 c 2,6,-1
 95 660 l 1,7,-1
 136 660 l 1,8,-1
 136 247 l 2,9,10
 136 140 136 140 190.5 84 c 128,-1,11
 245 28 245 28 348 28 c 128,-1,12
 451 28 451 28 505.5 84 c 128,-1,13
 560 140 560 140 560 247 c 2,14,-1
 560 660 l 1,15,-1
 601 660 l 1,0,-1
EndSplineSet
Substitution2: "'c2sc' Capitals to Small Capitals lookup 11 subtable" u.sc
Substitution2: "'aalt' Access All Alternates lookup 0 subtable" u.sc
EndChar

StartChar: V
Encoding: 86 86 57
Width: 604
GlyphClass: 2
Flags: W
LayerCount: 2
Fore
SplineSet
583 660 m 1,0,-1
 327 0 l 1,1,-1
 278 0 l 1,2,-1
 21 660 l 1,3,-1
 65 660 l 1,4,-1
 269 133 l 1,5,-1
 302 39 l 1,6,-1
 335 132 l 1,7,-1
 539 660 l 1,8,-1
 583 660 l 1,0,-1
EndSplineSet
Substitution2: "'c2sc' Capitals to Small Capitals lookup 11 subtable" v.sc
Substitution2: "'aalt' Access All Alternates lookup 0 subtable" v.sc
EndChar

StartChar: W
Encoding: 87 87 58
Width: 929
GlyphClass: 2
Flags: W
LayerCount: 2
Fore
SplineSet
427 473 m 1,0,-1
 289 0 l 1,1,-1
 237 0 l 1,2,-1
 28 660 l 1,3,-1
 72 660 l 1,4,-1
 263 34 l 1,5,-1
 441 660 l 1,6,-1
 490 660 l 1,7,-1
 668 34 l 1,8,-1
 859 660 l 1,9,-1
 901 660 l 1,10,-1
 693 0 l 1,11,-1
 641 0 l 1,12,-1
 503 473 l 1,13,-1
 465 614 l 1,14,-1
 464 614 l 1,15,-1
 427 473 l 1,0,-1
EndSplineSet
Substitution2: "Single Substitution lookup 56 subtable" W.swsh
Substitution2: "'swsh' Swash lookup 38 subtable" W.swsh
Substitution2: "'c2sc' Capitals to Small Capitals lookup 11 subtable" w.sc
AlternateSubs2: "'aalt' Access All Alternates lookup 1 subtable" w.sc W.swsh
EndChar

StartChar: X
Encoding: 88 88 59
Width: 555
GlyphClass: 2
Flags: W
LayerCount: 2
Fore
SplineSet
532 0 m 1,0,-1
 484 0 l 1,1,-1
 277 306 l 1,2,-1
 66 0 l 1,3,-1
 17 0 l 1,4,-1
 254 339 l 1,5,-1
 38 660 l 1,6,-1
 87 660 l 1,7,-1
 281 374 l 1,8,-1
 478 660 l 1,9,-1
 524 660 l 1,10,-1
 303 340 l 1,11,-1
 532 0 l 1,0,-1
EndSplineSet
Substitution2: "'c2sc' Capitals to Small Capitals lookup 11 subtable" x.sc
Substitution2: "'aalt' Access All Alternates lookup 0 subtable" x.sc
EndChar

StartChar: Y
Encoding: 89 89 60
Width: 535
GlyphClass: 2
Flags: W
LayerCount: 2
Fore
SplineSet
522 660 m 1,0,-1
 288 257 l 1,1,-1
 288 0 l 1,2,-1
 247 0 l 1,3,-1
 247 257 l 1,4,-1
 14 660 l 1,5,-1
 62 660 l 1,6,-1
 268 299 l 1,7,-1
 344 434 l 1,8,-1
 473 660 l 1,9,-1
 522 660 l 1,0,-1
EndSplineSet
Substitution2: "'c2sc' Capitals to Small Capitals lookup 11 subtable" y.sc
Substitution2: "'aalt' Access All Alternates lookup 0 subtable" y.sc
EndChar

StartChar: Z
Encoding: 90 90 61
Width: 582
GlyphClass: 2
Flags: W
LayerCount: 2
Fore
SplineSet
87 38 m 1,0,-1
 546 38 l 1,1,-1
 546 0 l 1,2,-1
 40 0 l 1,3,-1
 40 36 l 1,4,-1
 481 622 l 1,5,-1
 48 622 l 1,6,-1
 48 660 l 1,7,-1
 529 660 l 1,8,-1
 529 624 l 1,9,-1
 87 38 l 1,0,-1
EndSplineSet
Substitution2: "'c2sc' Capitals to Small Capitals lookup 11 subtable" z.sc
Substitution2: "'aalt' Access All Alternates lookup 0 subtable" z.sc
EndChar

StartChar: bracketleft
Encoding: 91 91 62
Width: 299
GlyphClass: 2
Flags: W
LayerCount: 2
Fore
SplineSet
280 694 m 1,0,-1
 119 694 l 1,1,-1
 119 -132 l 1,2,-1
 280 -132 l 1,3,-1
 280 -168 l 1,4,-1
 80 -168 l 1,5,-1
 80 730 l 1,6,-1
 280 730 l 1,7,-1
 280 694 l 1,0,-1
EndSplineSet
Substitution2: "'case' Case-Sensitive Forms lookup 29 subtable" bracketleft.case
Substitution2: "'sups' Superscript lookup 15 subtable" bracketleftsuperior
Substitution2: "'subs' Subscript lookup 14 subtable" bracketleftinferior
Substitution2: "'sinf' Scientific Inferiors lookup 13 subtable" bracketleftinferior
AlternateSubs2: "'aalt' Access All Alternates lookup 1 subtable" bracketleftinferior bracketleftsuperior bracketleft.case
EndChar

StartChar: backslash
Encoding: 92 92 63
Width: 384
GlyphClass: 2
Flags: W
LayerCount: 2
Fore
SplineSet
33 730 m 1,0,-1
 73 730 l 1,1,-1
 352 -70 l 1,2,-1
 312 -70 l 1,3,-1
 33 730 l 1,0,-1
EndSplineSet
EndChar

StartChar: bracketright
Encoding: 93 93 64
Width: 299
GlyphClass: 2
Flags: W
LayerCount: 2
Fore
SplineSet
219 730 m 1,0,-1
 219 -168 l 1,1,-1
 20 -168 l 1,2,-1
 20 -132 l 1,3,-1
 181 -132 l 1,4,-1
 181 694 l 1,5,-1
 20 694 l 1,6,-1
 20 730 l 1,7,-1
 219 730 l 1,0,-1
EndSplineSet
Substitution2: "'case' Case-Sensitive Forms lookup 29 subtable" bracketright.case
Substitution2: "'sups' Superscript lookup 15 subtable" bracketrightsuperior
Substitution2: "'subs' Subscript lookup 14 subtable" bracketrightinferior
Substitution2: "'sinf' Scientific Inferiors lookup 13 subtable" bracketrightinferior
AlternateSubs2: "'aalt' Access All Alternates lookup 1 subtable" bracketrightinferior bracketrightsuperior bracketright.case
EndChar

StartChar: asciicircum
Encoding: 94 94 65
Width: 544
GlyphClass: 2
Flags: W
LayerCount: 2
Fore
SplineSet
510 355 m 1,0,-1
 467 355 l 1,1,-1
 272 694 l 1,2,-1
 76 355 l 1,3,-1
 33 355 l 1,4,-1
 251 730 l 1,5,-1
 292 730 l 1,6,-1
 510 355 l 1,0,-1
EndSplineSet
EndChar

StartChar: underscore
Encoding: 95 95 66
Width: 515
GlyphClass: 2
Flags: W
LayerCount: 2
Fore
SplineSet
515 -97 m 1,0,-1
 515 -135 l 1,1,-1
 0 -135 l 1,2,-1
 0 -97 l 1,3,-1
 515 -97 l 1,0,-1
EndSplineSet
EndChar

StartChar: grave
Encoding: 96 96 67
Width: 530
GlyphClass: 2
Flags: W
LayerCount: 2
Fore
SplineSet
188 738 m 1,0,-1
 269 583 l 1,1,-1
 235 583 l 1,2,-1
 143 738 l 1,3,-1
 188 738 l 1,0,-1
EndSplineSet
EndChar

StartChar: a
Encoding: 97 97 68
Width: 536
GlyphClass: 2
Flags: W
LayerCount: 2
Fore
SplineSet
488 25 m 0,0,1
 512 25 512 25 527 33 c 1,2,-1
 524 -1 l 1,3,4
 504 -10 504 -10 479 -10 c 0,5,6
 403 -10 403 -10 399 80 c 1,7,8
 376 37 376 37 323.5 13.5 c 128,-1,9
 271 -10 271 -10 212 -10 c 0,10,11
 138 -10 138 -10 94 22.5 c 128,-1,12
 50 55 50 55 50 114 c 128,-1,13
 50 173 50 173 96 209.5 c 128,-1,14
 142 246 142 246 239 264 c 2,15,-1
 398 292 l 1,16,-1
 398 341 l 2,17,18
 398 403 398 403 361 438.5 c 128,-1,19
 324 474 324 474 256 474 c 0,20,21
 133 474 133 474 91 365 c 1,22,-1
 60 388 l 1,23,24
 105 510 105 510 256 510 c 0,25,26
 342 510 342 510 390.5 467.5 c 128,-1,27
 439 425 439 425 439 345 c 2,28,-1
 439 83 l 2,29,30
 439 25 439 25 488 25 c 0,0,1
216 26 m 0,31,32
 284 26 284 26 341 61 c 128,-1,33
 398 96 398 96 398 158 c 2,34,-1
 398 258 l 1,35,-1
 254 231 l 2,36,37
 169 215 169 215 130.5 187 c 128,-1,38
 92 159 92 159 92 114 c 0,39,40
 92 72 92 72 125 49 c 128,-1,41
 158 26 158 26 216 26 c 0,31,32
EndSplineSet
Substitution2: "Single Substitution lookup 55 subtable" ordfeminine
Substitution2: "'smcp' Lowercase to Small Capitals lookup 12 subtable" a.sc
AlternateSubs2: "'aalt' Access All Alternates lookup 1 subtable" a.sc ordfeminine
EndChar

StartChar: b
Encoding: 98 98 69
Width: 603
GlyphClass: 2
Flags: W
LayerCount: 2
Fore
SplineSet
318 510 m 0,0,1
 425 510 425 510 486 441 c 128,-1,2
 547 372 547 372 547 250 c 128,-1,3
 547 128 547 128 486 59 c 128,-1,4
 425 -10 425 -10 318 -10 c 0,5,6
 248 -10 248 -10 198 25 c 128,-1,7
 148 60 148 60 127 122 c 1,8,-1
 125 0 l 1,9,-1
 88 0 l 1,10,-1
 88 730 l 1,11,-1
 129 730 l 1,12,-1
 129 384 l 1,13,14
 151 443 151 443 200.5 476.5 c 128,-1,15
 250 510 250 510 318 510 c 0,0,1
313 26 m 0,16,17
 404 26 404 26 455 85.5 c 128,-1,18
 506 145 506 145 506 250 c 128,-1,19
 506 355 506 355 455 414.5 c 128,-1,20
 404 474 404 474 313 474 c 0,21,22
 231 474 231 474 181 417.5 c 128,-1,23
 131 361 131 361 129 264 c 2,24,-1
 129 235 l 2,25,26
 132 138 132 138 182 82 c 128,-1,27
 232 26 232 26 313 26 c 0,16,17
EndSplineSet
Substitution2: "'smcp' Lowercase to Small Capitals lookup 12 subtable" b.sc
Substitution2: "'aalt' Access All Alternates lookup 0 subtable" b.sc
EndChar

StartChar: c
Encoding: 99 99 70
Width: 540
GlyphClass: 2
Flags: W
LayerCount: 2
Fore
SplineSet
290 510 m 0,0,1
 365 510 365 510 417 474.5 c 128,-1,2
 469 439 469 439 491 375 c 1,3,-1
 453 356 l 1,4,5
 436 413 436 413 394 443.5 c 128,-1,6
 352 474 352 474 289 474 c 0,7,8
 198 474 198 474 147 414.5 c 128,-1,9
 96 355 96 355 96 250 c 128,-1,10
 96 145 96 145 146.5 85.5 c 128,-1,11
 197 26 197 26 287 26 c 0,12,13
 354 26 354 26 400.5 59.5 c 128,-1,14
 447 93 447 93 458 150 c 1,15,-1
 495 137 l 1,16,17
 478 69 478 69 422 29.5 c 128,-1,18
 366 -10 366 -10 288 -10 c 0,19,20
 178 -10 178 -10 116.5 59 c 128,-1,21
 55 128 55 128 55 250 c 128,-1,22
 55 372 55 372 117.5 441 c 128,-1,23
 180 510 180 510 290 510 c 0,0,1
EndSplineSet
Substitution2: "'smcp' Lowercase to Small Capitals lookup 12 subtable" c.sc
Substitution2: "'aalt' Access All Alternates lookup 0 subtable" c.sc
EndChar

StartChar: d
Encoding: 100 100 71
Width: 603
GlyphClass: 2
Flags: W
LayerCount: 2
Fore
SplineSet
473 730 m 1,0,-1
 514 730 l 1,1,-1
 514 0 l 1,2,-1
 477 0 l 1,3,-1
 475 121 l 1,4,5
 455 60 455 60 404.5 25 c 128,-1,6
 354 -10 354 -10 284 -10 c 0,7,8
 177 -10 177 -10 116.5 59 c 128,-1,9
 56 128 56 128 56 250 c 128,-1,10
 56 372 56 372 116.5 441 c 128,-1,11
 177 510 177 510 284 510 c 0,12,13
 352 510 352 510 401.5 477 c 128,-1,14
 451 444 451 444 473 385 c 1,15,-1
 473 730 l 1,0,-1
290 26 m 0,16,17
 373 26 373 26 423 85 c 128,-1,18
 473 144 473 144 473 245 c 2,19,-1
 473 254 l 2,20,21
 473 356 473 356 423.5 415 c 128,-1,22
 374 474 374 474 290 474 c 0,23,24
 199 474 199 474 148 414.5 c 128,-1,25
 97 355 97 355 97 250 c 128,-1,26
 97 145 97 145 148 85.5 c 128,-1,27
 199 26 199 26 290 26 c 0,16,17
EndSplineSet
Substitution2: "'smcp' Lowercase to Small Capitals lookup 12 subtable" d.sc
Substitution2: "'aalt' Access All Alternates lookup 0 subtable" d.sc
EndChar

StartChar: e
Encoding: 101 101 72
Width: 552
GlyphClass: 2
Flags: W
AnchorPoint: "Anchor-0" 292 0 basechar 0
LayerCount: 2
Fore
SplineSet
500 258 m 0,0,1
 500 252 500 252 499.5 243 c 128,-1,2
 499 234 499 234 499 232 c 2,3,-1
 96 232 l 1,4,5
 101 134 101 134 151.5 80 c 128,-1,6
 202 26 202 26 289 26 c 0,7,8
 349 26 349 26 394 51.5 c 128,-1,9
 439 77 439 77 460 123 c 1,10,-1
 494 105 l 1,11,12
 436 -10 436 -10 289 -10 c 0,13,14
 179 -10 179 -10 117 59 c 128,-1,15
 55 128 55 128 55 250 c 128,-1,16
 55 372 55 372 115.5 441 c 128,-1,17
 176 510 176 510 284 510 c 0,18,19
 385 510 385 510 442.5 441.5 c 128,-1,20
 500 373 500 373 500 258 c 0,0,1
284 474 m 0,21,22
 199 474 199 474 150 420 c 128,-1,23
 101 366 101 366 96 268 c 1,24,-1
 462 268 l 1,25,26
 457 366 457 366 411.5 420 c 128,-1,27
 366 474 366 474 284 474 c 0,21,22
EndSplineSet
Substitution2: "'smcp' Lowercase to Small Capitals lookup 12 subtable" e.sc
Substitution2: "'aalt' Access All Alternates lookup 0 subtable" e.sc
EndChar

StartChar: f
Encoding: 102 102 73
Width: 349
GlyphClass: 2
Flags: W
LayerCount: 2
Fore
SplineSet
161 580 m 2,0,-1
 161 500 l 1,1,-1
 339 500 l 1,2,-1
 339 465 l 1,3,-1
 161 465 l 1,4,-1
 161 0 l 1,5,-1
 120 0 l 1,6,-1
 120 465 l 1,7,-1
 20 465 l 1,8,-1
 20 500 l 1,9,-1
 120 500 l 1,10,-1
 120 583 l 2,11,12
 120 654 120 654 157.5 694.5 c 128,-1,13
 195 735 195 735 265 735 c 0,14,15
 317 735 317 735 345 707 c 1,16,-1
 333 674 l 1,17,18
 308 698 308 698 268 698 c 0,19,20
 217 698 217 698 189 667.5 c 128,-1,21
 161 637 161 637 161 580 c 2,0,-1
EndSplineSet
Substitution2: "'smcp' Lowercase to Small Capitals lookup 12 subtable" f.sc
Substitution2: "'aalt' Access All Alternates lookup 0 subtable" f.sc
EndChar

StartChar: g
Encoding: 103 103 74
Width: 603
GlyphClass: 2
Flags: W
LayerCount: 2
Fore
SplineSet
479 499 m 1,0,-1
 514 499 l 1,1,-1
 514 21 l 2,2,3
 514 -94 514 -94 452.5 -154.5 c 128,-1,4
 391 -215 391 -215 276 -215 c 0,5,6
 193 -215 193 -215 138.5 -183 c 128,-1,7
 84 -151 84 -151 71 -91 c 1,8,-1
 111 -74 l 1,9,10
 120 -124 120 -124 163.5 -151.5 c 128,-1,11
 207 -179 207 -179 280 -179 c 0,12,13
 369 -179 369 -179 421 -127.5 c 128,-1,14
 473 -76 473 -76 473 12 c 2,15,-1
 473 113 l 1,16,17
 450 57 450 57 401 25.5 c 128,-1,18
 352 -6 352 -6 284 -6 c 0,19,20
 177 -6 177 -6 116 62.5 c 128,-1,21
 55 131 55 131 55 252 c 128,-1,22
 55 373 55 373 116 441.5 c 128,-1,23
 177 510 177 510 284 510 c 0,24,25
 353 510 353 510 402.5 477.5 c 128,-1,26
 452 445 452 445 475 387 c 1,27,-1
 479 499 l 1,0,-1
289 30 m 0,28,29
 373 30 373 30 423 88 c 128,-1,30
 473 146 473 146 473 247 c 2,31,-1
 473 259 l 2,32,33
 472 358 472 358 422.5 416 c 128,-1,34
 373 474 373 474 289 474 c 0,35,36
 199 474 199 474 148 415 c 128,-1,37
 97 356 97 356 97 252 c 128,-1,38
 97 148 97 148 148 89 c 128,-1,39
 199 30 199 30 289 30 c 0,28,29
EndSplineSet
Substitution2: "'ss01' Style Set 1 lookup 47 subtable" g.ss01
Substitution2: "'salt' Stylistic Alternatives lookup 42 subtable" g.ss01
Substitution2: "'smcp' Lowercase to Small Capitals lookup 12 subtable" g.sc
AlternateSubs2: "'aalt' Access All Alternates lookup 1 subtable" g.sc g.ss01
EndChar

StartChar: h
Encoding: 104 104 75
Width: 592
GlyphClass: 2
Flags: W
LayerCount: 2
Fore
SplineSet
320 511 m 0,0,1
 406 511 406 511 457.5 463 c 128,-1,2
 509 415 509 415 509 326 c 2,3,-1
 509 1 l 1,4,-1
 468 1 l 1,5,-1
 468 314 l 2,6,7
 468 393 468 393 427 434 c 128,-1,8
 386 475 386 475 315 475 c 0,9,10
 238 475 238 475 183.5 423 c 128,-1,11
 129 371 129 371 129 288 c 2,12,-1
 129 0 l 1,13,-1
 88 0 l 1,14,-1
 88 730 l 1,15,-1
 129 730 l 1,16,-1
 129 393 l 1,17,18
 152 449 152 449 203 480 c 128,-1,19
 254 511 254 511 320 511 c 0,0,1
EndSplineSet
Substitution2: "'smcp' Lowercase to Small Capitals lookup 12 subtable" h.sc
Substitution2: "'aalt' Access All Alternates lookup 0 subtable" h.sc
EndChar

StartChar: i
Encoding: 105 105 76
Width: 217
GlyphClass: 2
Flags: W
LayerCount: 2
Fore
SplineSet
109 597 m 0,0,1
 92 597 92 597 82 607.5 c 128,-1,2
 72 618 72 618 72 634 c 128,-1,3
 72 650 72 650 82 660.5 c 128,-1,4
 92 671 92 671 109 671 c 0,5,6
 125 671 125 671 135 661 c 128,-1,7
 145 651 145 651 145 634 c 128,-1,8
 145 617 145 617 135 607 c 128,-1,9
 125 597 125 597 109 597 c 0,0,1
129 500 m 1,10,-1
 129 0 l 1,11,-1
 88 0 l 1,12,-1
 88 500 l 1,13,-1
 129 500 l 1,10,-1
EndSplineSet
Substitution2: "'smcp' Lowercase to Small Capitals lookup 12 subtable" i.sc
Substitution2: "'locl' Localized Forms in Latin lookup 6 subtable" i.loclTRK
Substitution2: "'locl' Localized Forms in Latin lookup 5 subtable" i.loclTRK
Substitution2: "'locl' Localized Forms in Latin lookup 4 subtable" i.loclTRK
Substitution2: "'locl' Localized Forms in Latin lookup 3 subtable" i.loclTRK
Substitution2: "'locl' Localized Forms in Latin lookup 2 subtable" i.loclTRK
Substitution2: "'aalt' Access All Alternates lookup 0 subtable" i.sc
EndChar

StartChar: j
Encoding: 106 106 77
Width: 217
GlyphClass: 2
Flags: W
LayerCount: 2
Fore
SplineSet
109 671 m 0,0,1
 124 671 124 671 134.5 660.5 c 128,-1,2
 145 650 145 650 145 634 c 128,-1,3
 145 618 145 618 134.5 607.5 c 128,-1,4
 124 597 124 597 109 597 c 0,5,6
 93 597 93 597 82.5 607.5 c 128,-1,7
 72 618 72 618 72 634 c 128,-1,8
 72 650 72 650 82.5 660.5 c 128,-1,9
 93 671 93 671 109 671 c 0,0,1
129 500 m 1,10,-1
 129 -59 l 2,11,12
 129 -134 129 -134 89 -174.5 c 128,-1,13
 49 -215 49 -215 -11 -215 c 0,14,15
 -62 -215 -62 -215 -93 -189 c 1,16,-1
 -83 -150 l 1,17,18
 -55 -176 -55 -176 -11 -176 c 0,19,20
 34 -176 34 -176 61 -144.5 c 128,-1,21
 88 -113 88 -113 88 -56 c 2,22,-1
 88 500 l 1,23,-1
 129 500 l 1,10,-1
EndSplineSet
Substitution2: "'smcp' Lowercase to Small Capitals lookup 12 subtable" j.sc
Substitution2: "'aalt' Access All Alternates lookup 0 subtable" j.sc
EndChar

StartChar: k
Encoding: 107 107 78
Width: 515
GlyphClass: 2
Flags: W
AnchorPoint: "Anchor-0" 312 0 basechar 0
LayerCount: 2
Fore
SplineSet
449 0 m 1,0,-1
 251 270 l 1,1,-1
 129 154 l 1,2,-1
 129 0 l 1,3,-1
 88 0 l 1,4,-1
 88 730 l 1,5,-1
 129 730 l 1,6,-1
 129 206 l 1,7,-1
 437 500 l 1,8,-1
 491 500 l 1,9,-1
 281 299 l 1,10,-1
 499 0 l 1,11,-1
 449 0 l 1,0,-1
EndSplineSet
Substitution2: "'smcp' Lowercase to Small Capitals lookup 12 subtable" k.sc
Substitution2: "'aalt' Access All Alternates lookup 0 subtable" k.sc
EndChar

StartChar: l
Encoding: 108 108 79
Width: 264
GlyphClass: 2
Flags: W
AnchorPoint: "Anchor-0" 193 0 basechar 0
LayerCount: 2
Fore
SplineSet
125 730 m 1,0,-1
 125 118 l 2,1,2
 125 70 125 70 140.5 49.5 c 128,-1,3
 156 29 156 29 191 29 c 128,-1,4
 226 29 226 29 255 41 c 1,5,-1
 249 3 l 1,6,7
 223 -10 223 -10 185 -10 c 0,8,9
 84 -10 84 -10 84 114 c 2,10,-1
 84 730 l 1,11,-1
 125 730 l 1,0,-1
EndSplineSet
Substitution2: "'ss02' Style Set 2 lookup 48 subtable" l.ss02
Substitution2: "'salt' Stylistic Alternatives lookup 42 subtable" l.ss02
Substitution2: "'smcp' Lowercase to Small Capitals lookup 12 subtable" l.sc
AlternateSubs2: "'aalt' Access All Alternates lookup 1 subtable" l.sc l.ss02
Position2: "Single Positioning lookup 6 subtable" dx=0 dy=0 dh=-40 dv=0
EndChar

StartChar: m
Encoding: 109 109 80
Width: 962
GlyphClass: 2
Flags: W
LayerCount: 2
Fore
SplineSet
692 511 m 0,0,1
 775 511 775 511 827.5 463 c 128,-1,2
 880 415 880 415 880 327 c 2,3,-1
 880 1 l 1,4,-1
 839 1 l 1,5,-1
 839 322 l 2,6,7
 839 396 839 396 797.5 435.5 c 128,-1,8
 756 475 756 475 687 475 c 0,9,10
 610 475 610 475 557 422.5 c 128,-1,11
 504 370 504 370 504 292 c 2,12,-1
 504 0 l 1,13,-1
 463 0 l 1,14,-1
 463 321 l 2,15,16
 463 395 463 395 422 434.5 c 128,-1,17
 381 474 381 474 312 474 c 0,18,19
 237 474 237 474 183 422 c 128,-1,20
 129 370 129 370 129 288 c 2,21,-1
 129 0 l 1,22,-1
 88 0 l 1,23,-1
 88 500 l 1,24,-1
 125 500 l 1,25,-1
 127 393 l 1,26,27
 151 447 151 447 202 478.5 c 128,-1,28
 253 510 253 510 316 510 c 0,29,30
 384 510 384 510 432 478 c 128,-1,31
 480 446 480 446 497 386 c 1,32,33
 516 443 516 443 570.5 477 c 128,-1,34
 625 511 625 511 692 511 c 0,0,1
EndSplineSet
Substitution2: "'smcp' Lowercase to Small Capitals lookup 12 subtable" m.sc
Substitution2: "'aalt' Access All Alternates lookup 0 subtable" m.sc
EndChar

StartChar: n
Encoding: 110 110 81
Width: 592
GlyphClass: 2
Flags: W
AnchorPoint: "Anchor-0" 330 0 basechar 0
LayerCount: 2
Fore
SplineSet
320 510 m 0,0,1
 406 510 406 510 457.5 462 c 128,-1,2
 509 414 509 414 509 325 c 2,3,-1
 509 0 l 1,4,-1
 468 0 l 1,5,-1
 468 313 l 2,6,7
 468 392 468 392 427 433 c 128,-1,8
 386 474 386 474 315 474 c 0,9,10
 238 474 238 474 183.5 422 c 128,-1,11
 129 370 129 370 129 287 c 2,12,-1
 129 0 l 1,13,-1
 88 0 l 1,14,-1
 88 500 l 1,15,-1
 125 500 l 1,16,-1
 127 392 l 1,17,18
 150 448 150 448 201.5 479 c 128,-1,19
 253 510 253 510 320 510 c 0,0,1
EndSplineSet
Substitution2: "Single Substitution lookup 57 subtable" n.swsh
Substitution2: "'swsh' Swash lookup 38 subtable" n.swsh
Substitution2: "'smcp' Lowercase to Small Capitals lookup 12 subtable" n.sc
AlternateSubs2: "'aalt' Access All Alternates lookup 1 subtable" n.sc n.swsh
EndChar

StartChar: o
Encoding: 111 111 82
Width: 584
GlyphClass: 2
Flags: W
LayerCount: 2
Fore
SplineSet
292 510 m 0,0,1
 403 510 403 510 466 441 c 128,-1,2
 529 372 529 372 529 250 c 128,-1,3
 529 128 529 128 466 59 c 128,-1,4
 403 -10 403 -10 292 -10 c 0,5,6
 182 -10 182 -10 118.5 59.5 c 128,-1,7
 55 129 55 129 55 250 c 128,-1,8
 55 371 55 371 118.5 440.5 c 128,-1,9
 182 510 182 510 292 510 c 0,0,1
292 475 m 128,-1,11
 201 475 201 475 148.5 415 c 128,-1,12
 96 355 96 355 96 250 c 128,-1,13
 96 145 96 145 148.5 85 c 128,-1,14
 201 25 201 25 292 25 c 128,-1,15
 383 25 383 25 435.5 85 c 128,-1,16
 488 145 488 145 488 250 c 128,-1,17
 488 355 488 355 435.5 415 c 128,-1,10
 383 475 383 475 292 475 c 128,-1,11
EndSplineSet
Substitution2: "Single Substitution lookup 55 subtable" ordmasculine
Substitution2: "'smcp' Lowercase to Small Capitals lookup 12 subtable" o.sc
AlternateSubs2: "'aalt' Access All Alternates lookup 1 subtable" o.sc ordmasculine
EndChar

StartChar: p
Encoding: 112 112 83
Width: 603
GlyphClass: 2
Flags: W
LayerCount: 2
Fore
SplineSet
318 510 m 0,0,1
 425 510 425 510 486 441 c 128,-1,2
 547 372 547 372 547 250 c 128,-1,3
 547 128 547 128 486 59 c 128,-1,4
 425 -10 425 -10 318 -10 c 0,5,6
 250 -10 250 -10 200.5 23.5 c 128,-1,7
 151 57 151 57 129 116 c 1,8,-1
 129 -210 l 1,9,-1
 88 -210 l 1,10,-1
 88 500 l 1,11,-1
 125 500 l 1,12,-1
 127 378 l 1,13,14
 147 440 147 440 197.5 475 c 128,-1,15
 248 510 248 510 318 510 c 0,0,1
313 26 m 0,16,17
 404 26 404 26 455 85.5 c 128,-1,18
 506 145 506 145 506 250 c 128,-1,19
 506 355 506 355 455 414.5 c 128,-1,20
 404 474 404 474 313 474 c 0,21,22
 232 474 232 474 182 418 c 128,-1,23
 132 362 132 362 129 265 c 2,24,-1
 129 236 l 2,25,26
 131 139 131 139 181 82.5 c 128,-1,27
 231 26 231 26 313 26 c 0,16,17
EndSplineSet
Substitution2: "'smcp' Lowercase to Small Capitals lookup 12 subtable" p.sc
Substitution2: "'aalt' Access All Alternates lookup 0 subtable" p.sc
EndChar

StartChar: q
Encoding: 113 113 84
Width: 604
GlyphClass: 2
Flags: W
LayerCount: 2
Fore
SplineSet
478 500 m 1,0,-1
 515 500 l 1,1,-1
 515 -210 l 1,2,-1
 474 -210 l 1,3,-1
 474 115 l 1,4,5
 452 56 452 56 402.5 23 c 128,-1,6
 353 -10 353 -10 285 -10 c 0,7,8
 178 -10 178 -10 117.5 59 c 128,-1,9
 57 128 57 128 57 250 c 128,-1,10
 57 372 57 372 117.5 441 c 128,-1,11
 178 510 178 510 285 510 c 0,12,13
 355 510 355 510 405.5 475 c 128,-1,14
 456 440 456 440 476 379 c 1,15,-1
 478 500 l 1,0,-1
474 246 m 2,16,-1
 474 255 l 2,17,18
 474 356 474 356 424 415 c 128,-1,19
 374 474 374 474 291 474 c 0,20,21
 200 474 200 474 149 414.5 c 128,-1,22
 98 355 98 355 98 250 c 128,-1,23
 98 145 98 145 149 85.5 c 128,-1,24
 200 26 200 26 291 26 c 0,25,26
 375 26 375 26 424.5 85 c 128,-1,27
 474 144 474 144 474 246 c 2,16,-1
EndSplineSet
Substitution2: "'smcp' Lowercase to Small Capitals lookup 12 subtable" q.sc
Substitution2: "'aalt' Access All Alternates lookup 0 subtable" q.sc
EndChar

StartChar: r
Encoding: 114 114 85
Width: 368
GlyphClass: 2
Flags: W
AnchorPoint: "Anchor-0" 118 0 basechar 0
LayerCount: 2
Fore
SplineSet
290 510 m 0,0,1
 331 510 331 510 355 491 c 1,2,-1
 343 454 l 1,3,4
 320 472 320 472 279 472 c 0,5,6
 218 472 218 472 173.5 417 c 128,-1,7
 129 362 129 362 129 283 c 2,8,-1
 129 0 l 1,9,-1
 88 0 l 1,10,-1
 88 500 l 1,11,-1
 123 500 l 1,12,-1
 128 392 l 1,13,14
 147 446 147 446 189.5 478 c 128,-1,15
 232 510 232 510 290 510 c 0,0,1
EndSplineSet
Substitution2: "Single Substitution lookup 57 subtable" r.swsh
Substitution2: "'swsh' Swash lookup 38 subtable" r.swsh
Substitution2: "'smcp' Lowercase to Small Capitals lookup 12 subtable" r.sc
AlternateSubs2: "'aalt' Access All Alternates lookup 1 subtable" r.sc r.swsh
EndChar

StartChar: s
Encoding: 115 115 86
Width: 498
GlyphClass: 2
Flags: W
AnchorPoint: "Anchor-0" 263 0 basechar 0
LayerCount: 2
Fore
SplineSet
249 -10 m 0,0,1
 172 -10 172 -10 116.5 20 c 128,-1,2
 61 50 61 50 41 108 c 1,3,-1
 76 130 l 1,4,5
 91 79 91 79 138 52.5 c 128,-1,6
 185 26 185 26 254 26 c 0,7,8
 326 26 326 26 366.5 54 c 128,-1,9
 407 82 407 82 407 128 c 0,10,11
 407 167 407 167 373 190.5 c 128,-1,12
 339 214 339 214 252 229 c 0,13,14
 147 247 147 247 104.5 279 c 128,-1,15
 62 311 62 311 62 369 c 0,16,17
 62 429 62 429 115.5 469.5 c 128,-1,18
 169 510 169 510 252 510 c 0,19,20
 409 510 409 510 442 387 c 1,21,-1
 407 366 l 1,22,23
 380 474 380 474 252 474 c 0,24,25
 188 474 188 474 145.5 445 c 128,-1,26
 103 416 103 416 103 374 c 0,27,28
 103 331 103 331 138.5 306.5 c 128,-1,29
 174 282 174 282 263 266 c 0,30,31
 365 249 365 249 406.5 217.5 c 128,-1,32
 448 186 448 186 448 129 c 0,33,34
 448 66 448 66 394 28 c 128,-1,35
 340 -10 340 -10 249 -10 c 0,0,1
EndSplineSet
Substitution2: "'hist' Historical Forms lookup 44 subtable" longs
Substitution2: "'smcp' Lowercase to Small Capitals lookup 12 subtable" s.sc
AlternateSubs2: "'aalt' Access All Alternates lookup 1 subtable" s.sc longs
EndChar

StartChar: t
Encoding: 116 116 87
Width: 364
GlyphClass: 2
Flags: W
AnchorPoint: "Anchor-0" 234 0 basechar 0
LayerCount: 2
Fore
SplineSet
339 65 m 1,0,-1
 355 31 l 1,1,2
 314 -10 314 -10 246 -10 c 0,3,4
 186 -10 186 -10 152.5 24 c 128,-1,5
 119 58 119 58 119 125 c 2,6,-1
 119 465 l 1,7,-1
 19 465 l 1,8,-1
 19 500 l 1,9,-1
 119 500 l 1,10,-1
 119 626 l 1,11,-1
 160 638 l 1,12,-1
 160 500 l 1,13,-1
 350 500 l 1,14,-1
 350 465 l 1,15,-1
 160 465 l 1,16,-1
 160 131 l 2,17,18
 160 28 160 28 252 28 c 0,19,20
 305 28 305 28 339 65 c 1,0,-1
EndSplineSet
Substitution2: "Single Substitution lookup 57 subtable" t.swsh
Substitution2: "'swsh' Swash lookup 38 subtable" t.swsh
Substitution2: "'smcp' Lowercase to Small Capitals lookup 12 subtable" t.sc
AlternateSubs2: "'aalt' Access All Alternates lookup 1 subtable" t.sc t.swsh
EndChar

StartChar: u
Encoding: 117 117 88
Width: 585
GlyphClass: 2
Flags: W
LayerCount: 2
Fore
SplineSet
456 500 m 1,0,-1
 497 500 l 1,1,-1
 497 0 l 1,2,-1
 460 0 l 1,3,-1
 458 107 l 1,4,5
 435 51 435 51 383 20.5 c 128,-1,6
 331 -10 331 -10 261 -10 c 0,7,8
 179 -10 179 -10 131 35.5 c 128,-1,9
 83 81 83 81 83 169 c 2,10,-1
 83 500 l 1,11,-1
 124 500 l 1,12,-1
 124 179 l 2,13,14
 124 26 124 26 268 26 c 0,15,16
 354 26 354 26 405 80.5 c 128,-1,17
 456 135 456 135 456 209 c 2,18,-1
 456 500 l 1,0,-1
EndSplineSet
Substitution2: "'smcp' Lowercase to Small Capitals lookup 12 subtable" u.sc
Substitution2: "'aalt' Access All Alternates lookup 0 subtable" u.sc
EndChar

StartChar: v
Encoding: 118 118 89
Width: 496
GlyphClass: 2
Flags: W
LayerCount: 2
Fore
SplineSet
434 500 m 1,0,-1
 478 500 l 1,1,-1
 269 0 l 1,2,-1
 227 0 l 1,3,-1
 18 500 l 1,4,-1
 65 500 l 1,5,-1
 249 43 l 1,6,-1
 434 500 l 1,0,-1
EndSplineSet
Substitution2: "'smcp' Lowercase to Small Capitals lookup 12 subtable" v.sc
Substitution2: "'aalt' Access All Alternates lookup 0 subtable" v.sc
EndChar

StartChar: w
Encoding: 119 119 90
Width: 809
GlyphClass: 2
Flags: W
LayerCount: 2
Fore
SplineSet
732 500 m 1,0,-1
 777 500 l 1,1,-1
 608 0 l 1,2,-1
 567 0 l 1,3,-1
 403 448 l 1,4,-1
 242 0 l 1,5,-1
 201 0 l 1,6,-1
 32 500 l 1,7,-1
 77 500 l 1,8,-1
 223 49 l 1,9,-1
 384 500 l 1,10,-1
 425 500 l 1,11,-1
 586 49 l 1,12,-1
 732 500 l 1,0,-1
EndSplineSet
Substitution2: "'smcp' Lowercase to Small Capitals lookup 12 subtable" w.sc
Substitution2: "'aalt' Access All Alternates lookup 0 subtable" w.sc
EndChar

StartChar: x
Encoding: 120 120 91
Width: 496
GlyphClass: 2
Flags: W
LayerCount: 2
Fore
SplineSet
477 0 m 1,0,-1
 424 0 l 1,1,-1
 246 226 l 1,2,-1
 73 0 l 1,3,-1
 23 0 l 1,4,-1
 222 257 l 1,5,-1
 32 500 l 1,6,-1
 86 500 l 1,7,-1
 250 290 l 1,8,-1
 408 500 l 1,9,-1
 458 500 l 1,10,-1
 274 259 l 1,11,-1
 477 0 l 1,0,-1
EndSplineSet
Substitution2: "'smcp' Lowercase to Small Capitals lookup 12 subtable" x.sc
Substitution2: "'aalt' Access All Alternates lookup 0 subtable" x.sc
EndChar

StartChar: y
Encoding: 121 121 92
Width: 502
GlyphClass: 2
Flags: W
LayerCount: 2
Fore
SplineSet
482 500 m 1,0,-1
 239 -94 l 2,1,2
 211 -162 211 -162 178 -188.5 c 128,-1,3
 145 -215 145 -215 94 -215 c 0,4,5
 32 -215 32 -215 3 -179 c 1,6,-1
 20 -145 l 1,7,8
 44 -179 44 -179 94 -179 c 0,9,10
 131 -179 131 -179 156 -158.5 c 128,-1,11
 181 -138 181 -138 203 -85 c 2,12,-1
 237 0 l 1,13,-1
 184 125 l 1,14,-1
 26 500 l 1,15,-1
 72 500 l 1,16,-1
 234 105 l 1,17,-1
 257 44 l 1,18,-1
 281 109 l 1,19,-1
 437 500 l 1,20,-1
 482 500 l 1,0,-1
EndSplineSet
Substitution2: "Single Substitution lookup 57 subtable" y.swsh
Substitution2: "'swsh' Swash lookup 38 subtable" y.swsh
Substitution2: "'smcp' Lowercase to Small Capitals lookup 12 subtable" y.sc
AlternateSubs2: "'aalt' Access All Alternates lookup 1 subtable" y.sc y.swsh
EndChar

StartChar: z
Encoding: 122 122 93
Width: 496
GlyphClass: 2
Flags: W
LayerCount: 2
Fore
SplineSet
46 0 m 1,0,-1
 46 32 l 1,1,-1
 350 410 l 1,2,-1
 399 465 l 1,3,-1
 42 465 l 1,4,-1
 42 500 l 1,5,-1
 445 500 l 1,6,-1
 445 468 l 1,7,-1
 153 102 l 1,8,-1
 94 35 l 1,9,-1
 458 35 l 1,10,-1
 458 0 l 1,11,-1
 46 0 l 1,0,-1
EndSplineSet
Substitution2: "'smcp' Lowercase to Small Capitals lookup 12 subtable" z.sc
Substitution2: "'aalt' Access All Alternates lookup 0 subtable" z.sc
EndChar

StartChar: braceleft
Encoding: 123 123 94
Width: 295
GlyphClass: 2
Flags: W
LayerCount: 2
Fore
SplineSet
168 -63 m 2,0,1
 168 -102 168 -102 193.5 -123 c 128,-1,2
 219 -144 219 -144 267 -144 c 1,3,-1
 262 -177 l 1,4,5
 129 -177 129 -177 129 -61 c 2,6,-1
 129 168 l 2,7,8
 129 266 129 266 16 266 c 1,9,-1
 16 301 l 1,10,11
 129 301 129 301 129 399 c 2,12,-1
 129 628 l 2,13,14
 129 744 129 744 262 744 c 1,15,-1
 267 710 l 1,16,17
 168 710 168 710 168 630 c 2,18,-1
 168 397 l 2,19,20
 168 306 168 306 76 284 c 1,21,22
 168 261 168 261 168 171 c 2,23,-1
 168 -63 l 2,0,1
EndSplineSet
Substitution2: "'case' Case-Sensitive Forms lookup 29 subtable" braceleft.case
Substitution2: "'aalt' Access All Alternates lookup 0 subtable" braceleft.case
EndChar

StartChar: bar
Encoding: 124 124 95
Width: 197
GlyphClass: 2
Flags: W
LayerCount: 2
Fore
SplineSet
116 730 m 1,0,-1
 116 -168 l 1,1,-1
 80 -168 l 1,2,-1
 80 730 l 1,3,-1
 116 730 l 1,0,-1
EndSplineSet
Substitution2: "'case' Case-Sensitive Forms lookup 29 subtable" bar.case
Substitution2: "'aalt' Access All Alternates lookup 0 subtable" bar.case
EndChar

StartChar: braceright
Encoding: 125 125 96
Width: 295
GlyphClass: 2
Flags: W
LayerCount: 2
Fore
SplineSet
166 399 m 2,0,1
 166 301 166 301 279 301 c 1,2,-1
 279 266 l 1,3,4
 166 266 166 266 166 168 c 2,5,-1
 166 -61 l 2,6,7
 166 -177 166 -177 33 -177 c 1,8,-1
 28 -144 l 1,9,10
 76 -144 76 -144 101.5 -123 c 128,-1,11
 127 -102 127 -102 127 -63 c 2,12,-1
 127 171 l 2,13,14
 127 261 127 261 220 284 c 1,15,16
 127 306 127 306 127 397 c 2,17,-1
 127 630 l 2,18,19
 127 710 127 710 28 710 c 1,20,-1
 33 744 l 1,21,22
 166 744 166 744 166 628 c 2,23,-1
 166 399 l 2,0,1
EndSplineSet
Substitution2: "'case' Case-Sensitive Forms lookup 29 subtable" braceright.case
Substitution2: "'aalt' Access All Alternates lookup 0 subtable" braceright.case
EndChar

StartChar: asciitilde
Encoding: 126 126 97
Width: 503
GlyphClass: 2
Flags: W
LayerCount: 2
Fore
SplineSet
460 391 m 1,0,1
 446 275 446 275 351 275 c 0,2,3
 313 275 313 275 279.5 293.5 c 128,-1,4
 246 312 246 312 215.5 330.5 c 128,-1,5
 185 349 185 349 155 349 c 0,6,7
 96 349 96 349 82 272 c 1,8,-1
 43 272 l 1,9,10
 57 387 57 387 152 387 c 0,11,12
 190 387 190 387 223.5 368.5 c 128,-1,13
 257 350 257 350 287.5 331.5 c 128,-1,14
 318 313 318 313 348 313 c 0,15,16
 408 313 408 313 420 391 c 1,17,-1
 460 391 l 1,0,1
EndSplineSet
EndChar

StartChar: exclamdown
Encoding: 161 161 99
Width: 209
GlyphClass: 2
Flags: W
LayerCount: 2
Fore
SplineSet
105 429 m 0,0,1
 87 429 87 429 76.5 440 c 128,-1,2
 66 451 66 451 66 468 c 128,-1,3
 66 485 66 485 76.5 496 c 128,-1,4
 87 507 87 507 105 507 c 0,5,6
 122 507 122 507 132.5 496 c 128,-1,7
 143 485 143 485 143 468 c 128,-1,8
 143 451 143 451 132.5 440 c 128,-1,9
 122 429 122 429 105 429 c 0,0,1
83 -160 m 1,10,-1
 83 170 l 1,11,-1
 88 315 l 1,12,-1
 121 315 l 1,13,-1
 126 170 l 1,14,-1
 126 -160 l 1,15,-1
 83 -160 l 1,10,-1
EndSplineSet
Substitution2: "'case' Case-Sensitive Forms lookup 29 subtable" exclamdown.case
Substitution2: "'smcp' Lowercase to Small Capitals lookup 12 subtable" exclamdown.sc
Substitution2: "'c2sc' Capitals to Small Capitals lookup 11 subtable" exclamdown.sc
AlternateSubs2: "'aalt' Access All Alternates lookup 1 subtable" exclamdown.sc exclamdown.case
EndChar

StartChar: cent
Encoding: 162 162 100
Width: 604
GlyphClass: 2
Flags: W
LayerCount: 2
Fore
SplineSet
523 137 m 1,0,1
 507 72 507 72 454.5 32.5 c 128,-1,2
 402 -7 402 -7 328 -10 c 1,3,-1
 328 -100 l 1,4,-1
 293 -100 l 1,5,-1
 293 -9 l 1,6,7
 194 -2 194 -2 139 66.5 c 128,-1,8
 84 135 84 135 84 250 c 0,9,10
 84 364 84 364 139 432.5 c 128,-1,11
 194 501 194 501 293 509 c 1,12,-1
 293 600 l 1,13,-1
 328 600 l 1,14,-1
 328 510 l 1,15,16
 399 508 399 508 449 472.5 c 128,-1,17
 499 437 499 437 519 375 c 1,18,-1
 481 356 l 1,19,20
 465 411 465 411 426 442 c 128,-1,21
 387 473 387 473 328 476 c 1,22,-1
 328 24 l 1,23,24
 388 28 388 28 431.5 61.5 c 128,-1,25
 475 95 475 95 487 150 c 1,26,-1
 523 137 l 1,0,1
123 250 m 0,27,28
 123 150 123 150 167 91 c 128,-1,29
 211 32 211 32 293 25 c 1,30,-1
 293 475 l 1,31,32
 212 467 212 467 167.5 408 c 128,-1,33
 123 349 123 349 123 250 c 0,27,28
EndSplineSet
Substitution2: "'tnum' Tabular Numbers lookup 26 subtable" cent.tf
Substitution2: "'aalt' Access All Alternates lookup 0 subtable" cent.tf
EndChar

StartChar: sterling
Encoding: 163 163 101
Width: 604
GlyphClass: 2
Flags: W
LayerCount: 2
Fore
SplineSet
520 130 m 1,0,-1
 554 130 l 1,1,2
 554 60 554 60 521 25 c 128,-1,3
 488 -10 488 -10 429 -10 c 0,4,5
 399 -10 399 -10 370.5 1 c 128,-1,6
 342 12 342 12 326.5 23 c 128,-1,7
 311 34 311 34 285 55 c 1,8,9
 238 -10 238 -10 160 -10 c 0,10,11
 117 -10 117 -10 92 10.5 c 128,-1,12
 67 31 67 31 67 64 c 0,13,14
 67 98 67 98 94 119.5 c 128,-1,15
 121 141 121 141 168 141 c 0,16,17
 226 141 226 141 276 102 c 1,18,19
 286 132 286 132 286 161 c 0,20,21
 286 225 286 225 240 293 c 1,22,-1
 105 293 l 1,23,-1
 105 327 l 1,24,-1
 217 327 l 1,25,26
 161 408 161 408 161 480 c 0,27,28
 161 565 161 565 214 617.5 c 128,-1,29
 267 670 267 670 351 670 c 0,30,31
 423 670 423 670 468 631 c 128,-1,32
 513 592 513 592 526 521 c 1,33,-1
 489 502 l 1,34,35
 481 563 481 563 444.5 598 c 128,-1,36
 408 633 408 633 350 633 c 0,37,38
 281 633 281 633 240.5 592.5 c 128,-1,39
 200 552 200 552 200 485 c 0,40,41
 200 448 200 448 212.5 415.5 c 128,-1,42
 225 383 225 383 257 333 c 2,43,-1
 261 327 l 1,44,-1
 466 327 l 1,45,-1
 466 293 l 1,46,-1
 281 293 l 1,47,48
 319 227 319 227 319 161 c 0,49,50
 319 121 319 121 301 82 c 1,51,52
 326 62 326 62 338 53 c 128,-1,53
 350 44 350 44 374 34 c 128,-1,54
 398 24 398 24 424 24 c 0,55,56
 519 24 519 24 520 130 c 1,0,-1
165 20 m 0,57,58
 226 20 226 20 261 73 c 1,59,60
 212 109 212 109 169 109 c 0,61,62
 105 109 105 109 105 64 c 0,63,64
 105 20 105 20 165 20 c 0,57,58
EndSplineSet
Substitution2: "'tnum' Tabular Numbers lookup 26 subtable" sterling.tf
Substitution2: "'aalt' Access All Alternates lookup 0 subtable" sterling.tf
EndChar

StartChar: currency
Encoding: 164 164 102
Width: 604
GlyphClass: 2
Flags: W
LayerCount: 2
Fore
SplineSet
491 331 m 0,0,1
 491 257 491 257 452 206 c 1,2,-1
 550 108 l 1,3,-1
 523 81 l 1,4,-1
 425 178 l 1,5,6
 375 136 375 136 302 136 c 0,7,8
 228 136 228 136 177 179 c 1,9,-1
 81 81 l 1,10,-1
 54 108 l 1,11,-1
 151 207 l 1,12,13
 112 257 112 257 112 331 c 0,14,15
 112 403 112 403 150 455 c 1,16,-1
 54 550 l 1,17,-1
 81 578 l 1,18,-1
 177 482 l 1,19,20
 226 525 226 525 302 525 c 0,21,22
 375 525 375 525 428 482 c 1,23,-1
 523 578 l 1,24,-1
 550 551 l 1,25,-1
 454 454 l 1,26,27
 491 403 491 403 491 331 c 0,0,1
302 173 m 128,-1,29
 369 173 369 173 409.5 216.5 c 128,-1,30
 450 260 450 260 450 331 c 128,-1,31
 450 402 450 402 409.5 445 c 128,-1,32
 369 488 369 488 302 488 c 128,-1,33
 235 488 235 488 194 444.5 c 128,-1,34
 153 401 153 401 153 331 c 0,35,36
 153 260 153 260 194 216.5 c 128,-1,28
 235 173 235 173 302 173 c 128,-1,29
EndSplineSet
Substitution2: "'tnum' Tabular Numbers lookup 26 subtable" currency.tf
Substitution2: "'aalt' Access All Alternates lookup 0 subtable" currency.tf
EndChar

StartChar: yen
Encoding: 165 165 103
Width: 604
GlyphClass: 2
Flags: W
LayerCount: 2
Fore
SplineSet
332 279 m 1,0,-1
 357 281 l 1,1,-1
 522 281 l 1,2,-1
 522 249 l 1,3,-1
 321 249 l 1,4,-1
 321 153 l 1,5,-1
 522 153 l 1,6,-1
 522 123 l 1,7,-1
 321 123 l 1,8,-1
 321 0 l 1,9,-1
 283 0 l 1,10,-1
 283 123 l 1,11,-1
 83 123 l 1,12,-1
 83 153 l 1,13,-1
 283 153 l 1,14,-1
 283 249 l 1,15,-1
 83 249 l 1,16,-1
 83 281 l 1,17,-1
 248 281 l 1,18,-1
 272 279 l 1,19,-1
 48 660 l 1,20,-1
 96 660 l 1,21,-1
 274 344 l 1,22,-1
 301 291 l 1,23,-1
 303 291 l 1,24,-1
 330 344 l 1,25,-1
 508 660 l 1,26,-1
 556 660 l 1,27,-1
 332 279 l 1,0,-1
EndSplineSet
Substitution2: "'tnum' Tabular Numbers lookup 26 subtable" yen.tf
Substitution2: "'aalt' Access All Alternates lookup 0 subtable" yen.tf
EndChar

StartChar: brokenbar
Encoding: 166 166 104
Width: 210
GlyphClass: 2
Flags: W
LayerCount: 2
Fore
SplineSet
123 730 m 1,0,-1
 123 365 l 1,1,-1
 87 365 l 1,2,-1
 87 730 l 1,3,-1
 123 730 l 1,0,-1
123 197 m 1,4,-1
 123 -168 l 1,5,-1
 87 -168 l 1,6,-1
 87 197 l 1,7,-1
 123 197 l 1,4,-1
EndSplineSet
EndChar

StartChar: section
Encoding: 167 167 105
Width: 560
GlyphClass: 2
Flags: W
LayerCount: 2
Fore
SplineSet
529 268 m 0,0,1
 529 222 529 222 499 189.5 c 128,-1,2
 469 157 469 157 420 140 c 1,3,4
 475 103 475 103 475 33 c 0,5,6
 475 -28 475 -28 423.5 -69 c 128,-1,7
 372 -110 372 -110 283 -110 c 0,8,9
 140 -110 140 -110 93 -19 c 1,10,-1
 124 6 l 1,11,12
 157 -74 157 -74 283 -74 c 0,13,14
 354 -74 354 -74 394 -45.5 c 128,-1,15
 434 -17 434 -17 434 30 c 0,16,17
 434 81 434 81 393 108 c 128,-1,18
 352 135 352 135 248 151 c 0,19,20
 134 167 134 167 88 199 c 128,-1,21
 42 231 42 231 42 292 c 0,22,23
 42 338 42 338 72 370 c 128,-1,24
 102 402 102 402 151 420 c 1,25,26
 97 455 97 455 97 527 c 0,27,28
 97 588 97 588 149 629 c 128,-1,29
 201 670 201 670 291 670 c 0,30,31
 434 670 434 670 479 579 c 1,32,-1
 449 555 l 1,33,34
 414 634 414 634 290 634 c 0,35,36
 218 634 218 634 178 605.5 c 128,-1,37
 138 577 138 577 138 530 c 0,38,39
 138 479 138 479 179 451.5 c 128,-1,40
 220 424 220 424 324 409 c 0,41,42
 437 393 437 393 483 361 c 128,-1,43
 529 329 529 329 529 268 c 0,0,1
378 160 m 1,44,45
 488 190 488 190 488 265 c 0,46,47
 488 310 488 310 450 334 c 128,-1,48
 412 358 412 358 314 372 c 0,49,50
 238 383 238 383 192 399 c 1,51,52
 83 369 83 369 83 295 c 0,53,54
 83 250 83 250 121 226.5 c 128,-1,55
 159 203 159 203 258 188 c 0,56,57
 334 177 334 177 378 160 c 1,44,45
EndSplineSet
EndChar

StartChar: dieresis
Encoding: 168 168 106
Width: 530
GlyphClass: 2
Flags: W
LayerCount: 2
Fore
SplineSet
172 663 m 128,-1,1
 188 663 188 663 198 653.5 c 128,-1,2
 208 644 208 644 208 627 c 0,3,4
 208 611 208 611 198 601.5 c 128,-1,5
 188 592 188 592 172 592 c 128,-1,6
 156 592 156 592 146.5 601.5 c 128,-1,7
 137 611 137 611 137 627 c 128,-1,8
 137 643 137 643 146.5 653 c 128,-1,0
 156 663 156 663 172 663 c 128,-1,1
360 663 m 128,-1,10
 376 663 376 663 386 653.5 c 128,-1,11
 396 644 396 644 396 627 c 0,12,13
 396 611 396 611 386 601.5 c 128,-1,14
 376 592 376 592 360 592 c 128,-1,15
 344 592 344 592 334.5 601.5 c 128,-1,16
 325 611 325 611 325 627 c 128,-1,17
 325 643 325 643 334.5 653 c 128,-1,9
 344 663 344 663 360 663 c 128,-1,10
EndSplineSet
EndChar

StartChar: copyright
Encoding: 169 169 107
Width: 805
GlyphClass: 2
Flags: W
LayerCount: 2
Fore
SplineSet
403 670 m 128,-1,1
 558 670 558 670 651.5 577 c 128,-1,2
 745 484 745 484 745 330 c 128,-1,3
 745 176 745 176 651.5 83 c 128,-1,4
 558 -10 558 -10 403 -10 c 128,-1,5
 248 -10 248 -10 154.5 83 c 128,-1,6
 61 176 61 176 61 330 c 128,-1,7
 61 484 61 484 154.5 577 c 128,-1,0
 248 670 248 670 403 670 c 128,-1,1
403 636 m 0,8,9
 265 636 265 636 181.5 552 c 128,-1,10
 98 468 98 468 98 330 c 128,-1,11
 98 192 98 192 181.5 108 c 128,-1,12
 265 24 265 24 403 24 c 0,13,14
 540 24 540 24 623.5 108 c 128,-1,15
 707 192 707 192 707 330 c 128,-1,16
 707 468 707 468 623.5 552 c 128,-1,17
 540 636 540 636 403 636 c 0,8,9
413 513 m 0,18,19
 528 513 528 513 564 415 c 1,20,-1
 533 399 l 1,21,22
 506 481 506 481 412 481 c 0,23,24
 344 481 344 481 305.5 440.5 c 128,-1,25
 267 400 267 400 267 328 c 128,-1,26
 267 256 267 256 305.5 215.5 c 128,-1,27
 344 175 344 175 412 175 c 0,28,29
 459 175 459 175 493 198.5 c 128,-1,30
 527 222 527 222 538 263 c 1,31,-1
 569 251 l 1,32,33
 553 201 553 201 511.5 172 c 128,-1,34
 470 143 470 143 413 143 c 0,35,36
 327 143 327 143 279 192 c 128,-1,37
 231 241 231 241 231 328 c 128,-1,38
 231 415 231 415 279 464 c 128,-1,39
 327 513 327 513 413 513 c 0,18,19
EndSplineSet
EndChar

StartChar: ordfeminine
Encoding: 170 170 108
Width: 364
GlyphClass: 2
Flags: W
LayerCount: 2
Fore
SplineSet
329 354 m 0,0,1
 344 354 344 354 354 359 c 1,2,-1
 352 334 l 1,3,4
 339 326 339 326 320 326 c 0,5,6
 268 326 268 326 265 385 c 1,7,8
 249 357 249 357 213.5 341.5 c 128,-1,9
 178 326 178 326 136 326 c 0,10,11
 86 326 86 326 57 347.5 c 128,-1,12
 28 369 28 369 28 408 c 0,13,14
 28 486 28 486 155 508 c 2,15,-1
 261 527 l 1,16,-1
 261 552 l 2,17,18
 261 591 261 591 237 613 c 128,-1,19
 213 635 213 635 169 635 c 0,20,21
 86 635 86 635 61 568 c 1,22,-1
 34 582 l 1,23,24
 60 665 60 665 170 665 c 0,25,26
 230 665 230 665 263.5 636.5 c 128,-1,27
 297 608 297 608 297 554 c 2,28,-1
 297 392 l 2,29,30
 297 354 297 354 329 354 c 0,0,1
143 356 m 0,31,32
 186 356 186 356 223.5 378.5 c 128,-1,33
 261 401 261 401 261 440 c 2,34,-1
 261 501 l 1,35,-1
 168 484 l 2,36,37
 114 474 114 474 89.5 456.5 c 128,-1,38
 65 439 65 439 65 411 c 0,39,40
 65 356 65 356 143 356 c 0,31,32
33 214 m 1,41,-1
 33 244 l 1,42,-1
 339 244 l 1,43,-1
 339 214 l 1,44,-1
 33 214 l 1,41,-1
EndSplineSet
EndChar

StartChar: guillemotleft
Encoding: 171 171 109
Width: 424
GlyphClass: 2
Flags: W
LayerCount: 2
Fore
SplineSet
232 461 m 1,0,-1
 93 265 l 1,1,-1
 232 69 l 1,2,-1
 185 69 l 1,3,-1
 48 265 l 1,4,-1
 185 461 l 1,5,-1
 232 461 l 1,0,-1
373 461 m 1,6,-1
 234 265 l 1,7,-1
 373 69 l 1,8,-1
 326 69 l 1,9,-1
 189 265 l 1,10,-1
 326 461 l 1,11,-1
 373 461 l 1,6,-1
EndSplineSet
Substitution2: "'case' Case-Sensitive Forms lookup 29 subtable" guillemotleft.case
Substitution2: "'aalt' Access All Alternates lookup 0 subtable" guillemotleft.case
EndChar

StartChar: logicalnot
Encoding: 172 172 110
Width: 604
GlyphClass: 2
Flags: W
LayerCount: 2
Fore
SplineSet
70 335 m 1,0,-1
 534 335 l 1,1,-1
 534 158 l 1,2,-1
 493 158 l 1,3,-1
 493 297 l 1,4,-1
 70 297 l 1,5,-1
 70 335 l 1,0,-1
EndSplineSet
EndChar

StartChar: uni00AD
Encoding: 173 173 111
Width: 453
GlyphClass: 2
Flags: W
LayerCount: 2
Fore
SplineSet
377 288 m 1,0,-1
 377 246 l 1,1,-1
 77 246 l 1,2,-1
 77 288 l 1,3,-1
 377 288 l 1,0,-1
EndSplineSet
EndChar

StartChar: registered
Encoding: 174 174 112
Width: 805
GlyphClass: 2
Flags: W
LayerCount: 2
Fore
SplineSet
403 670 m 128,-1,1
 558 670 558 670 651.5 577 c 128,-1,2
 745 484 745 484 745 330 c 128,-1,3
 745 176 745 176 651.5 83 c 128,-1,4
 558 -10 558 -10 403 -10 c 128,-1,5
 248 -10 248 -10 154.5 83 c 128,-1,6
 61 176 61 176 61 330 c 128,-1,7
 61 484 61 484 154.5 577 c 128,-1,0
 248 670 248 670 403 670 c 128,-1,1
403 24 m 0,8,9
 540 24 540 24 623.5 108 c 128,-1,10
 707 192 707 192 707 330 c 128,-1,11
 707 468 707 468 623.5 552 c 128,-1,12
 540 636 540 636 403 636 c 0,13,14
 265 636 265 636 181.5 552 c 128,-1,15
 98 468 98 468 98 330 c 128,-1,16
 98 192 98 192 181.5 108 c 128,-1,17
 265 24 265 24 403 24 c 0,8,9
559 405 m 0,18,19
 559 361 559 361 534 334 c 128,-1,20
 509 307 509 307 462 300 c 1,21,-1
 566 143 l 1,22,-1
 525 143 l 1,23,-1
 424 298 l 1,24,-1
 314 298 l 1,25,-1
 314 143 l 1,26,-1
 278 143 l 1,27,-1
 278 513 l 1,28,-1
 432 513 l 2,29,30
 492 513 492 513 525.5 485 c 128,-1,31
 559 457 559 457 559 405 c 0,18,19
314 485 m 1,32,-1
 314 326 l 1,33,-1
 431 326 l 2,34,35
 524 326 524 326 524 405 c 0,36,37
 524 485 524 485 431 485 c 2,38,-1
 314 485 l 1,32,-1
EndSplineSet
Substitution2: "'ordn' Ordinals lookup 22 subtable" registeredsuperior
Substitution2: "'sups' Superscript lookup 15 subtable" registeredsuperior
Substitution2: "'aalt' Access All Alternates lookup 0 subtable" registeredsuperior
EndChar

StartChar: macron
Encoding: 175 175 113
Width: 530
GlyphClass: 2
Flags: W
LayerCount: 2
Fore
SplineSet
421 636 m 1,0,-1
 421 601 l 1,1,-1
 110 601 l 1,2,-1
 110 636 l 1,3,-1
 421 636 l 1,0,-1
EndSplineSet
EndChar

StartChar: degree
Encoding: 176 176 114
Width: 405
GlyphClass: 2
Flags: W
LayerCount: 2
Fore
SplineSet
203 377 m 128,-1,1
 137 377 137 377 96 417.5 c 128,-1,2
 55 458 55 458 55 523 c 128,-1,3
 55 588 55 588 96 629 c 128,-1,4
 137 670 137 670 203 670 c 128,-1,5
 269 670 269 670 310 629 c 128,-1,6
 351 588 351 588 351 523 c 128,-1,7
 351 458 351 458 310 417.5 c 128,-1,0
 269 377 269 377 203 377 c 128,-1,1
203 410 m 0,8,9
 252 410 252 410 283 441.5 c 128,-1,10
 314 473 314 473 314 523 c 128,-1,11
 314 573 314 573 283 604.5 c 128,-1,12
 252 636 252 636 203 636 c 0,13,14
 153 636 153 636 122.5 604.5 c 128,-1,15
 92 573 92 573 92 523 c 128,-1,16
 92 473 92 473 122.5 441.5 c 128,-1,17
 153 410 153 410 203 410 c 0,8,9
EndSplineSet
EndChar

StartChar: plusminus
Encoding: 177 177 115
Width: 604
GlyphClass: 2
Flags: W
LayerCount: 2
Fore
SplineSet
322 397 m 1,0,-1
 534 397 l 1,1,-1
 534 360 l 1,2,-1
 322 360 l 1,3,-1
 322 125 l 1,4,-1
 283 125 l 1,5,-1
 283 360 l 1,6,-1
 70 360 l 1,7,-1
 70 397 l 1,8,-1
 283 397 l 1,9,-1
 283 629 l 1,10,-1
 322 629 l 1,11,-1
 322 397 l 1,0,-1
70 0 m 1,12,-1
 70 38 l 1,13,-1
 534 38 l 1,14,-1
 534 0 l 1,15,-1
 70 0 l 1,12,-1
EndSplineSet
EndChar

StartChar: uni00B2
Encoding: 178 178 116
Width: 343
GlyphClass: 2
Flags: W
LayerCount: 2
Fore
SplineSet
38 333 m 1,0,-1
 38 361 l 1,1,2
 108 417 108 417 143 446 c 0,3,4
 203 496 203 496 232 534 c 128,-1,5
 261 572 261 572 261 612 c 0,6,7
 261 654 261 654 235.5 679 c 128,-1,8
 210 704 210 704 166 704 c 0,9,10
 120 704 120 704 92.5 676 c 128,-1,11
 65 648 65 648 63 599 c 1,12,-1
 29 610 l 1,13,14
 34 667 34 667 70.5 701 c 128,-1,15
 107 735 107 735 167 735 c 0,16,17
 229 735 229 735 264.5 701 c 128,-1,18
 300 667 300 667 300 613 c 0,19,20
 300 530 300 530 169 429 c 0,21,22
 157 420 157 420 129.5 397.5 c 128,-1,23
 102 375 102 375 87 364 c 1,24,-1
 87 363 l 1,25,-1
 128 364 l 1,26,-1
 313 364 l 1,27,-1
 313 333 l 1,28,-1
 38 333 l 1,0,-1
EndSplineSet
EndChar

StartChar: uni00B3
Encoding: 179 179 117
Width: 328
GlyphClass: 2
Flags: W
LayerCount: 2
Fore
SplineSet
157 735 m 0,0,1
 215 735 215 735 248 705.5 c 128,-1,2
 281 676 281 676 281 629 c 0,3,4
 281 591 281 591 260 566 c 128,-1,5
 239 541 239 541 206 534 c 1,6,-1
 206 532 l 1,7,8
 242 529 242 529 266.5 503.5 c 128,-1,9
 291 478 291 478 291 439 c 0,10,11
 291 388 291 388 253 357.5 c 128,-1,12
 215 327 215 327 156 327 c 0,13,14
 46 327 46 327 18 420 c 1,15,-1
 52 437 l 1,16,17
 68 358 68 358 157 358 c 0,18,19
 200 358 200 358 226.5 380.5 c 128,-1,20
 253 403 253 403 253 442 c 0,21,22
 253 478 253 478 229 498 c 128,-1,23
 205 518 205 518 160 518 c 2,24,-1
 135 518 l 1,25,-1
 135 546 l 1,26,-1
 159 546 l 2,27,28
 199 546 199 546 221 568 c 128,-1,29
 243 590 243 590 243 625 c 0,30,31
 243 662 243 662 220 683 c 128,-1,32
 197 704 197 704 156 704 c 0,33,34
 79 704 79 704 64 636 c 1,35,-1
 30 649 l 1,36,37
 41 690 41 690 75 712.5 c 128,-1,38
 109 735 109 735 157 735 c 0,0,1
EndSplineSet
EndChar

StartChar: acute
Encoding: 180 180 118
Width: 530
GlyphClass: 2
Flags: W
LayerCount: 2
Fore
SplineSet
343 738 m 1,0,-1
 387 738 l 1,1,-1
 296 583 l 1,2,-1
 261 583 l 1,3,-1
 343 738 l 1,0,-1
EndSplineSet
EndChar

StartChar: uni00B5
Encoding: 181 181 119
Width: 573
GlyphClass: 2
Flags: W
LayerCount: 2
Fore
SplineSet
453 500 m 1,0,-1
 494 500 l 1,1,-1
 494 0 l 1,2,-1
 459 0 l 1,3,-1
 456 108 l 1,4,5
 433 53 433 53 381.5 21.5 c 128,-1,6
 330 -10 330 -10 258 -10 c 0,7,8
 161 -10 161 -10 120 67 c 1,9,-1
 120 -210 l 1,10,-1
 79 -210 l 1,11,-1
 79 500 l 1,12,-1
 120 500 l 1,13,-1
 120 179 l 2,14,15
 120 103 120 103 159 64.5 c 128,-1,16
 198 26 198 26 265 26 c 0,17,18
 344 26 344 26 396.5 74 c 128,-1,19
 449 122 449 122 453 193 c 1,20,-1
 453 500 l 1,0,-1
EndSplineSet
EndChar

StartChar: paragraph
Encoding: 182 182 120
Width: 571
GlyphClass: 2
Flags: W
LayerCount: 2
Fore
SplineSet
486 660 m 1,0,-1
 486 -100 l 1,1,-1
 449 -100 l 1,2,-1
 449 625 l 1,3,-1
 314 625 l 1,4,-1
 314 -100 l 1,5,-1
 276 -100 l 1,6,-1
 276 229 l 1,7,8
 167 229 167 229 100.5 288.5 c 128,-1,9
 34 348 34 348 34 445 c 128,-1,10
 34 542 34 542 101.5 601 c 128,-1,11
 169 660 169 660 281 660 c 2,12,-1
 486 660 l 1,0,-1
276 625 m 1,13,14
 183 625 183 625 128.5 576 c 128,-1,15
 74 527 74 527 74 445 c 0,16,17
 74 362 74 362 128 313 c 128,-1,18
 182 264 182 264 276 264 c 1,19,-1
 276 625 l 1,13,14
EndSplineSet
Substitution2: "'ornm' Ornaments lookup 40 subtable" uni2761
Substitution2: "'aalt' Access All Alternates lookup 0 subtable" uni2761
EndChar

StartChar: periodcentered
Encoding: 183 183 121
Width: 205
GlyphClass: 2
Flags: W
LayerCount: 2
Fore
SplineSet
103 397 m 0,0,1
 120 397 120 397 130.5 386 c 128,-1,2
 141 375 141 375 141 358 c 128,-1,3
 141 341 141 341 130.5 330 c 128,-1,4
 120 319 120 319 103 319 c 0,5,6
 85 319 85 319 74.5 330 c 128,-1,7
 64 341 64 341 64 358 c 128,-1,8
 64 375 64 375 74.5 386 c 128,-1,9
 85 397 85 397 103 397 c 0,0,1
EndSplineSet
Substitution2: "Single Substitution lookup 55 subtable" periodcentered.loclCAT.sc
Substitution2: "Single Substitution lookup 54 subtable" periodcentered.loclCAT.case
Substitution2: "Single Substitution lookup 53 subtable" periodcentered.loclCAT
Substitution2: "'case' Case-Sensitive Forms lookup 29 subtable" periodcentered.case
Substitution2: "'smcp' Lowercase to Small Capitals lookup 12 subtable" periodcentered.sc
Substitution2: "'c2sc' Capitals to Small Capitals lookup 11 subtable" periodcentered.sc
AlternateSubs2: "'aalt' Access All Alternates lookup 1 subtable" periodcentered.sc periodcentered.case
Position2: "Single Positioning lookup 6 subtable" dx=0 dy=0 dh=-30 dv=0
EndChar

StartChar: cedilla
Encoding: 184 184 122
Width: 530
GlyphClass: 2
Flags: W
LayerCount: 2
Fore
SplineSet
233 3 m 1,0,-1
 263 13 l 1,1,2
 377 -32 377 -32 377 -114 c 0,3,4
 377 -154 377 -154 350 -180.5 c 128,-1,5
 323 -207 323 -207 278 -207 c 0,6,7
 212 -207 212 -207 178 -168 c 1,8,-1
 194 -139 l 1,9,10
 225 -176 225 -176 274 -176 c 0,11,12
 303 -176 303 -176 321.5 -158 c 128,-1,13
 340 -140 340 -140 340 -110 c 0,14,15
 340 -77 340 -77 317.5 -52.5 c 128,-1,16
 295 -28 295 -28 233 3 c 1,0,-1
EndSplineSet
EndChar

StartChar: uni00B9
Encoding: 185 185 123
Width: 213
GlyphClass: 2
Flags: W
LayerCount: 2
Fore
SplineSet
125 730 m 1,0,-1
 157 730 l 1,1,-1
 157 333 l 1,2,-1
 120 333 l 1,3,-1
 120 620 l 2,4,5
 120 664 120 664 122 687 c 1,6,7
 79 639 79 639 11 619 c 1,8,-1
 11 651 l 1,9,10
 41 659 41 659 75.5 682 c 128,-1,11
 110 705 110 705 125 730 c 1,0,-1
EndSplineSet
EndChar

StartChar: ordmasculine
Encoding: 186 186 124
Width: 356
GlyphClass: 2
Flags: W
LayerCount: 2
Fore
SplineSet
178 327 m 128,-1,1
 32 327 32 327 32 496 c 128,-1,2
 32 665 32 665 178 665 c 128,-1,3
 324 665 324 665 324 496 c 128,-1,0
 324 327 324 327 178 327 c 128,-1,1
178 357 m 128,-1,5
 287 357 287 357 287 496 c 128,-1,6
 287 635 287 635 178 635 c 128,-1,7
 69 635 69 635 69 496 c 128,-1,4
 69 357 69 357 178 357 c 128,-1,5
41 214 m 1,8,-1
 41 244 l 1,9,-1
 315 244 l 1,10,-1
 315 214 l 1,11,-1
 41 214 l 1,8,-1
EndSplineSet
EndChar

StartChar: guillemotright
Encoding: 187 187 125
Width: 421
GlyphClass: 2
Flags: W
LayerCount: 2
Fore
SplineSet
48 461 m 1,0,-1
 95 461 l 1,1,-1
 232 265 l 1,2,-1
 95 69 l 1,3,-1
 48 69 l 1,4,-1
 187 265 l 1,5,-1
 48 461 l 1,0,-1
189 461 m 1,6,-1
 236 461 l 1,7,-1
 373 265 l 1,8,-1
 236 69 l 1,9,-1
 189 69 l 1,10,-1
 327 265 l 1,11,-1
 189 461 l 1,6,-1
EndSplineSet
Substitution2: "'case' Case-Sensitive Forms lookup 29 subtable" guillemotright.case
Substitution2: "'aalt' Access All Alternates lookup 0 subtable" guillemotright.case
EndChar

StartChar: onequarter
Encoding: 188 188 126
Width: 695
GlyphClass: 2
Flags: W
LayerCount: 2
Fore
SplineSet
122 622 m 1,0,1
 79 574 79 574 11 554 c 1,2,-1
 11 586 l 1,3,4
 41 594 41 594 75.5 617 c 128,-1,5
 110 640 110 640 125 665 c 1,6,-1
 157 665 l 1,7,-1
 157 268 l 1,8,-1
 120 268 l 1,9,-1
 120 555 l 2,10,11
 120 576 120 576 122 622 c 1,0,1
537 660 m 1,12,-1
 579 660 l 1,13,-1
 109 0 l 1,14,-1
 67 0 l 1,15,-1
 537 660 l 1,12,-1
598 136 m 1,16,-1
 675 136 l 1,17,-1
 675 108 l 1,18,-1
 598 108 l 1,19,-1
 598 -4 l 1,20,-1
 565 -4 l 1,21,-1
 565 108 l 1,22,-1
 367 108 l 1,23,-1
 367 131 l 1,24,-1
 555 393 l 1,25,-1
 598 393 l 1,26,-1
 598 136 l 1,16,-1
565 305 m 2,27,28
 565 342 565 342 566 361 c 1,29,-1
 564 361 l 1,30,31
 546 331 546 331 532 312 c 2,32,-1
 404 136 l 1,33,-1
 565 136 l 1,34,-1
 565 305 l 2,27,28
EndSplineSet
EndChar

StartChar: onehalf
Encoding: 189 189 127
Width: 776
GlyphClass: 2
Flags: W
LayerCount: 2
Fore
SplineSet
122 622 m 1,0,1
 79 574 79 574 11 554 c 1,2,-1
 11 586 l 1,3,4
 41 594 41 594 75.5 617 c 128,-1,5
 110 640 110 640 125 665 c 1,6,-1
 157 665 l 1,7,-1
 157 268 l 1,8,-1
 120 268 l 1,9,-1
 120 555 l 2,10,11
 120 576 120 576 122 622 c 1,0,1
537 660 m 1,12,-1
 579 660 l 1,13,-1
 109 0 l 1,14,-1
 67 0 l 1,15,-1
 537 660 l 1,12,-1
561 27 m 1,16,-1
 746 27 l 1,17,-1
 746 -4 l 1,18,-1
 471 -4 l 1,19,-1
 471 24 l 1,20,21
 541 80 541 80 576 109 c 0,22,23
 636 159 636 159 665 197 c 128,-1,24
 694 235 694 235 694 275 c 0,25,26
 694 317 694 317 668.5 342 c 128,-1,27
 643 367 643 367 599 367 c 0,28,29
 553 367 553 367 525.5 339 c 128,-1,30
 498 311 498 311 496 262 c 1,31,-1
 462 273 l 1,32,33
 467 330 467 330 503.5 364 c 128,-1,34
 540 398 540 398 600 398 c 0,35,36
 662 398 662 398 697.5 364 c 128,-1,37
 733 330 733 330 733 276 c 0,38,39
 733 193 733 193 602 92 c 0,40,41
 590 83 590 83 562.5 60.5 c 128,-1,42
 535 38 535 38 520 27 c 1,43,-1
 520 26 l 1,44,-1
 561 27 l 1,16,-1
EndSplineSet
EndChar

StartChar: threequarters
Encoding: 190 190 128
Width: 810
GlyphClass: 2
Flags: W
LayerCount: 2
Fore
SplineSet
157 670 m 0,0,1
 215 670 215 670 248 640.5 c 128,-1,2
 281 611 281 611 281 564 c 0,3,4
 281 526 281 526 260 501 c 128,-1,5
 239 476 239 476 206 469 c 1,6,-1
 206 467 l 1,7,8
 242 464 242 464 266.5 438.5 c 128,-1,9
 291 413 291 413 291 374 c 0,10,11
 291 323 291 323 253 292.5 c 128,-1,12
 215 262 215 262 156 262 c 0,13,14
 46 262 46 262 18 355 c 1,15,-1
 52 372 l 1,16,17
 68 293 68 293 157 293 c 0,18,19
 200 293 200 293 226.5 315.5 c 128,-1,20
 253 338 253 338 253 377 c 0,21,22
 253 413 253 413 229 433 c 128,-1,23
 205 453 205 453 160 453 c 2,24,-1
 135 453 l 1,25,-1
 135 481 l 1,26,-1
 159 481 l 2,27,28
 199 481 199 481 221 503 c 128,-1,29
 243 525 243 525 243 560 c 0,30,31
 243 597 243 597 220 618 c 128,-1,32
 197 639 197 639 156 639 c 0,33,34
 79 639 79 639 64 571 c 1,35,-1
 30 584 l 1,36,37
 41 625 41 625 75 647.5 c 128,-1,38
 109 670 109 670 157 670 c 0,0,1
182 0 m 1,39,-1
 652 660 l 1,40,-1
 694 660 l 1,41,-1
 224 0 l 1,42,-1
 182 0 l 1,39,-1
791 136 m 1,43,-1
 791 108 l 1,44,-1
 714 108 l 1,45,-1
 714 -4 l 1,46,-1
 681 -4 l 1,47,-1
 681 108 l 1,48,-1
 483 108 l 1,49,-1
 483 131 l 1,50,-1
 671 393 l 1,51,-1
 714 393 l 1,52,-1
 714 136 l 1,53,-1
 791 136 l 1,43,-1
520 136 m 1,54,-1
 681 136 l 1,55,-1
 681 305 l 2,56,57
 681 342 681 342 682 361 c 1,58,-1
 680 361 l 1,59,60
 662 331 662 331 648 312 c 2,61,-1
 520 136 l 1,54,-1
EndSplineSet
EndChar

StartChar: questiondown
Encoding: 191 191 129
Width: 496
GlyphClass: 2
Flags: W
LayerCount: 2
Fore
SplineSet
258 426 m 128,-1,1
 241 426 241 426 230.5 437 c 128,-1,2
 220 448 220 448 220 465 c 128,-1,3
 220 482 220 482 230.5 493 c 128,-1,4
 241 504 241 504 258 504 c 128,-1,5
 275 504 275 504 286 493 c 128,-1,6
 297 482 297 482 297 465 c 128,-1,7
 297 448 297 448 286 437 c 128,-1,0
 275 426 275 426 258 426 c 128,-1,1
243 -173 m 0,8,9
 154 -173 154 -173 98 -127.5 c 128,-1,10
 42 -82 42 -82 42 -4 c 0,11,12
 42 158 42 158 236 203 c 1,13,-1
 236 324 l 1,14,-1
 278 324 l 1,15,-1
 278 180 l 1,16,17
 171 154 171 154 128 113 c 128,-1,18
 85 72 85 72 85 0 c 0,19,20
 85 -62 85 -62 128.5 -98.5 c 128,-1,21
 172 -135 172 -135 246 -135 c 0,22,23
 407 -135 407 -135 428 16 c 1,24,-1
 464 -4 l 1,25,26
 449 -84 449 -84 394 -128.5 c 128,-1,27
 339 -173 339 -173 243 -173 c 0,8,9
EndSplineSet
Substitution2: "'case' Case-Sensitive Forms lookup 29 subtable" questiondown.case
Substitution2: "'smcp' Lowercase to Small Capitals lookup 12 subtable" questiondown.sc
Substitution2: "'c2sc' Capitals to Small Capitals lookup 11 subtable" questiondown.sc
AlternateSubs2: "'aalt' Access All Alternates lookup 1 subtable" questiondown.sc questiondown.case
EndChar

StartChar: Agrave
Encoding: 192 192 130
Width: 615
GlyphClass: 2
Flags: W
LayerCount: 2
Fore
SplineSet
319 743 m 1,0,-1
 284 743 l 1,1,-1
 203 891 l 1,2,-1
 251 891 l 1,3,-1
 319 743 l 1,0,-1
554 0 m 1,4,-1
 468 214 l 1,5,-1
 147 214 l 1,6,-1
 61 0 l 1,7,-1
 17 0 l 1,8,-1
 284 660 l 1,9,-1
 332 660 l 1,10,-1
 597 0 l 1,11,-1
 554 0 l 1,4,-1
162 252 m 1,12,-1
 452 252 l 1,13,-1
 330 555 l 1,14,-1
 307 619 l 1,15,-1
 285 557 l 1,16,-1
 162 252 l 1,12,-1
EndSplineSet
Substitution2: "Single Substitution lookup 56 subtable" Agrave.swsh
Substitution2: "'swsh' Swash lookup 32 subtable" Agrave.swsh
Substitution2: "'c2sc' Capitals to Small Capitals lookup 11 subtable" agrave.sc
AlternateSubs2: "'aalt' Access All Alternates lookup 1 subtable" agrave.sc Agrave.swsh
EndChar

StartChar: Aacute
Encoding: 193 193 131
Width: 615
GlyphClass: 2
Flags: W
LayerCount: 2
Fore
SplineSet
406 891 m 1,0,-1
 325 743 l 1,1,-1
 290 743 l 1,2,-1
 358 891 l 1,3,-1
 406 891 l 1,0,-1
554 0 m 1,4,-1
 468 214 l 1,5,-1
 147 214 l 1,6,-1
 61 0 l 1,7,-1
 17 0 l 1,8,-1
 284 660 l 1,9,-1
 332 660 l 1,10,-1
 597 0 l 1,11,-1
 554 0 l 1,4,-1
162 252 m 1,12,-1
 452 252 l 1,13,-1
 330 555 l 1,14,-1
 307 619 l 1,15,-1
 285 557 l 1,16,-1
 162 252 l 1,12,-1
EndSplineSet
Substitution2: "Single Substitution lookup 56 subtable" Aacute.swsh
Substitution2: "'swsh' Swash lookup 32 subtable" Aacute.swsh
Substitution2: "'c2sc' Capitals to Small Capitals lookup 11 subtable" aacute.sc
AlternateSubs2: "'aalt' Access All Alternates lookup 1 subtable" aacute.sc Aacute.swsh
EndChar

StartChar: Acircumflex
Encoding: 194 194 132
Width: 615
GlyphClass: 2
Flags: W
LayerCount: 2
Fore
SplineSet
307 864 m 1,0,-1
 211 740 l 1,1,-1
 172 740 l 1,2,-1
 283 892 l 1,3,-1
 331 892 l 1,4,-1
 442 740 l 1,5,-1
 403 740 l 1,6,-1
 307 864 l 1,0,-1
554 0 m 1,7,-1
 468 214 l 1,8,-1
 147 214 l 1,9,-1
 61 0 l 1,10,-1
 17 0 l 1,11,-1
 284 660 l 1,12,-1
 332 660 l 1,13,-1
 597 0 l 1,14,-1
 554 0 l 1,7,-1
162 252 m 1,15,-1
 452 252 l 1,16,-1
 330 555 l 1,17,-1
 307 619 l 1,18,-1
 285 557 l 1,19,-1
 162 252 l 1,15,-1
EndSplineSet
Substitution2: "Single Substitution lookup 56 subtable" Acircumflex.swsh
Substitution2: "'swsh' Swash lookup 32 subtable" Acircumflex.swsh
Substitution2: "'c2sc' Capitals to Small Capitals lookup 11 subtable" acircumflex.sc
AlternateSubs2: "'aalt' Access All Alternates lookup 1 subtable" acircumflex.sc Acircumflex.swsh
EndChar

StartChar: Atilde
Encoding: 195 195 133
Width: 615
GlyphClass: 2
Flags: W
LayerCount: 2
Fore
SplineSet
235 821 m 0,0,1
 207 821 207 821 194 804.5 c 128,-1,2
 181 788 181 788 174 752 c 1,3,-1
 140 752 l 1,4,5
 148 805 148 805 170.5 830 c 128,-1,6
 193 855 193 855 236 855 c 0,7,8
 268 855 268 855 291.5 838 c 128,-1,9
 315 821 315 821 335 804 c 128,-1,10
 355 787 355 787 378 787 c 0,11,12
 406 787 406 787 420 804 c 128,-1,13
 434 821 434 821 440 856 c 1,14,-1
 474 856 l 1,15,16
 461 753 461 753 379 753 c 0,17,18
 346 753 346 753 322.5 770 c 128,-1,19
 299 787 299 787 279 804 c 128,-1,20
 259 821 259 821 235 821 c 0,0,1
554 0 m 1,21,-1
 468 214 l 1,22,-1
 147 214 l 1,23,-1
 61 0 l 1,24,-1
 17 0 l 1,25,-1
 284 660 l 1,26,-1
 332 660 l 1,27,-1
 597 0 l 1,28,-1
 554 0 l 1,21,-1
162 252 m 1,29,-1
 452 252 l 1,30,-1
 330 555 l 1,31,-1
 307 619 l 1,32,-1
 285 557 l 1,33,-1
 162 252 l 1,29,-1
EndSplineSet
Substitution2: "Single Substitution lookup 56 subtable" Atilde.swsh
Substitution2: "'swsh' Swash lookup 32 subtable" Atilde.swsh
Substitution2: "'c2sc' Capitals to Small Capitals lookup 11 subtable" atilde.sc
AlternateSubs2: "'aalt' Access All Alternates lookup 1 subtable" atilde.sc Atilde.swsh
EndChar

StartChar: Adieresis
Encoding: 196 196 134
Width: 615
GlyphClass: 2
Flags: W
LayerCount: 2
Fore
SplineSet
212 752 m 128,-1,1
 196 752 196 752 186.5 761.5 c 128,-1,2
 177 771 177 771 177 787 c 128,-1,3
 177 803 177 803 186.5 813 c 128,-1,4
 196 823 196 823 212 823 c 128,-1,5
 228 823 228 823 238 813.5 c 128,-1,6
 248 804 248 804 248 787 c 0,7,8
 248 771 248 771 238 761.5 c 128,-1,0
 228 752 228 752 212 752 c 128,-1,1
400 752 m 128,-1,10
 384 752 384 752 374.5 761.5 c 128,-1,11
 365 771 365 771 365 787 c 128,-1,12
 365 803 365 803 374.5 813 c 128,-1,13
 384 823 384 823 400 823 c 128,-1,14
 416 823 416 823 426 813.5 c 128,-1,15
 436 804 436 804 436 787 c 0,16,17
 436 771 436 771 426 761.5 c 128,-1,9
 416 752 416 752 400 752 c 128,-1,10
554 0 m 1,18,-1
 468 214 l 1,19,-1
 147 214 l 1,20,-1
 61 0 l 1,21,-1
 17 0 l 1,22,-1
 284 660 l 1,23,-1
 332 660 l 1,24,-1
 597 0 l 1,25,-1
 554 0 l 1,18,-1
162 252 m 1,26,-1
 452 252 l 1,27,-1
 330 555 l 1,28,-1
 307 619 l 1,29,-1
 285 557 l 1,30,-1
 162 252 l 1,26,-1
EndSplineSet
Substitution2: "Single Substitution lookup 56 subtable" Adieresis.swsh
Substitution2: "'titl' Titling lookup 41 subtable" Adieresis.titl
Substitution2: "'swsh' Swash lookup 32 subtable" Adieresis.swsh
Substitution2: "'c2sc' Capitals to Small Capitals lookup 11 subtable" adieresis.sc
AlternateSubs2: "'aalt' Access All Alternates lookup 1 subtable" adieresis.sc Adieresis.swsh Adieresis.titl
EndChar

StartChar: Aring
Encoding: 197 197 135
Width: 615
GlyphClass: 2
Flags: W
LayerCount: 2
Fore
SplineSet
554 0 m 1,0,-1
 468 214 l 1,1,-1
 147 214 l 1,2,-1
 61 0 l 1,3,-1
 17 0 l 1,4,-1
 275 639 l 1,5,6
 215 657 215 657 215 723 c 0,7,8
 215 763 215 763 240.5 787.5 c 128,-1,9
 266 812 266 812 308 812 c 0,10,11
 349 812 349 812 375 787.5 c 128,-1,12
 401 763 401 763 401 723 c 0,13,14
 401 658 401 658 340 638 c 1,15,-1
 597 0 l 1,16,-1
 554 0 l 1,0,-1
246 723 m 128,-1,18
 246 696 246 696 263 679 c 128,-1,19
 280 662 280 662 307 662 c 0,20,21
 335 662 335 662 352 679 c 128,-1,22
 369 696 369 696 369 723 c 128,-1,23
 369 750 369 750 352 767 c 128,-1,24
 335 784 335 784 307 784 c 0,25,26
 280 784 280 784 263 767 c 128,-1,17
 246 750 246 750 246 723 c 128,-1,18
162 252 m 1,27,-1
 452 252 l 1,28,-1
 330 555 l 1,29,-1
 307 619 l 1,30,-1
 285 557 l 1,31,-1
 162 252 l 1,27,-1
EndSplineSet
Substitution2: "'c2sc' Capitals to Small Capitals lookup 11 subtable" aring.sc
Substitution2: "'aalt' Access All Alternates lookup 0 subtable" aring.sc
EndChar

StartChar: AE
Encoding: 198 198 136
Width: 912
GlyphClass: 2
Flags: W
LayerCount: 2
Fore
SplineSet
484 38 m 1,0,-1
 873 38 l 1,1,-1
 873 0 l 1,2,-1
 443 0 l 1,3,-1
 443 238 l 1,4,-1
 190 238 l 1,5,-1
 45 0 l 1,6,-1
 -3 0 l 1,7,-1
 404 660 l 1,8,-1
 858 660 l 1,9,-1
 858 622 l 1,10,-1
 484 622 l 1,11,-1
 484 354 l 1,12,-1
 778 354 l 1,13,-1
 778 316 l 1,14,-1
 484 316 l 1,15,-1
 484 38 l 1,0,-1
213 276 m 1,16,-1
 443 276 l 1,17,-1
 443 622 l 1,18,-1
 424 622 l 1,19,-1
 213 276 l 1,16,-1
EndSplineSet
Substitution2: "'c2sc' Capitals to Small Capitals lookup 11 subtable" ae.sc
Substitution2: "'aalt' Access All Alternates lookup 0 subtable" ae.sc
EndChar

StartChar: Ccedilla
Encoding: 199 199 137
Width: 663
GlyphClass: 2
Flags: W
LayerCount: 2
Fore
SplineSet
622 167 m 1,0,1
 597 89 597 89 535 43.5 c 128,-1,2
 473 -2 473 -2 386 -9 c 1,3,4
 455 -50 455 -50 455 -114 c 0,5,6
 455 -154 455 -154 428 -180.5 c 128,-1,7
 401 -207 401 -207 356 -207 c 0,8,9
 290 -207 290 -207 256 -168 c 1,10,-1
 272 -139 l 1,11,12
 303 -176 303 -176 352 -176 c 0,13,14
 381 -176 381 -176 399.5 -158 c 128,-1,15
 418 -140 418 -140 418 -110 c 128,-1,16
 418 -80 418 -80 400.5 -58 c 128,-1,17
 383 -36 383 -36 334 -9 c 1,18,19
 209 -1 209 -1 135 90 c 128,-1,20
 61 181 61 181 61 330 c 0,21,22
 61 486 61 486 142 578 c 128,-1,23
 223 670 223 670 358 670 c 0,24,25
 558 670 558 670 614 504 c 1,26,-1
 574 485 l 1,27,28
 528 632 528 632 360 632 c 0,29,30
 244 632 244 632 173.5 550.5 c 128,-1,31
 103 469 103 469 103 330 c 128,-1,32
 103 191 103 191 173 109.5 c 128,-1,33
 243 28 243 28 359 28 c 0,34,35
 443 28 443 28 501 68 c 128,-1,36
 559 108 559 108 581 182 c 1,37,-1
 622 167 l 1,0,1
EndSplineSet
Substitution2: "'c2sc' Capitals to Small Capitals lookup 11 subtable" ccedilla.sc
Substitution2: "'aalt' Access All Alternates lookup 0 subtable" ccedilla.sc
EndChar

StartChar: Egrave
Encoding: 200 200 138
Width: 604
GlyphClass: 2
Flags: W
AnchorPoint: "Anchor-0" 326 0 basechar 0
LayerCount: 2
Fore
SplineSet
355 743 m 1,0,-1
 320 743 l 1,1,-1
 239 891 l 1,2,-1
 287 891 l 1,3,-1
 355 743 l 1,0,-1
144 38 m 1,4,-1
 566 38 l 1,5,-1
 566 0 l 1,6,-1
 103 0 l 1,7,-1
 103 660 l 1,8,-1
 550 660 l 1,9,-1
 550 622 l 1,10,-1
 144 622 l 1,11,-1
 144 355 l 1,12,-1
 466 355 l 1,13,-1
 466 317 l 1,14,-1
 144 317 l 1,15,-1
 144 38 l 1,4,-1
EndSplineSet
Substitution2: "Single Substitution lookup 57 subtable" Egrave.swsh.001
Substitution2: "Single Substitution lookup 56 subtable" Egrave.swsh
AlternateSubs2: "'swsh' Swash lookup 33 subtable" Egrave.swsh Egrave.swsh.001
Substitution2: "'c2sc' Capitals to Small Capitals lookup 11 subtable" egrave.sc
AlternateSubs2: "'aalt' Access All Alternates lookup 1 subtable" egrave.sc Egrave.swsh Egrave.swsh.001
EndChar

StartChar: Eacute
Encoding: 201 201 139
Width: 604
GlyphClass: 2
Flags: W
AnchorPoint: "Anchor-0" 326 0 basechar 0
LayerCount: 2
Fore
SplineSet
418 891 m 1,0,-1
 337 743 l 1,1,-1
 302 743 l 1,2,-1
 370 891 l 1,3,-1
 418 891 l 1,0,-1
144 38 m 1,4,-1
 566 38 l 1,5,-1
 566 0 l 1,6,-1
 103 0 l 1,7,-1
 103 660 l 1,8,-1
 550 660 l 1,9,-1
 550 622 l 1,10,-1
 144 622 l 1,11,-1
 144 355 l 1,12,-1
 466 355 l 1,13,-1
 466 317 l 1,14,-1
 144 317 l 1,15,-1
 144 38 l 1,4,-1
EndSplineSet
Substitution2: "Single Substitution lookup 57 subtable" Eacute.swsh.001
Substitution2: "Single Substitution lookup 56 subtable" Eacute.swsh
AlternateSubs2: "'swsh' Swash lookup 33 subtable" Eacute.swsh Eacute.swsh.001
Substitution2: "'c2sc' Capitals to Small Capitals lookup 11 subtable" eacute.sc
AlternateSubs2: "'aalt' Access All Alternates lookup 1 subtable" eacute.sc Eacute.swsh Eacute.swsh.001
EndChar

StartChar: Ecircumflex
Encoding: 202 202 140
Width: 604
GlyphClass: 2
Flags: W
AnchorPoint: "Anchor-0" 326 0 basechar 0
LayerCount: 2
Fore
SplineSet
326 864 m 1,0,-1
 230 740 l 1,1,-1
 191 740 l 1,2,-1
 302 892 l 1,3,-1
 350 892 l 1,4,-1
 461 740 l 1,5,-1
 422 740 l 1,6,-1
 326 864 l 1,0,-1
144 38 m 1,7,-1
 566 38 l 1,8,-1
 566 0 l 1,9,-1
 103 0 l 1,10,-1
 103 660 l 1,11,-1
 550 660 l 1,12,-1
 550 622 l 1,13,-1
 144 622 l 1,14,-1
 144 355 l 1,15,-1
 466 355 l 1,16,-1
 466 317 l 1,17,-1
 144 317 l 1,18,-1
 144 38 l 1,7,-1
EndSplineSet
Substitution2: "Single Substitution lookup 57 subtable" Ecircumflex.swsh.001
Substitution2: "Single Substitution lookup 56 subtable" Ecircumflex.swsh
AlternateSubs2: "'swsh' Swash lookup 33 subtable" Ecircumflex.swsh Ecircumflex.swsh.001
Substitution2: "'c2sc' Capitals to Small Capitals lookup 11 subtable" ecircumflex.sc
AlternateSubs2: "'aalt' Access All Alternates lookup 1 subtable" ecircumflex.sc Ecircumflex.swsh Ecircumflex.swsh.001
EndChar

StartChar: Edieresis
Encoding: 203 203 141
Width: 604
GlyphClass: 2
Flags: W
AnchorPoint: "Anchor-0" 326 0 basechar 0
LayerCount: 2
Fore
SplineSet
231 752 m 128,-1,1
 215 752 215 752 205.5 761.5 c 128,-1,2
 196 771 196 771 196 787 c 128,-1,3
 196 803 196 803 205.5 813 c 128,-1,4
 215 823 215 823 231 823 c 0,5,6
 248 823 248 823 257.5 813.5 c 128,-1,7
 267 804 267 804 267 787 c 0,8,9
 267 771 267 771 257 761.5 c 128,-1,0
 247 752 247 752 231 752 c 128,-1,1
419 752 m 128,-1,11
 403 752 403 752 393.5 761.5 c 128,-1,12
 384 771 384 771 384 787 c 128,-1,13
 384 803 384 803 393.5 813 c 128,-1,14
 403 823 403 823 419 823 c 0,15,16
 436 823 436 823 445.5 813.5 c 128,-1,17
 455 804 455 804 455 787 c 0,18,19
 455 771 455 771 445 761.5 c 128,-1,10
 435 752 435 752 419 752 c 128,-1,11
144 38 m 1,20,-1
 566 38 l 1,21,-1
 566 0 l 1,22,-1
 103 0 l 1,23,-1
 103 660 l 1,24,-1
 550 660 l 1,25,-1
 550 622 l 1,26,-1
 144 622 l 1,27,-1
 144 355 l 1,28,-1
 466 355 l 1,29,-1
 466 317 l 1,30,-1
 144 317 l 1,31,-1
 144 38 l 1,20,-1
EndSplineSet
Substitution2: "Single Substitution lookup 57 subtable" Edieresis.swsh.001
Substitution2: "Single Substitution lookup 56 subtable" Edieresis.swsh
AlternateSubs2: "'swsh' Swash lookup 33 subtable" Edieresis.swsh Edieresis.swsh.001
Substitution2: "'c2sc' Capitals to Small Capitals lookup 11 subtable" edieresis.sc
AlternateSubs2: "'aalt' Access All Alternates lookup 1 subtable" edieresis.sc Edieresis.swsh Edieresis.swsh.001
EndChar

StartChar: Igrave
Encoding: 204 204 142
Width: 246
GlyphClass: 2
Flags: W
LayerCount: 2
Fore
SplineSet
67 891 m 1,0,-1
 135 743 l 1,1,-1
 100 743 l 1,2,-1
 19 891 l 1,3,-1
 67 891 l 1,0,-1
144 660 m 1,4,-1
 144 0 l 1,5,-1
 103 0 l 1,6,-1
 103 660 l 1,7,-1
 144 660 l 1,4,-1
EndSplineSet
Substitution2: "'c2sc' Capitals to Small Capitals lookup 11 subtable" igrave.sc
Substitution2: "'aalt' Access All Alternates lookup 0 subtable" igrave.sc
EndChar

StartChar: Iacute
Encoding: 205 205 143
Width: 246
GlyphClass: 2
Flags: W
LayerCount: 2
Fore
SplineSet
174 891 m 1,0,-1
 222 891 l 1,1,-1
 141 743 l 1,2,-1
 106 743 l 1,3,-1
 174 891 l 1,0,-1
144 660 m 1,4,-1
 144 0 l 1,5,-1
 103 0 l 1,6,-1
 103 660 l 1,7,-1
 144 660 l 1,4,-1
EndSplineSet
Substitution2: "'c2sc' Capitals to Small Capitals lookup 11 subtable" iacute.sc
Substitution2: "'aalt' Access All Alternates lookup 0 subtable" iacute.sc
EndChar

StartChar: Icircumflex
Encoding: 206 206 144
Width: 246
GlyphClass: 2
Flags: W
LayerCount: 2
Fore
SplineSet
258 740 m 1,0,-1
 219 740 l 1,1,-1
 123 864 l 1,2,-1
 27 740 l 1,3,-1
 -12 740 l 1,4,-1
 99 892 l 1,5,-1
 147 892 l 1,6,-1
 258 740 l 1,0,-1
144 660 m 1,7,-1
 144 0 l 1,8,-1
 103 0 l 1,9,-1
 103 660 l 1,10,-1
 144 660 l 1,7,-1
EndSplineSet
Substitution2: "'c2sc' Capitals to Small Capitals lookup 11 subtable" icircumflex.sc
Substitution2: "'aalt' Access All Alternates lookup 0 subtable" icircumflex.sc
EndChar

StartChar: Idieresis
Encoding: 207 207 145
Width: 246
GlyphClass: 2
Flags: W
LayerCount: 2
Fore
SplineSet
53 823 m 0,0,1
 70 823 70 823 79.5 813.5 c 128,-1,2
 89 804 89 804 89 787 c 0,3,4
 89 771 89 771 79 761.5 c 128,-1,5
 69 752 69 752 53 752 c 128,-1,6
 37 752 37 752 27.5 761.5 c 128,-1,7
 18 771 18 771 18 787 c 128,-1,8
 18 803 18 803 27.5 813 c 128,-1,9
 37 823 37 823 53 823 c 0,0,1
193 823 m 0,10,11
 209 823 209 823 218.5 813 c 128,-1,12
 228 803 228 803 228 787 c 128,-1,13
 228 771 228 771 218.5 761.5 c 128,-1,14
 209 752 209 752 193 752 c 128,-1,15
 177 752 177 752 167 761.5 c 128,-1,16
 157 771 157 771 157 787 c 0,17,18
 157 804 157 804 166.5 813.5 c 128,-1,19
 176 823 176 823 193 823 c 0,10,11
144 660 m 1,20,-1
 144 0 l 1,21,-1
 103 0 l 1,22,-1
 103 660 l 1,23,-1
 144 660 l 1,20,-1
EndSplineSet
Substitution2: "'c2sc' Capitals to Small Capitals lookup 11 subtable" idieresis.sc
Substitution2: "'aalt' Access All Alternates lookup 0 subtable" idieresis.sc
EndChar

StartChar: Eth
Encoding: 208 208 146
Width: 709
GlyphClass: 2
Flags: W
LayerCount: 2
Fore
SplineSet
320 660 m 2,0,1
 479 660 479 660 563.5 577 c 128,-1,2
 648 494 648 494 648 336 c 0,3,4
 648 172 648 172 563.5 86 c 128,-1,5
 479 0 479 0 320 0 c 2,6,-1
 114 0 l 1,7,-1
 114 318 l 1,8,-1
 13 318 l 1,9,-1
 13 350 l 1,10,-1
 114 350 l 1,11,-1
 114 660 l 1,12,-1
 320 660 l 2,0,1
324 38 m 2,13,14
 461 38 461 38 533.5 114.5 c 128,-1,15
 606 191 606 191 606 336 c 0,16,17
 606 475 606 475 533.5 548.5 c 128,-1,18
 461 622 461 622 324 622 c 2,19,-1
 155 622 l 1,20,-1
 155 350 l 1,21,-1
 358 350 l 1,22,-1
 358 318 l 1,23,-1
 155 318 l 1,24,-1
 155 38 l 1,25,-1
 324 38 l 2,13,14
EndSplineSet
Substitution2: "'c2sc' Capitals to Small Capitals lookup 11 subtable" eth.sc
Substitution2: "'aalt' Access All Alternates lookup 0 subtable" eth.sc
EndChar

StartChar: Ntilde
Encoding: 209 209 147
Width: 710
GlyphClass: 2
Flags: W
AnchorPoint: "Anchor-0" 367 0 basechar 0
LayerCount: 2
Fore
SplineSet
527 856 m 1,0,1
 514 753 514 753 432 753 c 0,2,3
 399 753 399 753 375.5 770 c 128,-1,4
 352 787 352 787 332 804 c 128,-1,5
 312 821 312 821 288 821 c 0,6,7
 260 821 260 821 247 804.5 c 128,-1,8
 234 788 234 788 227 752 c 1,9,-1
 193 752 l 1,10,11
 201 805 201 805 223.5 830 c 128,-1,12
 246 855 246 855 289 855 c 0,13,14
 321 855 321 855 344.5 838 c 128,-1,15
 368 821 368 821 388 804 c 128,-1,16
 408 787 408 787 431 787 c 0,17,18
 459 787 459 787 473 804 c 128,-1,19
 487 821 487 821 493 856 c 1,20,-1
 527 856 l 1,0,1
607 660 m 1,21,-1
 607 0 l 1,22,-1
 555 0 l 1,23,-1
 183 541 l 1,24,-1
 140 616 l 1,25,-1
 142 540 l 1,26,-1
 142 0 l 1,27,-1
 103 0 l 1,28,-1
 103 660 l 1,29,-1
 155 660 l 1,30,-1
 526 119 l 1,31,-1
 569 44 l 1,32,-1
 570 44 l 1,33,-1
 568 120 l 1,34,-1
 568 660 l 1,35,-1
 607 660 l 1,21,-1
EndSplineSet
Substitution2: "Single Substitution lookup 57 subtable" Ntilde.swsh
Substitution2: "'swsh' Swash lookup 36 subtable" Ntilde.swsh
Substitution2: "'c2sc' Capitals to Small Capitals lookup 11 subtable" ntilde.sc
AlternateSubs2: "'aalt' Access All Alternates lookup 1 subtable" ntilde.sc Ntilde.swsh
EndChar

StartChar: Ograve
Encoding: 210 210 148
Width: 727
GlyphClass: 2
Flags: W
LayerCount: 2
Fore
SplineSet
308 891 m 1,0,-1
 376 743 l 1,1,-1
 341 743 l 1,2,-1
 260 891 l 1,3,-1
 308 891 l 1,0,-1
364 670 m 128,-1,5
 504 670 504 670 585.5 578.5 c 128,-1,6
 667 487 667 487 667 330 c 128,-1,7
 667 173 667 173 585.5 81.5 c 128,-1,8
 504 -10 504 -10 364 -10 c 128,-1,9
 224 -10 224 -10 142.5 81.5 c 128,-1,10
 61 173 61 173 61 330 c 128,-1,11
 61 487 61 487 142.5 578.5 c 128,-1,4
 224 670 224 670 364 670 c 128,-1,5
364 632 m 0,12,13
 243 632 243 632 173 551 c 128,-1,14
 103 470 103 470 103 330 c 128,-1,15
 103 190 103 190 173 109 c 128,-1,16
 243 28 243 28 364 28 c 0,17,18
 484 28 484 28 554 109 c 128,-1,19
 624 190 624 190 624 330 c 128,-1,20
 624 470 624 470 554 551 c 128,-1,21
 484 632 484 632 364 632 c 0,12,13
EndSplineSet
Substitution2: "'c2sc' Capitals to Small Capitals lookup 11 subtable" ograve.sc
Substitution2: "'aalt' Access All Alternates lookup 0 subtable" ograve.sc
EndChar

StartChar: Oacute
Encoding: 211 211 149
Width: 727
GlyphClass: 2
Flags: W
LayerCount: 2
Fore
SplineSet
415 891 m 1,0,-1
 463 891 l 1,1,-1
 382 743 l 1,2,-1
 347 743 l 1,3,-1
 415 891 l 1,0,-1
364 670 m 128,-1,5
 504 670 504 670 585.5 578.5 c 128,-1,6
 667 487 667 487 667 330 c 128,-1,7
 667 173 667 173 585.5 81.5 c 128,-1,8
 504 -10 504 -10 364 -10 c 128,-1,9
 224 -10 224 -10 142.5 81.5 c 128,-1,10
 61 173 61 173 61 330 c 128,-1,11
 61 487 61 487 142.5 578.5 c 128,-1,4
 224 670 224 670 364 670 c 128,-1,5
364 632 m 0,12,13
 243 632 243 632 173 551 c 128,-1,14
 103 470 103 470 103 330 c 128,-1,15
 103 190 103 190 173 109 c 128,-1,16
 243 28 243 28 364 28 c 0,17,18
 484 28 484 28 554 109 c 128,-1,19
 624 190 624 190 624 330 c 128,-1,20
 624 470 624 470 554 551 c 128,-1,21
 484 632 484 632 364 632 c 0,12,13
EndSplineSet
Substitution2: "'c2sc' Capitals to Small Capitals lookup 11 subtable" oacute.sc
Substitution2: "'aalt' Access All Alternates lookup 0 subtable" oacute.sc
EndChar

StartChar: Ocircumflex
Encoding: 212 212 150
Width: 727
GlyphClass: 2
Flags: W
LayerCount: 2
Fore
SplineSet
499 740 m 1,0,-1
 460 740 l 1,1,-1
 364 864 l 1,2,-1
 268 740 l 1,3,-1
 229 740 l 1,4,-1
 340 892 l 1,5,-1
 388 892 l 1,6,-1
 499 740 l 1,0,-1
364 670 m 128,-1,8
 504 670 504 670 585.5 578.5 c 128,-1,9
 667 487 667 487 667 330 c 128,-1,10
 667 173 667 173 585.5 81.5 c 128,-1,11
 504 -10 504 -10 364 -10 c 128,-1,12
 224 -10 224 -10 142.5 81.5 c 128,-1,13
 61 173 61 173 61 330 c 128,-1,14
 61 487 61 487 142.5 578.5 c 128,-1,7
 224 670 224 670 364 670 c 128,-1,8
364 632 m 0,15,16
 243 632 243 632 173 551 c 128,-1,17
 103 470 103 470 103 330 c 128,-1,18
 103 190 103 190 173 109 c 128,-1,19
 243 28 243 28 364 28 c 0,20,21
 484 28 484 28 554 109 c 128,-1,22
 624 190 624 190 624 330 c 128,-1,23
 624 470 624 470 554 551 c 128,-1,24
 484 632 484 632 364 632 c 0,15,16
EndSplineSet
Substitution2: "'c2sc' Capitals to Small Capitals lookup 11 subtable" ocircumflex.sc
Substitution2: "'aalt' Access All Alternates lookup 0 subtable" ocircumflex.sc
EndChar

StartChar: Otilde
Encoding: 213 213 151
Width: 727
GlyphClass: 2
Flags: W
LayerCount: 2
Fore
SplineSet
531 856 m 1,0,1
 518 753 518 753 436 753 c 0,2,3
 403 753 403 753 379.5 770 c 128,-1,4
 356 787 356 787 336 804 c 128,-1,5
 316 821 316 821 292 821 c 0,6,7
 264 821 264 821 251 804.5 c 128,-1,8
 238 788 238 788 231 752 c 1,9,-1
 197 752 l 1,10,11
 205 805 205 805 227.5 830 c 128,-1,12
 250 855 250 855 293 855 c 0,13,14
 325 855 325 855 348.5 838 c 128,-1,15
 372 821 372 821 392 804 c 128,-1,16
 412 787 412 787 435 787 c 0,17,18
 463 787 463 787 477 804 c 128,-1,19
 491 821 491 821 497 856 c 1,20,-1
 531 856 l 1,0,1
364 670 m 128,-1,22
 504 670 504 670 585.5 578.5 c 128,-1,23
 667 487 667 487 667 330 c 128,-1,24
 667 173 667 173 585.5 81.5 c 128,-1,25
 504 -10 504 -10 364 -10 c 128,-1,26
 224 -10 224 -10 142.5 81.5 c 128,-1,27
 61 173 61 173 61 330 c 128,-1,28
 61 487 61 487 142.5 578.5 c 128,-1,21
 224 670 224 670 364 670 c 128,-1,22
364 632 m 0,29,30
 243 632 243 632 173 551 c 128,-1,31
 103 470 103 470 103 330 c 128,-1,32
 103 190 103 190 173 109 c 128,-1,33
 243 28 243 28 364 28 c 0,34,35
 484 28 484 28 554 109 c 128,-1,36
 624 190 624 190 624 330 c 128,-1,37
 624 470 624 470 554 551 c 128,-1,38
 484 632 484 632 364 632 c 0,29,30
EndSplineSet
Substitution2: "'c2sc' Capitals to Small Capitals lookup 11 subtable" otilde.sc
Substitution2: "'aalt' Access All Alternates lookup 0 subtable" otilde.sc
EndChar

StartChar: Odieresis
Encoding: 214 214 152
Width: 727
GlyphClass: 2
Flags: W
LayerCount: 2
Fore
SplineSet
269 823 m 0,0,1
 286 823 286 823 295.5 813.5 c 128,-1,2
 305 804 305 804 305 787 c 0,3,4
 305 771 305 771 295 761.5 c 128,-1,5
 285 752 285 752 269 752 c 128,-1,6
 253 752 253 752 243.5 761.5 c 128,-1,7
 234 771 234 771 234 787 c 128,-1,8
 234 803 234 803 243.5 813 c 128,-1,9
 253 823 253 823 269 823 c 0,0,1
457 823 m 0,10,11
 474 823 474 823 483.5 813.5 c 128,-1,12
 493 804 493 804 493 787 c 0,13,14
 493 771 493 771 483 761.5 c 128,-1,15
 473 752 473 752 457 752 c 128,-1,16
 441 752 441 752 431.5 761.5 c 128,-1,17
 422 771 422 771 422 787 c 128,-1,18
 422 803 422 803 431.5 813 c 128,-1,19
 441 823 441 823 457 823 c 0,10,11
364 670 m 128,-1,21
 504 670 504 670 585.5 578.5 c 128,-1,22
 667 487 667 487 667 330 c 128,-1,23
 667 173 667 173 585.5 81.5 c 128,-1,24
 504 -10 504 -10 364 -10 c 128,-1,25
 224 -10 224 -10 142.5 81.5 c 128,-1,26
 61 173 61 173 61 330 c 128,-1,27
 61 487 61 487 142.5 578.5 c 128,-1,20
 224 670 224 670 364 670 c 128,-1,21
364 632 m 0,28,29
 243 632 243 632 173 551 c 128,-1,30
 103 470 103 470 103 330 c 128,-1,31
 103 190 103 190 173 109 c 128,-1,32
 243 28 243 28 364 28 c 0,33,34
 484 28 484 28 554 109 c 128,-1,35
 624 190 624 190 624 330 c 128,-1,36
 624 470 624 470 554 551 c 128,-1,37
 484 632 484 632 364 632 c 0,28,29
EndSplineSet
Substitution2: "'titl' Titling lookup 41 subtable" Odieresis.titl
Substitution2: "'c2sc' Capitals to Small Capitals lookup 11 subtable" odieresis.sc
AlternateSubs2: "'aalt' Access All Alternates lookup 1 subtable" odieresis.sc Odieresis.titl
EndChar

StartChar: multiply
Encoding: 215 215 153
Width: 604
GlyphClass: 2
Flags: W
LayerCount: 2
Fore
SplineSet
496 480 m 1,0,-1
 330 314 l 1,1,-1
 496 148 l 1,2,-1
 468 120 l 1,3,-1
 302 286 l 1,4,-1
 136 120 l 1,5,-1
 107 148 l 1,6,-1
 273 314 l 1,7,-1
 107 480 l 1,8,-1
 136 509 l 1,9,-1
 302 343 l 1,10,-1
 468 509 l 1,11,-1
 496 480 l 1,0,-1
EndSplineSet
EndChar

StartChar: Oslash
Encoding: 216 216 154
Width: 727
GlyphClass: 2
Flags: W
LayerCount: 2
Fore
SplineSet
572 591 m 1,0,1
 667 499 667 499 667 330 c 0,2,3
 667 173 667 173 585.5 81.5 c 128,-1,4
 504 -10 504 -10 364 -10 c 0,5,6
 257 -10 257 -10 182 45 c 1,7,-1
 127 -33 l 1,8,-1
 87 -33 l 1,9,-1
 157 66 l 1,10,11
 61 157 61 157 61 330 c 0,12,13
 61 487 61 487 142.5 578.5 c 128,-1,14
 224 670 224 670 364 670 c 0,15,16
 473 670 473 670 548 613 c 1,17,-1
 601 687 l 1,18,-1
 641 687 l 1,19,-1
 572 591 l 1,0,1
103 330 m 0,20,21
 103 181 103 181 182 100 c 1,22,-1
 524 580 l 1,23,24
 460 632 460 632 364 632 c 0,25,26
 243 632 243 632 173 551 c 128,-1,27
 103 470 103 470 103 330 c 0,20,21
364 28 m 0,28,29
 484 28 484 28 554 109 c 128,-1,30
 624 190 624 190 624 330 c 0,31,32
 624 476 624 476 548 558 c 1,33,-1
 206 78 l 1,34,35
 270 28 270 28 364 28 c 0,28,29
EndSplineSet
Substitution2: "'c2sc' Capitals to Small Capitals lookup 11 subtable" oslash.sc
Substitution2: "'aalt' Access All Alternates lookup 0 subtable" oslash.sc
EndChar

StartChar: Ugrave
Encoding: 217 217 155
Width: 696
GlyphClass: 2
Flags: W
LayerCount: 2
Fore
SplineSet
304 891 m 1,0,-1
 372 743 l 1,1,-1
 337 743 l 1,2,-1
 256 891 l 1,3,-1
 304 891 l 1,0,-1
601 660 m 1,4,-1
 601 239 l 2,5,6
 601 118 601 118 535 54 c 128,-1,7
 469 -10 469 -10 348 -10 c 128,-1,8
 227 -10 227 -10 161 54 c 128,-1,9
 95 118 95 118 95 239 c 2,10,-1
 95 660 l 1,11,-1
 136 660 l 1,12,-1
 136 247 l 2,13,14
 136 140 136 140 190.5 84 c 128,-1,15
 245 28 245 28 348 28 c 128,-1,16
 451 28 451 28 505.5 84 c 128,-1,17
 560 140 560 140 560 247 c 2,18,-1
 560 660 l 1,19,-1
 601 660 l 1,4,-1
EndSplineSet
Substitution2: "'c2sc' Capitals to Small Capitals lookup 11 subtable" ugrave.sc
Substitution2: "'aalt' Access All Alternates lookup 0 subtable" ugrave.sc
EndChar

StartChar: Uacute
Encoding: 218 218 156
Width: 696
GlyphClass: 2
Flags: W
LayerCount: 2
Fore
SplineSet
399 891 m 1,0,-1
 447 891 l 1,1,-1
 366 743 l 1,2,-1
 331 743 l 1,3,-1
 399 891 l 1,0,-1
601 660 m 1,4,-1
 601 239 l 2,5,6
 601 118 601 118 535 54 c 128,-1,7
 469 -10 469 -10 348 -10 c 128,-1,8
 227 -10 227 -10 161 54 c 128,-1,9
 95 118 95 118 95 239 c 2,10,-1
 95 660 l 1,11,-1
 136 660 l 1,12,-1
 136 247 l 2,13,14
 136 140 136 140 190.5 84 c 128,-1,15
 245 28 245 28 348 28 c 128,-1,16
 451 28 451 28 505.5 84 c 128,-1,17
 560 140 560 140 560 247 c 2,18,-1
 560 660 l 1,19,-1
 601 660 l 1,4,-1
EndSplineSet
Substitution2: "'c2sc' Capitals to Small Capitals lookup 11 subtable" uacute.sc
Substitution2: "'aalt' Access All Alternates lookup 0 subtable" uacute.sc
EndChar

StartChar: Ucircumflex
Encoding: 219 219 157
Width: 696
GlyphClass: 2
Flags: W
LayerCount: 2
Fore
SplineSet
483 740 m 1,0,-1
 444 740 l 1,1,-1
 348 864 l 1,2,-1
 252 740 l 1,3,-1
 213 740 l 1,4,-1
 324 892 l 1,5,-1
 372 892 l 1,6,-1
 483 740 l 1,0,-1
601 660 m 1,7,-1
 601 239 l 2,8,9
 601 118 601 118 535 54 c 128,-1,10
 469 -10 469 -10 348 -10 c 128,-1,11
 227 -10 227 -10 161 54 c 128,-1,12
 95 118 95 118 95 239 c 2,13,-1
 95 660 l 1,14,-1
 136 660 l 1,15,-1
 136 247 l 2,16,17
 136 140 136 140 190.5 84 c 128,-1,18
 245 28 245 28 348 28 c 128,-1,19
 451 28 451 28 505.5 84 c 128,-1,20
 560 140 560 140 560 247 c 2,21,-1
 560 660 l 1,22,-1
 601 660 l 1,7,-1
EndSplineSet
Substitution2: "'c2sc' Capitals to Small Capitals lookup 11 subtable" ucircumflex.sc
Substitution2: "'aalt' Access All Alternates lookup 0 subtable" ucircumflex.sc
EndChar

StartChar: Udieresis
Encoding: 220 220 158
Width: 696
GlyphClass: 2
Flags: W
LayerCount: 2
Fore
SplineSet
253 823 m 0,0,1
 270 823 270 823 279.5 813.5 c 128,-1,2
 289 804 289 804 289 787 c 0,3,4
 289 771 289 771 279 761.5 c 128,-1,5
 269 752 269 752 253 752 c 128,-1,6
 237 752 237 752 227.5 761.5 c 128,-1,7
 218 771 218 771 218 787 c 128,-1,8
 218 803 218 803 227.5 813 c 128,-1,9
 237 823 237 823 253 823 c 0,0,1
441 823 m 0,10,11
 458 823 458 823 467.5 813.5 c 128,-1,12
 477 804 477 804 477 787 c 0,13,14
 477 771 477 771 467 761.5 c 128,-1,15
 457 752 457 752 441 752 c 128,-1,16
 425 752 425 752 415.5 761.5 c 128,-1,17
 406 771 406 771 406 787 c 128,-1,18
 406 803 406 803 415.5 813 c 128,-1,19
 425 823 425 823 441 823 c 0,10,11
601 660 m 1,20,-1
 601 239 l 2,21,22
 601 118 601 118 535 54 c 128,-1,23
 469 -10 469 -10 348 -10 c 128,-1,24
 227 -10 227 -10 161 54 c 128,-1,25
 95 118 95 118 95 239 c 2,26,-1
 95 660 l 1,27,-1
 136 660 l 1,28,-1
 136 247 l 2,29,30
 136 140 136 140 190.5 84 c 128,-1,31
 245 28 245 28 348 28 c 128,-1,32
 451 28 451 28 505.5 84 c 128,-1,33
 560 140 560 140 560 247 c 2,34,-1
 560 660 l 1,35,-1
 601 660 l 1,20,-1
EndSplineSet
Substitution2: "'titl' Titling lookup 41 subtable" Udieresis.titl
Substitution2: "'c2sc' Capitals to Small Capitals lookup 11 subtable" udieresis.sc
AlternateSubs2: "'aalt' Access All Alternates lookup 1 subtable" udieresis.sc Udieresis.titl
EndChar

StartChar: Yacute
Encoding: 221 221 159
Width: 535
GlyphClass: 2
Flags: W
LayerCount: 2
Fore
SplineSet
319 891 m 1,0,-1
 367 891 l 1,1,-1
 286 743 l 1,2,-1
 251 743 l 1,3,-1
 319 891 l 1,0,-1
522 660 m 1,4,-1
 288 257 l 1,5,-1
 288 0 l 1,6,-1
 247 0 l 1,7,-1
 247 257 l 1,8,-1
 14 660 l 1,9,-1
 62 660 l 1,10,-1
 268 299 l 1,11,-1
 344 434 l 1,12,-1
 473 660 l 1,13,-1
 522 660 l 1,4,-1
EndSplineSet
Substitution2: "'c2sc' Capitals to Small Capitals lookup 11 subtable" yacute.sc
Substitution2: "'aalt' Access All Alternates lookup 0 subtable" yacute.sc
EndChar

StartChar: Thorn
Encoding: 222 222 160
Width: 590
GlyphClass: 2
Flags: W
LayerCount: 2
Fore
SplineSet
307 532 m 2,0,1
 545 532 545 532 545 339 c 128,-1,2
 545 146 545 146 307 146 c 2,3,-1
 144 146 l 1,4,-1
 144 0 l 1,5,-1
 103 0 l 1,6,-1
 103 660 l 1,7,-1
 144 660 l 1,8,-1
 144 532 l 1,9,-1
 307 532 l 2,0,1
316 184 m 2,10,11
 502 184 502 184 502 339 c 128,-1,12
 502 494 502 494 316 494 c 2,13,-1
 144 494 l 1,14,-1
 144 184 l 1,15,-1
 316 184 l 2,10,11
EndSplineSet
Substitution2: "'c2sc' Capitals to Small Capitals lookup 11 subtable" thorn.sc
Substitution2: "'aalt' Access All Alternates lookup 0 subtable" thorn.sc
EndChar

StartChar: germandbls
Encoding: 223 223 161
Width: 580
GlyphClass: 2
Flags: W
LayerCount: 2
Fore
SplineSet
343 382 m 1,0,1
 433 380 433 380 480 326 c 128,-1,2
 527 272 527 272 527 188 c 0,3,4
 527 101 527 101 473 45.5 c 128,-1,5
 419 -10 419 -10 327 -10 c 0,6,7
 256 -10 256 -10 222 30 c 1,8,-1
 237 61 l 1,9,10
 271 26 271 26 329 26 c 0,11,12
 402 26 402 26 444.5 71.5 c 128,-1,13
 487 117 487 117 487 191 c 0,14,15
 487 275 487 275 437 318 c 128,-1,16
 387 361 387 361 299 361 c 2,17,-1
 257 361 l 1,18,-1
 257 399 l 1,19,-1
 299 399 l 2,20,21
 371 399 371 399 414 441.5 c 128,-1,22
 457 484 457 484 457 556 c 0,23,24
 457 624 457 624 416.5 660.5 c 128,-1,25
 376 697 376 697 303 697 c 0,26,27
 129 697 129 697 129 493 c 2,28,-1
 129 0 l 1,29,-1
 88 0 l 1,30,-1
 88 509 l 2,31,32
 88 735 88 735 306 735 c 0,33,34
 399 735 399 735 449 684.5 c 128,-1,35
 499 634 499 634 499 556 c 0,36,37
 499 485 499 485 456.5 435 c 128,-1,38
 414 385 414 385 343 384 c 1,39,-1
 343 382 l 1,0,1
EndSplineSet
Substitution2: "Single Substitution lookup 57 subtable" germandbls.calt
Substitution2: "'smcp' Lowercase to Small Capitals lookup 12 subtable" germandbls.sc
AlternateSubs2: "'aalt' Access All Alternates lookup 1 subtable" germandbls.sc germandbls.calt
EndChar

StartChar: agrave
Encoding: 224 224 162
Width: 536
GlyphClass: 2
Flags: W
LayerCount: 2
Fore
SplineSet
278 583 m 1,0,-1
 244 583 l 1,1,-1
 152 738 l 1,2,-1
 197 738 l 1,3,-1
 278 583 l 1,0,-1
488 25 m 0,4,5
 512 25 512 25 527 33 c 1,6,-1
 524 -1 l 1,7,8
 504 -10 504 -10 479 -10 c 0,9,10
 403 -10 403 -10 399 80 c 1,11,12
 376 37 376 37 323.5 13.5 c 128,-1,13
 271 -10 271 -10 212 -10 c 0,14,15
 138 -10 138 -10 94 22.5 c 128,-1,16
 50 55 50 55 50 114 c 128,-1,17
 50 173 50 173 96 209.5 c 128,-1,18
 142 246 142 246 239 264 c 2,19,-1
 398 292 l 1,20,-1
 398 341 l 2,21,22
 398 403 398 403 361 438.5 c 128,-1,23
 324 474 324 474 256 474 c 0,24,25
 133 474 133 474 91 365 c 1,26,-1
 60 388 l 1,27,28
 105 510 105 510 256 510 c 0,29,30
 342 510 342 510 390.5 467.5 c 128,-1,31
 439 425 439 425 439 345 c 2,32,-1
 439 83 l 2,33,34
 439 25 439 25 488 25 c 0,4,5
216 26 m 0,35,36
 284 26 284 26 341 61 c 128,-1,37
 398 96 398 96 398 158 c 2,38,-1
 398 258 l 1,39,-1
 254 231 l 2,40,41
 169 215 169 215 130.5 187 c 128,-1,42
 92 159 92 159 92 114 c 0,43,44
 92 72 92 72 125 49 c 128,-1,45
 158 26 158 26 216 26 c 0,35,36
EndSplineSet
Substitution2: "'smcp' Lowercase to Small Capitals lookup 12 subtable" agrave.sc
Substitution2: "'aalt' Access All Alternates lookup 0 subtable" agrave.sc
EndChar

StartChar: aacute
Encoding: 225 225 163
Width: 536
GlyphClass: 2
Flags: W
LayerCount: 2
Fore
SplineSet
358 738 m 1,0,-1
 266 583 l 1,1,-1
 232 583 l 1,2,-1
 313 738 l 1,3,-1
 358 738 l 1,0,-1
488 25 m 0,4,5
 512 25 512 25 527 33 c 1,6,-1
 524 -1 l 1,7,8
 504 -10 504 -10 479 -10 c 0,9,10
 403 -10 403 -10 399 80 c 1,11,12
 376 37 376 37 323.5 13.5 c 128,-1,13
 271 -10 271 -10 212 -10 c 0,14,15
 138 -10 138 -10 94 22.5 c 128,-1,16
 50 55 50 55 50 114 c 128,-1,17
 50 173 50 173 96 209.5 c 128,-1,18
 142 246 142 246 239 264 c 2,19,-1
 398 292 l 1,20,-1
 398 341 l 2,21,22
 398 403 398 403 361 438.5 c 128,-1,23
 324 474 324 474 256 474 c 0,24,25
 133 474 133 474 91 365 c 1,26,-1
 60 388 l 1,27,28
 105 510 105 510 256 510 c 0,29,30
 342 510 342 510 390.5 467.5 c 128,-1,31
 439 425 439 425 439 345 c 2,32,-1
 439 83 l 2,33,34
 439 25 439 25 488 25 c 0,4,5
216 26 m 0,35,36
 284 26 284 26 341 61 c 128,-1,37
 398 96 398 96 398 158 c 2,38,-1
 398 258 l 1,39,-1
 254 231 l 2,40,41
 169 215 169 215 130.5 187 c 128,-1,42
 92 159 92 159 92 114 c 0,43,44
 92 72 92 72 125 49 c 128,-1,45
 158 26 158 26 216 26 c 0,35,36
EndSplineSet
Substitution2: "'smcp' Lowercase to Small Capitals lookup 12 subtable" aacute.sc
Substitution2: "'aalt' Access All Alternates lookup 0 subtable" aacute.sc
EndChar

StartChar: acircumflex
Encoding: 226 226 164
Width: 536
GlyphClass: 2
Flags: W
LayerCount: 2
Fore
SplineSet
255 702 m 1,0,-1
 161 580 l 1,1,-1
 122 580 l 1,2,-1
 232 732 l 1,3,-1
 278 732 l 1,4,-1
 388 580 l 1,5,-1
 349 580 l 1,6,-1
 255 702 l 1,0,-1
488 25 m 0,7,8
 512 25 512 25 527 33 c 1,9,-1
 524 -1 l 1,10,11
 504 -10 504 -10 479 -10 c 0,12,13
 403 -10 403 -10 399 80 c 1,14,15
 376 37 376 37 323.5 13.5 c 128,-1,16
 271 -10 271 -10 212 -10 c 0,17,18
 138 -10 138 -10 94 22.5 c 128,-1,19
 50 55 50 55 50 114 c 128,-1,20
 50 173 50 173 96 209.5 c 128,-1,21
 142 246 142 246 239 264 c 2,22,-1
 398 292 l 1,23,-1
 398 341 l 2,24,25
 398 403 398 403 361 438.5 c 128,-1,26
 324 474 324 474 256 474 c 0,27,28
 133 474 133 474 91 365 c 1,29,-1
 60 388 l 1,30,31
 105 510 105 510 256 510 c 0,32,33
 342 510 342 510 390.5 467.5 c 128,-1,34
 439 425 439 425 439 345 c 2,35,-1
 439 83 l 2,36,37
 439 25 439 25 488 25 c 0,7,8
216 26 m 0,38,39
 284 26 284 26 341 61 c 128,-1,40
 398 96 398 96 398 158 c 2,41,-1
 398 258 l 1,42,-1
 254 231 l 2,43,44
 169 215 169 215 130.5 187 c 128,-1,45
 92 159 92 159 92 114 c 0,46,47
 92 72 92 72 125 49 c 128,-1,48
 158 26 158 26 216 26 c 0,38,39
EndSplineSet
Substitution2: "'smcp' Lowercase to Small Capitals lookup 12 subtable" acircumflex.sc
Substitution2: "'aalt' Access All Alternates lookup 0 subtable" acircumflex.sc
EndChar

StartChar: atilde
Encoding: 227 227 165
Width: 536
GlyphClass: 2
Flags: W
LayerCount: 2
Fore
SplineSet
183 661 m 0,0,1
 155 661 155 661 142 644.5 c 128,-1,2
 129 628 129 628 122 592 c 1,3,-1
 88 592 l 1,4,5
 96 645 96 645 118.5 670 c 128,-1,6
 141 695 141 695 184 695 c 0,7,8
 216 695 216 695 239.5 678 c 128,-1,9
 263 661 263 661 283 644 c 128,-1,10
 303 627 303 627 326 627 c 0,11,12
 354 627 354 627 368 644 c 128,-1,13
 382 661 382 661 388 696 c 1,14,-1
 422 696 l 1,15,16
 409 593 409 593 327 593 c 0,17,18
 294 593 294 593 270.5 610 c 128,-1,19
 247 627 247 627 227 644 c 128,-1,20
 207 661 207 661 183 661 c 0,0,1
488 25 m 0,21,22
 512 25 512 25 527 33 c 1,23,-1
 524 -1 l 1,24,25
 504 -10 504 -10 479 -10 c 0,26,27
 403 -10 403 -10 399 80 c 1,28,29
 376 37 376 37 323.5 13.5 c 128,-1,30
 271 -10 271 -10 212 -10 c 0,31,32
 138 -10 138 -10 94 22.5 c 128,-1,33
 50 55 50 55 50 114 c 128,-1,34
 50 173 50 173 96 209.5 c 128,-1,35
 142 246 142 246 239 264 c 2,36,-1
 398 292 l 1,37,-1
 398 341 l 2,38,39
 398 403 398 403 361 438.5 c 128,-1,40
 324 474 324 474 256 474 c 0,41,42
 133 474 133 474 91 365 c 1,43,-1
 60 388 l 1,44,45
 105 510 105 510 256 510 c 0,46,47
 342 510 342 510 390.5 467.5 c 128,-1,48
 439 425 439 425 439 345 c 2,49,-1
 439 83 l 2,50,51
 439 25 439 25 488 25 c 0,21,22
216 26 m 0,52,53
 284 26 284 26 341 61 c 128,-1,54
 398 96 398 96 398 158 c 2,55,-1
 398 258 l 1,56,-1
 254 231 l 2,57,58
 169 215 169 215 130.5 187 c 128,-1,59
 92 159 92 159 92 114 c 0,60,61
 92 72 92 72 125 49 c 128,-1,62
 158 26 158 26 216 26 c 0,52,53
EndSplineSet
Substitution2: "'smcp' Lowercase to Small Capitals lookup 12 subtable" atilde.sc
Substitution2: "'aalt' Access All Alternates lookup 0 subtable" atilde.sc
EndChar

StartChar: adieresis
Encoding: 228 228 166
Width: 536
GlyphClass: 2
Flags: W
LayerCount: 2
Fore
SplineSet
160 592 m 128,-1,1
 144 592 144 592 134.5 601.5 c 128,-1,2
 125 611 125 611 125 627 c 128,-1,3
 125 643 125 643 134.5 653 c 128,-1,4
 144 663 144 663 160 663 c 128,-1,5
 176 663 176 663 186 653.5 c 128,-1,6
 196 644 196 644 196 627 c 0,7,8
 196 611 196 611 186 601.5 c 128,-1,0
 176 592 176 592 160 592 c 128,-1,1
348 592 m 128,-1,10
 332 592 332 592 322.5 601.5 c 128,-1,11
 313 611 313 611 313 627 c 128,-1,12
 313 643 313 643 322.5 653 c 128,-1,13
 332 663 332 663 348 663 c 128,-1,14
 364 663 364 663 374 653.5 c 128,-1,15
 384 644 384 644 384 627 c 0,16,17
 384 611 384 611 374 601.5 c 128,-1,9
 364 592 364 592 348 592 c 128,-1,10
488 25 m 0,18,19
 512 25 512 25 527 33 c 1,20,-1
 524 -1 l 1,21,22
 504 -10 504 -10 479 -10 c 0,23,24
 403 -10 403 -10 399 80 c 1,25,26
 376 37 376 37 323.5 13.5 c 128,-1,27
 271 -10 271 -10 212 -10 c 0,28,29
 138 -10 138 -10 94 22.5 c 128,-1,30
 50 55 50 55 50 114 c 128,-1,31
 50 173 50 173 96 209.5 c 128,-1,32
 142 246 142 246 239 264 c 2,33,-1
 398 292 l 1,34,-1
 398 341 l 2,35,36
 398 403 398 403 361 438.5 c 128,-1,37
 324 474 324 474 256 474 c 0,38,39
 133 474 133 474 91 365 c 1,40,-1
 60 388 l 1,41,42
 105 510 105 510 256 510 c 0,43,44
 342 510 342 510 390.5 467.5 c 128,-1,45
 439 425 439 425 439 345 c 2,46,-1
 439 83 l 2,47,48
 439 25 439 25 488 25 c 0,18,19
216 26 m 0,49,50
 284 26 284 26 341 61 c 128,-1,51
 398 96 398 96 398 158 c 2,52,-1
 398 258 l 1,53,-1
 254 231 l 2,54,55
 169 215 169 215 130.5 187 c 128,-1,56
 92 159 92 159 92 114 c 0,57,58
 92 72 92 72 125 49 c 128,-1,59
 158 26 158 26 216 26 c 0,49,50
EndSplineSet
Substitution2: "'smcp' Lowercase to Small Capitals lookup 12 subtable" adieresis.sc
Substitution2: "'aalt' Access All Alternates lookup 0 subtable" adieresis.sc
EndChar

StartChar: aring
Encoding: 229 229 167
Width: 536
GlyphClass: 2
Flags: W
LayerCount: 2
Fore
SplineSet
253 575 m 128,-1,1
 210 575 210 575 181.5 602 c 128,-1,2
 153 629 153 629 153 670 c 128,-1,3
 153 711 153 711 181.5 738 c 128,-1,4
 210 765 210 765 253 765 c 128,-1,5
 296 765 296 765 323.5 738 c 128,-1,6
 351 711 351 711 351 670 c 128,-1,7
 351 629 351 629 323.5 602 c 128,-1,0
 296 575 296 575 253 575 c 128,-1,1
253 737 m 128,-1,9
 224 737 224 737 204.5 718 c 128,-1,10
 185 699 185 699 185 670 c 128,-1,11
 185 641 185 641 204.5 622 c 128,-1,12
 224 603 224 603 253 603 c 128,-1,13
 282 603 282 603 301.5 622.5 c 128,-1,14
 321 642 321 642 321 670 c 128,-1,15
 321 698 321 698 301.5 717.5 c 128,-1,8
 282 737 282 737 253 737 c 128,-1,9
488 25 m 0,16,17
 512 25 512 25 527 33 c 1,18,-1
 524 -1 l 1,19,20
 504 -10 504 -10 479 -10 c 0,21,22
 403 -10 403 -10 399 80 c 1,23,24
 376 37 376 37 323.5 13.5 c 128,-1,25
 271 -10 271 -10 212 -10 c 0,26,27
 138 -10 138 -10 94 22.5 c 128,-1,28
 50 55 50 55 50 114 c 128,-1,29
 50 173 50 173 96 209.5 c 128,-1,30
 142 246 142 246 239 264 c 2,31,-1
 398 292 l 1,32,-1
 398 341 l 2,33,34
 398 403 398 403 361 438.5 c 128,-1,35
 324 474 324 474 256 474 c 0,36,37
 133 474 133 474 91 365 c 1,38,-1
 60 388 l 1,39,40
 105 510 105 510 256 510 c 0,41,42
 342 510 342 510 390.5 467.5 c 128,-1,43
 439 425 439 425 439 345 c 2,44,-1
 439 83 l 2,45,46
 439 25 439 25 488 25 c 0,16,17
216 26 m 0,47,48
 284 26 284 26 341 61 c 128,-1,49
 398 96 398 96 398 158 c 2,50,-1
 398 258 l 1,51,-1
 254 231 l 2,52,53
 169 215 169 215 130.5 187 c 128,-1,54
 92 159 92 159 92 114 c 0,55,56
 92 72 92 72 125 49 c 128,-1,57
 158 26 158 26 216 26 c 0,47,48
EndSplineSet
Substitution2: "'smcp' Lowercase to Small Capitals lookup 12 subtable" aring.sc
Substitution2: "'aalt' Access All Alternates lookup 0 subtable" aring.sc
EndChar

StartChar: ae
Encoding: 230 230 168
Width: 873
GlyphClass: 2
Flags: W
LayerCount: 2
Fore
SplineSet
821 269 m 0,0,1
 821 255 821 255 819 243 c 1,2,-1
 438 243 l 1,3,4
 440 142 440 142 488.5 84 c 128,-1,5
 537 26 537 26 616 26 c 0,6,7
 739 26 739 26 777 123 c 1,8,-1
 811 105 l 1,9,10
 758 -10 758 -10 616 -10 c 0,11,12
 544 -10 544 -10 493 27.5 c 128,-1,13
 442 65 442 65 420 136 c 1,14,15
 405 63 405 63 345.5 26.5 c 128,-1,16
 286 -10 286 -10 209 -10 c 0,17,18
 137 -10 137 -10 93.5 23 c 128,-1,19
 50 56 50 56 50 114 c 0,20,21
 50 174 50 174 96 212.5 c 128,-1,22
 142 251 142 251 235 261 c 2,23,-1
 401 279 l 1,24,-1
 401 339 l 2,25,26
 401 403 401 403 363.5 438.5 c 128,-1,27
 326 474 326 474 256 474 c 0,28,29
 134 474 134 474 91 365 c 1,30,-1
 60 388 l 1,31,32
 105 510 105 510 257 510 c 0,33,34
 400 510 400 510 431 388 c 1,35,36
 456 446 456 446 503 478 c 128,-1,37
 550 510 550 510 613 510 c 0,38,39
 715 510 715 510 768 447 c 128,-1,40
 821 384 821 384 821 269 c 0,0,1
613 474 m 0,41,42
 538 474 538 474 492 422.5 c 128,-1,43
 446 371 446 371 439 279 c 1,44,-1
 782 279 l 1,45,46
 774 474 774 474 613 474 c 0,41,42
218 26 m 0,47,48
 261 26 261 26 301 41.5 c 128,-1,49
 341 57 341 57 371 96 c 128,-1,50
 401 135 401 135 401 192 c 2,51,-1
 401 246 l 1,52,-1
 250 229 l 2,53,54
 92 211 92 211 92 114 c 0,55,56
 92 71 92 71 126.5 48.5 c 128,-1,57
 161 26 161 26 218 26 c 0,47,48
EndSplineSet
Substitution2: "'smcp' Lowercase to Small Capitals lookup 12 subtable" ae.sc
Substitution2: "'aalt' Access All Alternates lookup 0 subtable" ae.sc
EndChar

StartChar: ccedilla
Encoding: 231 231 169
Width: 540
GlyphClass: 2
Flags: W
LayerCount: 2
Fore
SplineSet
495 137 m 1,0,1
 479 74 479 74 429 35 c 128,-1,2
 379 -4 379 -4 309 -9 c 1,3,4
 377 -51 377 -51 377 -114 c 0,5,6
 377 -154 377 -154 350 -180.5 c 128,-1,7
 323 -207 323 -207 278 -207 c 0,8,9
 212 -207 212 -207 178 -168 c 1,10,-1
 194 -139 l 1,11,12
 225 -176 225 -176 274 -176 c 0,13,14
 303 -176 303 -176 321.5 -158 c 128,-1,15
 340 -140 340 -140 340 -110 c 128,-1,16
 340 -80 340 -80 322 -57.5 c 128,-1,17
 304 -35 304 -35 255 -8 c 1,18,19
 160 2 160 2 107.5 70 c 128,-1,20
 55 138 55 138 55 250 c 0,21,22
 55 372 55 372 117.5 441 c 128,-1,23
 180 510 180 510 290 510 c 0,24,25
 365 510 365 510 417 474.5 c 128,-1,26
 469 439 469 439 491 375 c 1,27,-1
 453 356 l 1,28,29
 436 413 436 413 394 443.5 c 128,-1,30
 352 474 352 474 289 474 c 0,31,32
 198 474 198 474 147 414.5 c 128,-1,33
 96 355 96 355 96 250 c 128,-1,34
 96 145 96 145 146.5 85.5 c 128,-1,35
 197 26 197 26 287 26 c 0,36,37
 354 26 354 26 400.5 59.5 c 128,-1,38
 447 93 447 93 458 150 c 1,39,-1
 495 137 l 1,0,1
EndSplineSet
Substitution2: "'smcp' Lowercase to Small Capitals lookup 12 subtable" ccedilla.sc
Substitution2: "'aalt' Access All Alternates lookup 0 subtable" ccedilla.sc
EndChar

StartChar: egrave
Encoding: 232 232 170
Width: 552
GlyphClass: 2
Flags: W
AnchorPoint: "Anchor-0" 292 0 basechar 0
LayerCount: 2
Fore
SplineSet
303 583 m 1,0,-1
 269 583 l 1,1,-1
 177 738 l 1,2,-1
 222 738 l 1,3,-1
 303 583 l 1,0,-1
500 258 m 0,4,5
 500 252 500 252 499.5 243 c 128,-1,6
 499 234 499 234 499 232 c 2,7,-1
 96 232 l 1,8,9
 101 134 101 134 151.5 80 c 128,-1,10
 202 26 202 26 289 26 c 0,11,12
 349 26 349 26 394 51.5 c 128,-1,13
 439 77 439 77 460 123 c 1,14,-1
 494 105 l 1,15,16
 436 -10 436 -10 289 -10 c 0,17,18
 179 -10 179 -10 117 59 c 128,-1,19
 55 128 55 128 55 250 c 128,-1,20
 55 372 55 372 115.5 441 c 128,-1,21
 176 510 176 510 284 510 c 0,22,23
 385 510 385 510 442.5 441.5 c 128,-1,24
 500 373 500 373 500 258 c 0,4,5
284 474 m 0,25,26
 199 474 199 474 150 420 c 128,-1,27
 101 366 101 366 96 268 c 1,28,-1
 462 268 l 1,29,30
 457 366 457 366 411.5 420 c 128,-1,31
 366 474 366 474 284 474 c 0,25,26
EndSplineSet
Substitution2: "'smcp' Lowercase to Small Capitals lookup 12 subtable" egrave.sc
Substitution2: "'aalt' Access All Alternates lookup 0 subtable" egrave.sc
EndChar

StartChar: eacute
Encoding: 233 233 171
Width: 552
GlyphClass: 2
Flags: W
AnchorPoint: "Anchor-0" 292 0 basechar 0
LayerCount: 2
Fore
SplineSet
383 738 m 1,0,-1
 291 583 l 1,1,-1
 257 583 l 1,2,-1
 338 738 l 1,3,-1
 383 738 l 1,0,-1
500 258 m 0,4,5
 500 252 500 252 499.5 243 c 128,-1,6
 499 234 499 234 499 232 c 2,7,-1
 96 232 l 1,8,9
 101 134 101 134 151.5 80 c 128,-1,10
 202 26 202 26 289 26 c 0,11,12
 349 26 349 26 394 51.5 c 128,-1,13
 439 77 439 77 460 123 c 1,14,-1
 494 105 l 1,15,16
 436 -10 436 -10 289 -10 c 0,17,18
 179 -10 179 -10 117 59 c 128,-1,19
 55 128 55 128 55 250 c 128,-1,20
 55 372 55 372 115.5 441 c 128,-1,21
 176 510 176 510 284 510 c 0,22,23
 385 510 385 510 442.5 441.5 c 128,-1,24
 500 373 500 373 500 258 c 0,4,5
284 474 m 0,25,26
 199 474 199 474 150 420 c 128,-1,27
 101 366 101 366 96 268 c 1,28,-1
 462 268 l 1,29,30
 457 366 457 366 411.5 420 c 128,-1,31
 366 474 366 474 284 474 c 0,25,26
EndSplineSet
Substitution2: "'smcp' Lowercase to Small Capitals lookup 12 subtable" eacute.sc
Substitution2: "'aalt' Access All Alternates lookup 0 subtable" eacute.sc
EndChar

StartChar: ecircumflex
Encoding: 234 234 172
Width: 552
GlyphClass: 2
Flags: W
AnchorPoint: "Anchor-0" 292 0 basechar 0
LayerCount: 2
Fore
SplineSet
280 702 m 1,0,-1
 186 580 l 1,1,-1
 147 580 l 1,2,-1
 257 732 l 1,3,-1
 303 732 l 1,4,-1
 413 580 l 1,5,-1
 374 580 l 1,6,-1
 280 702 l 1,0,-1
500 258 m 0,7,8
 500 252 500 252 499.5 243 c 128,-1,9
 499 234 499 234 499 232 c 2,10,-1
 96 232 l 1,11,12
 101 134 101 134 151.5 80 c 128,-1,13
 202 26 202 26 289 26 c 0,14,15
 349 26 349 26 394 51.5 c 128,-1,16
 439 77 439 77 460 123 c 1,17,-1
 494 105 l 1,18,19
 436 -10 436 -10 289 -10 c 0,20,21
 179 -10 179 -10 117 59 c 128,-1,22
 55 128 55 128 55 250 c 128,-1,23
 55 372 55 372 115.5 441 c 128,-1,24
 176 510 176 510 284 510 c 0,25,26
 385 510 385 510 442.5 441.5 c 128,-1,27
 500 373 500 373 500 258 c 0,7,8
284 474 m 0,28,29
 199 474 199 474 150 420 c 128,-1,30
 101 366 101 366 96 268 c 1,31,-1
 462 268 l 1,32,33
 457 366 457 366 411.5 420 c 128,-1,34
 366 474 366 474 284 474 c 0,28,29
EndSplineSet
Substitution2: "'smcp' Lowercase to Small Capitals lookup 12 subtable" ecircumflex.sc
Substitution2: "'aalt' Access All Alternates lookup 0 subtable" ecircumflex.sc
EndChar

StartChar: edieresis
Encoding: 235 235 173
Width: 552
GlyphClass: 2
Flags: W
AnchorPoint: "Anchor-0" 292 0 basechar 0
LayerCount: 2
Fore
SplineSet
185 592 m 128,-1,1
 169 592 169 592 159.5 601.5 c 128,-1,2
 150 611 150 611 150 627 c 128,-1,3
 150 643 150 643 159.5 653 c 128,-1,4
 169 663 169 663 185 663 c 0,5,6
 202 663 202 663 211.5 653.5 c 128,-1,7
 221 644 221 644 221 627 c 0,8,9
 221 611 221 611 211 601.5 c 128,-1,0
 201 592 201 592 185 592 c 128,-1,1
373 592 m 128,-1,11
 357 592 357 592 347.5 601.5 c 128,-1,12
 338 611 338 611 338 627 c 128,-1,13
 338 643 338 643 347.5 653 c 128,-1,14
 357 663 357 663 373 663 c 0,15,16
 390 663 390 663 399.5 653.5 c 128,-1,17
 409 644 409 644 409 627 c 0,18,19
 409 611 409 611 399 601.5 c 128,-1,10
 389 592 389 592 373 592 c 128,-1,11
500 258 m 0,20,21
 500 252 500 252 499.5 243 c 128,-1,22
 499 234 499 234 499 232 c 2,23,-1
 96 232 l 1,24,25
 101 134 101 134 151.5 80 c 128,-1,26
 202 26 202 26 289 26 c 0,27,28
 349 26 349 26 394 51.5 c 128,-1,29
 439 77 439 77 460 123 c 1,30,-1
 494 105 l 1,31,32
 436 -10 436 -10 289 -10 c 0,33,34
 179 -10 179 -10 117 59 c 128,-1,35
 55 128 55 128 55 250 c 128,-1,36
 55 372 55 372 115.5 441 c 128,-1,37
 176 510 176 510 284 510 c 0,38,39
 385 510 385 510 442.5 441.5 c 128,-1,40
 500 373 500 373 500 258 c 0,20,21
284 474 m 0,41,42
 199 474 199 474 150 420 c 128,-1,43
 101 366 101 366 96 268 c 1,44,-1
 462 268 l 1,45,46
 457 366 457 366 411.5 420 c 128,-1,47
 366 474 366 474 284 474 c 0,41,42
EndSplineSet
Substitution2: "'smcp' Lowercase to Small Capitals lookup 12 subtable" edieresis.sc
Substitution2: "'aalt' Access All Alternates lookup 0 subtable" edieresis.sc
EndChar

StartChar: igrave
Encoding: 236 236 174
Width: 217
GlyphClass: 2
Flags: W
LayerCount: 2
Fore
SplineSet
50 738 m 1,0,-1
 131 583 l 1,1,-1
 97 583 l 1,2,-1
 5 738 l 1,3,-1
 50 738 l 1,0,-1
129 500 m 1,4,-1
 129 0 l 1,5,-1
 88 0 l 1,6,-1
 88 500 l 1,7,-1
 129 500 l 1,4,-1
EndSplineSet
Substitution2: "'smcp' Lowercase to Small Capitals lookup 12 subtable" igrave.sc
Substitution2: "'aalt' Access All Alternates lookup 0 subtable" igrave.sc
EndChar

StartChar: iacute
Encoding: 237 237 175
Width: 217
GlyphClass: 2
Flags: W
LayerCount: 2
Fore
SplineSet
166 738 m 1,0,-1
 211 738 l 1,1,-1
 119 583 l 1,2,-1
 85 583 l 1,3,-1
 166 738 l 1,0,-1
129 500 m 1,4,-1
 129 0 l 1,5,-1
 88 0 l 1,6,-1
 88 500 l 1,7,-1
 129 500 l 1,4,-1
EndSplineSet
Substitution2: "'smcp' Lowercase to Small Capitals lookup 12 subtable" iacute.sc
Substitution2: "'aalt' Access All Alternates lookup 0 subtable" iacute.sc
EndChar

StartChar: icircumflex
Encoding: 238 238 176
Width: 217
GlyphClass: 2
Flags: W
LayerCount: 2
Fore
SplineSet
241 580 m 1,0,-1
 202 580 l 1,1,-1
 108 702 l 1,2,-1
 14 580 l 1,3,-1
 -25 580 l 1,4,-1
 85 732 l 1,5,-1
 131 732 l 1,6,-1
 241 580 l 1,0,-1
129 500 m 1,7,-1
 129 0 l 1,8,-1
 88 0 l 1,9,-1
 88 500 l 1,10,-1
 129 500 l 1,7,-1
EndSplineSet
Substitution2: "'smcp' Lowercase to Small Capitals lookup 12 subtable" icircumflex.sc
Substitution2: "'aalt' Access All Alternates lookup 0 subtable" icircumflex.sc
EndChar

StartChar: idieresis
Encoding: 239 239 177
Width: 217
GlyphClass: 2
Flags: W
LayerCount: 2
Fore
SplineSet
47 592 m 128,-1,1
 31 592 31 592 21 601.5 c 128,-1,2
 11 611 11 611 11 627 c 128,-1,3
 11 643 11 643 21 653 c 128,-1,4
 31 663 31 663 47 663 c 0,5,6
 64 663 64 663 73.5 653.5 c 128,-1,7
 83 644 83 644 83 627 c 0,8,9
 83 611 83 611 73 601.5 c 128,-1,0
 63 592 63 592 47 592 c 128,-1,1
170 592 m 128,-1,11
 154 592 154 592 144 601.5 c 128,-1,12
 134 611 134 611 134 627 c 128,-1,13
 134 643 134 643 144 653 c 128,-1,14
 154 663 154 663 170 663 c 128,-1,15
 186 663 186 663 196 653.5 c 128,-1,16
 206 644 206 644 206 627 c 0,17,18
 206 611 206 611 196 601.5 c 128,-1,10
 186 592 186 592 170 592 c 128,-1,11
129 500 m 1,19,-1
 129 0 l 1,20,-1
 88 0 l 1,21,-1
 88 500 l 1,22,-1
 129 500 l 1,19,-1
EndSplineSet
Substitution2: "'smcp' Lowercase to Small Capitals lookup 12 subtable" idieresis.sc
Substitution2: "'aalt' Access All Alternates lookup 0 subtable" idieresis.sc
EndChar

StartChar: eth
Encoding: 240 240 178
Width: 594
GlyphClass: 2
Flags: W
LayerCount: 2
Fore
SplineSet
536 634 m 1,0,-1
 431 612 l 1,1,2
 525 489 525 489 525 285 c 0,3,4
 525 143 525 143 464 66.5 c 128,-1,5
 403 -10 403 -10 291 -10 c 0,6,7
 182 -10 182 -10 118.5 57 c 128,-1,8
 55 124 55 124 55 237 c 0,9,10
 55 351 55 351 119 418 c 128,-1,11
 183 485 183 485 286 485 c 0,12,13
 433 485 433 485 485 371 c 1,14,15
 466 514 466 514 394 604 c 1,16,-1
 216 563 l 1,17,-1
 210 590 l 1,18,-1
 376 625 l 1,19,20
 319 687 319 687 226 730 c 1,21,-1
 288 730 l 1,22,23
 361 693 361 693 414 634 c 1,24,-1
 528 662 l 1,25,-1
 536 634 l 1,0,-1
293 26 m 0,26,27
 381 26 381 26 432.5 86.5 c 128,-1,28
 484 147 484 147 486 250 c 0,29,30
 486 335 486 335 434 392 c 128,-1,31
 382 449 382 449 290 449 c 0,32,33
 201 449 201 449 149 391.5 c 128,-1,34
 97 334 97 334 97 237 c 0,35,36
 97 139 97 139 149.5 82.5 c 128,-1,37
 202 26 202 26 293 26 c 0,26,27
EndSplineSet
Substitution2: "'smcp' Lowercase to Small Capitals lookup 12 subtable" eth.sc
Substitution2: "'aalt' Access All Alternates lookup 0 subtable" eth.sc
EndChar

StartChar: ntilde
Encoding: 241 241 179
Width: 592
GlyphClass: 2
Flags: W
AnchorPoint: "Anchor-0" 330 0 basechar 0
LayerCount: 2
Fore
SplineSet
231 661 m 0,0,1
 203 661 203 661 190 644.5 c 128,-1,2
 177 628 177 628 170 592 c 1,3,-1
 136 592 l 1,4,5
 144 645 144 645 166.5 670 c 128,-1,6
 189 695 189 695 232 695 c 0,7,8
 264 695 264 695 287.5 678 c 128,-1,9
 311 661 311 661 331 644 c 128,-1,10
 351 627 351 627 374 627 c 0,11,12
 402 627 402 627 416 644 c 128,-1,13
 430 661 430 661 436 696 c 1,14,-1
 470 696 l 1,15,16
 457 593 457 593 375 593 c 0,17,18
 342 593 342 593 318.5 610 c 128,-1,19
 295 627 295 627 275 644 c 128,-1,20
 255 661 255 661 231 661 c 0,0,1
320 510 m 0,21,22
 406 510 406 510 457.5 462 c 128,-1,23
 509 414 509 414 509 325 c 2,24,-1
 509 0 l 1,25,-1
 468 0 l 1,26,-1
 468 313 l 2,27,28
 468 392 468 392 427 433 c 128,-1,29
 386 474 386 474 315 474 c 0,30,31
 238 474 238 474 183.5 422 c 128,-1,32
 129 370 129 370 129 287 c 2,33,-1
 129 0 l 1,34,-1
 88 0 l 1,35,-1
 88 500 l 1,36,-1
 125 500 l 1,37,-1
 127 392 l 1,38,39
 150 448 150 448 201.5 479 c 128,-1,40
 253 510 253 510 320 510 c 0,21,22
EndSplineSet
Substitution2: "Single Substitution lookup 57 subtable" ntilde.swsh
Substitution2: "'swsh' Swash lookup 38 subtable" ntilde.swsh
Substitution2: "'smcp' Lowercase to Small Capitals lookup 12 subtable" ntilde.sc
AlternateSubs2: "'aalt' Access All Alternates lookup 1 subtable" ntilde.sc ntilde.swsh
EndChar

StartChar: ograve
Encoding: 242 242 180
Width: 584
GlyphClass: 2
Flags: W
LayerCount: 2
Fore
SplineSet
234 738 m 1,0,-1
 315 583 l 1,1,-1
 281 583 l 1,2,-1
 189 738 l 1,3,-1
 234 738 l 1,0,-1
292 510 m 0,4,5
 403 510 403 510 466 441 c 128,-1,6
 529 372 529 372 529 250 c 128,-1,7
 529 128 529 128 466 59 c 128,-1,8
 403 -10 403 -10 292 -10 c 0,9,10
 182 -10 182 -10 118.5 59.5 c 128,-1,11
 55 129 55 129 55 250 c 128,-1,12
 55 371 55 371 118.5 440.5 c 128,-1,13
 182 510 182 510 292 510 c 0,4,5
292 475 m 128,-1,15
 201 475 201 475 148.5 415 c 128,-1,16
 96 355 96 355 96 250 c 128,-1,17
 96 145 96 145 148.5 85 c 128,-1,18
 201 25 201 25 292 25 c 128,-1,19
 383 25 383 25 435.5 85 c 128,-1,20
 488 145 488 145 488 250 c 128,-1,21
 488 355 488 355 435.5 415 c 128,-1,14
 383 475 383 475 292 475 c 128,-1,15
EndSplineSet
Substitution2: "'smcp' Lowercase to Small Capitals lookup 12 subtable" ograve.sc
Substitution2: "'aalt' Access All Alternates lookup 0 subtable" ograve.sc
EndChar

StartChar: oacute
Encoding: 243 243 181
Width: 584
GlyphClass: 2
Flags: W
LayerCount: 2
Fore
SplineSet
350 738 m 1,0,-1
 395 738 l 1,1,-1
 303 583 l 1,2,-1
 269 583 l 1,3,-1
 350 738 l 1,0,-1
292 510 m 0,4,5
 403 510 403 510 466 441 c 128,-1,6
 529 372 529 372 529 250 c 128,-1,7
 529 128 529 128 466 59 c 128,-1,8
 403 -10 403 -10 292 -10 c 0,9,10
 182 -10 182 -10 118.5 59.5 c 128,-1,11
 55 129 55 129 55 250 c 128,-1,12
 55 371 55 371 118.5 440.5 c 128,-1,13
 182 510 182 510 292 510 c 0,4,5
292 475 m 128,-1,15
 201 475 201 475 148.5 415 c 128,-1,16
 96 355 96 355 96 250 c 128,-1,17
 96 145 96 145 148.5 85 c 128,-1,18
 201 25 201 25 292 25 c 128,-1,19
 383 25 383 25 435.5 85 c 128,-1,20
 488 145 488 145 488 250 c 128,-1,21
 488 355 488 355 435.5 415 c 128,-1,14
 383 475 383 475 292 475 c 128,-1,15
EndSplineSet
Substitution2: "'smcp' Lowercase to Small Capitals lookup 12 subtable" oacute.sc
Substitution2: "'aalt' Access All Alternates lookup 0 subtable" oacute.sc
EndChar

StartChar: ocircumflex
Encoding: 244 244 182
Width: 584
GlyphClass: 2
Flags: W
LayerCount: 2
Fore
SplineSet
425 580 m 1,0,-1
 386 580 l 1,1,-1
 292 702 l 1,2,-1
 198 580 l 1,3,-1
 159 580 l 1,4,-1
 269 732 l 1,5,-1
 315 732 l 1,6,-1
 425 580 l 1,0,-1
292 510 m 0,7,8
 403 510 403 510 466 441 c 128,-1,9
 529 372 529 372 529 250 c 128,-1,10
 529 128 529 128 466 59 c 128,-1,11
 403 -10 403 -10 292 -10 c 0,12,13
 182 -10 182 -10 118.5 59.5 c 128,-1,14
 55 129 55 129 55 250 c 128,-1,15
 55 371 55 371 118.5 440.5 c 128,-1,16
 182 510 182 510 292 510 c 0,7,8
292 475 m 128,-1,18
 201 475 201 475 148.5 415 c 128,-1,19
 96 355 96 355 96 250 c 128,-1,20
 96 145 96 145 148.5 85 c 128,-1,21
 201 25 201 25 292 25 c 128,-1,22
 383 25 383 25 435.5 85 c 128,-1,23
 488 145 488 145 488 250 c 128,-1,24
 488 355 488 355 435.5 415 c 128,-1,17
 383 475 383 475 292 475 c 128,-1,18
EndSplineSet
Substitution2: "'smcp' Lowercase to Small Capitals lookup 12 subtable" ocircumflex.sc
Substitution2: "'aalt' Access All Alternates lookup 0 subtable" ocircumflex.sc
EndChar

StartChar: otilde
Encoding: 245 245 183
Width: 584
GlyphClass: 2
Flags: W
LayerCount: 2
Fore
SplineSet
459 696 m 1,0,1
 446 593 446 593 364 593 c 0,2,3
 331 593 331 593 307.5 610 c 128,-1,4
 284 627 284 627 264 644 c 128,-1,5
 244 661 244 661 220 661 c 0,6,7
 192 661 192 661 179 644.5 c 128,-1,8
 166 628 166 628 159 592 c 1,9,-1
 125 592 l 1,10,11
 133 645 133 645 155.5 670 c 128,-1,12
 178 695 178 695 221 695 c 0,13,14
 253 695 253 695 276.5 678 c 128,-1,15
 300 661 300 661 320 644 c 128,-1,16
 340 627 340 627 363 627 c 0,17,18
 391 627 391 627 405 644 c 128,-1,19
 419 661 419 661 425 696 c 1,20,-1
 459 696 l 1,0,1
292 510 m 0,21,22
 403 510 403 510 466 441 c 128,-1,23
 529 372 529 372 529 250 c 128,-1,24
 529 128 529 128 466 59 c 128,-1,25
 403 -10 403 -10 292 -10 c 0,26,27
 182 -10 182 -10 118.5 59.5 c 128,-1,28
 55 129 55 129 55 250 c 128,-1,29
 55 371 55 371 118.5 440.5 c 128,-1,30
 182 510 182 510 292 510 c 0,21,22
292 475 m 128,-1,32
 201 475 201 475 148.5 415 c 128,-1,33
 96 355 96 355 96 250 c 128,-1,34
 96 145 96 145 148.5 85 c 128,-1,35
 201 25 201 25 292 25 c 128,-1,36
 383 25 383 25 435.5 85 c 128,-1,37
 488 145 488 145 488 250 c 128,-1,38
 488 355 488 355 435.5 415 c 128,-1,31
 383 475 383 475 292 475 c 128,-1,32
EndSplineSet
Substitution2: "'smcp' Lowercase to Small Capitals lookup 12 subtable" otilde.sc
Substitution2: "'aalt' Access All Alternates lookup 0 subtable" otilde.sc
EndChar

StartChar: odieresis
Encoding: 246 246 184
Width: 584
GlyphClass: 2
Flags: W
LayerCount: 2
Fore
SplineSet
197 663 m 0,0,1
 214 663 214 663 223.5 653.5 c 128,-1,2
 233 644 233 644 233 627 c 0,3,4
 233 611 233 611 223 601.5 c 128,-1,5
 213 592 213 592 197 592 c 128,-1,6
 181 592 181 592 171.5 601.5 c 128,-1,7
 162 611 162 611 162 627 c 128,-1,8
 162 643 162 643 171.5 653 c 128,-1,9
 181 663 181 663 197 663 c 0,0,1
385 663 m 0,10,11
 402 663 402 663 411.5 653.5 c 128,-1,12
 421 644 421 644 421 627 c 0,13,14
 421 611 421 611 411 601.5 c 128,-1,15
 401 592 401 592 385 592 c 128,-1,16
 369 592 369 592 359.5 601.5 c 128,-1,17
 350 611 350 611 350 627 c 128,-1,18
 350 643 350 643 359.5 653 c 128,-1,19
 369 663 369 663 385 663 c 0,10,11
292 510 m 0,20,21
 403 510 403 510 466 441 c 128,-1,22
 529 372 529 372 529 250 c 128,-1,23
 529 128 529 128 466 59 c 128,-1,24
 403 -10 403 -10 292 -10 c 0,25,26
 182 -10 182 -10 118.5 59.5 c 128,-1,27
 55 129 55 129 55 250 c 128,-1,28
 55 371 55 371 118.5 440.5 c 128,-1,29
 182 510 182 510 292 510 c 0,20,21
292 475 m 128,-1,31
 201 475 201 475 148.5 415 c 128,-1,32
 96 355 96 355 96 250 c 128,-1,33
 96 145 96 145 148.5 85 c 128,-1,34
 201 25 201 25 292 25 c 128,-1,35
 383 25 383 25 435.5 85 c 128,-1,36
 488 145 488 145 488 250 c 128,-1,37
 488 355 488 355 435.5 415 c 128,-1,30
 383 475 383 475 292 475 c 128,-1,31
EndSplineSet
Substitution2: "'smcp' Lowercase to Small Capitals lookup 12 subtable" odieresis.sc
Substitution2: "'aalt' Access All Alternates lookup 0 subtable" odieresis.sc
EndChar

StartChar: divide
Encoding: 247 247 185
Width: 604
GlyphClass: 2
Flags: W
LayerCount: 2
Fore
SplineSet
302 544 m 128,-1,1
 319 544 319 544 330 533.5 c 128,-1,2
 341 523 341 523 341 506 c 0,3,4
 341 488 341 488 330 477.5 c 128,-1,5
 319 467 319 467 302 467 c 128,-1,6
 285 467 285 467 274 477.5 c 128,-1,7
 263 488 263 488 263 506 c 0,8,9
 263 523 263 523 274 533.5 c 128,-1,0
 285 544 285 544 302 544 c 128,-1,1
534 335 m 1,10,-1
 534 297 l 1,11,-1
 70 297 l 1,12,-1
 70 335 l 1,13,-1
 534 335 l 1,10,-1
302 166 m 128,-1,15
 319 166 319 166 330 155 c 128,-1,16
 341 144 341 144 341 127 c 128,-1,17
 341 110 341 110 330 99.5 c 128,-1,18
 319 89 319 89 302 89 c 128,-1,19
 285 89 285 89 274 99.5 c 128,-1,20
 263 110 263 110 263 127 c 128,-1,21
 263 144 263 144 274 155 c 128,-1,14
 285 166 285 166 302 166 c 128,-1,15
EndSplineSet
EndChar

StartChar: oslash
Encoding: 248 248 186
Width: 585
GlyphClass: 2
Flags: W
LayerCount: 2
Fore
SplineSet
292 510 m 0,0,1
 382 510 382 510 442 462 c 1,2,-1
 493 527 l 1,3,-1
 532 527 l 1,4,-1
 465 442 l 1,5,6
 529 373 529 373 529 250 c 0,7,8
 529 128 529 128 466 59 c 128,-1,9
 403 -10 403 -10 292 -10 c 0,10,11
 206 -10 206 -10 148 34 c 1,12,-1
 96 -33 l 1,13,-1
 57 -33 l 1,14,-1
 124 53 l 1,15,16
 55 124 55 124 55 250 c 0,17,18
 55 371 55 371 118.5 440.5 c 128,-1,19
 182 510 182 510 292 510 c 0,0,1
149 86 m 1,20,-1
 150 86 l 1,21,-1
 179 125 l 1,22,-1
 419 432 l 1,23,24
 368 475 368 475 292 475 c 0,25,26
 201 475 201 475 148.5 415 c 128,-1,27
 96 355 96 355 96 250 c 128,-1,28
 96 145 96 145 149 86 c 1,20,-1
292 25 m 0,29,30
 383 25 383 25 435.5 85 c 128,-1,31
 488 145 488 145 488 250 c 0,32,33
 488 349 488 349 440 409 c 1,34,-1
 439 409 l 1,35,-1
 415 377 l 1,36,-1
 172 64 l 1,37,38
 220 25 220 25 292 25 c 0,29,30
EndSplineSet
Substitution2: "'smcp' Lowercase to Small Capitals lookup 12 subtable" oslash.sc
Substitution2: "'aalt' Access All Alternates lookup 0 subtable" oslash.sc
EndChar

StartChar: ugrave
Encoding: 249 249 187
Width: 585
GlyphClass: 2
Flags: W
LayerCount: 2
Fore
SplineSet
314 583 m 1,0,-1
 280 583 l 1,1,-1
 188 738 l 1,2,-1
 233 738 l 1,3,-1
 314 583 l 1,0,-1
456 500 m 1,4,-1
 497 500 l 1,5,-1
 497 0 l 1,6,-1
 460 0 l 1,7,-1
 458 107 l 1,8,9
 435 51 435 51 383 20.5 c 128,-1,10
 331 -10 331 -10 261 -10 c 0,11,12
 179 -10 179 -10 131 35.5 c 128,-1,13
 83 81 83 81 83 169 c 2,14,-1
 83 500 l 1,15,-1
 124 500 l 1,16,-1
 124 179 l 2,17,18
 124 26 124 26 268 26 c 0,19,20
 354 26 354 26 405 80.5 c 128,-1,21
 456 135 456 135 456 209 c 2,22,-1
 456 500 l 1,4,-1
EndSplineSet
Substitution2: "'smcp' Lowercase to Small Capitals lookup 12 subtable" ugrave.sc
Substitution2: "'aalt' Access All Alternates lookup 0 subtable" ugrave.sc
EndChar

StartChar: uacute
Encoding: 250 250 188
Width: 585
GlyphClass: 2
Flags: W
LayerCount: 2
Fore
SplineSet
394 738 m 1,0,-1
 302 583 l 1,1,-1
 268 583 l 1,2,-1
 349 738 l 1,3,-1
 394 738 l 1,0,-1
456 500 m 1,4,-1
 497 500 l 1,5,-1
 497 0 l 1,6,-1
 460 0 l 1,7,-1
 458 107 l 1,8,9
 435 51 435 51 383 20.5 c 128,-1,10
 331 -10 331 -10 261 -10 c 0,11,12
 179 -10 179 -10 131 35.5 c 128,-1,13
 83 81 83 81 83 169 c 2,14,-1
 83 500 l 1,15,-1
 124 500 l 1,16,-1
 124 179 l 2,17,18
 124 26 124 26 268 26 c 0,19,20
 354 26 354 26 405 80.5 c 128,-1,21
 456 135 456 135 456 209 c 2,22,-1
 456 500 l 1,4,-1
EndSplineSet
Substitution2: "'smcp' Lowercase to Small Capitals lookup 12 subtable" uacute.sc
Substitution2: "'aalt' Access All Alternates lookup 0 subtable" uacute.sc
EndChar

StartChar: ucircumflex
Encoding: 251 251 189
Width: 585
GlyphClass: 2
Flags: W
LayerCount: 2
Fore
SplineSet
291 702 m 1,0,-1
 197 580 l 1,1,-1
 158 580 l 1,2,-1
 268 732 l 1,3,-1
 314 732 l 1,4,-1
 424 580 l 1,5,-1
 385 580 l 1,6,-1
 291 702 l 1,0,-1
456 500 m 1,7,-1
 497 500 l 1,8,-1
 497 0 l 1,9,-1
 460 0 l 1,10,-1
 458 107 l 1,11,12
 435 51 435 51 383 20.5 c 128,-1,13
 331 -10 331 -10 261 -10 c 0,14,15
 179 -10 179 -10 131 35.5 c 128,-1,16
 83 81 83 81 83 169 c 2,17,-1
 83 500 l 1,18,-1
 124 500 l 1,19,-1
 124 179 l 2,20,21
 124 26 124 26 268 26 c 0,22,23
 354 26 354 26 405 80.5 c 128,-1,24
 456 135 456 135 456 209 c 2,25,-1
 456 500 l 1,7,-1
EndSplineSet
Substitution2: "'smcp' Lowercase to Small Capitals lookup 12 subtable" ucircumflex.sc
Substitution2: "'aalt' Access All Alternates lookup 0 subtable" ucircumflex.sc
EndChar

StartChar: udieresis
Encoding: 252 252 190
Width: 585
GlyphClass: 2
Flags: W
LayerCount: 2
Fore
SplineSet
196 592 m 128,-1,1
 180 592 180 592 170.5 601.5 c 128,-1,2
 161 611 161 611 161 627 c 128,-1,3
 161 643 161 643 170.5 653 c 128,-1,4
 180 663 180 663 196 663 c 128,-1,5
 212 663 212 663 222 653.5 c 128,-1,6
 232 644 232 644 232 627 c 0,7,8
 232 611 232 611 222 601.5 c 128,-1,0
 212 592 212 592 196 592 c 128,-1,1
384 592 m 128,-1,10
 368 592 368 592 358.5 601.5 c 128,-1,11
 349 611 349 611 349 627 c 128,-1,12
 349 643 349 643 358.5 653 c 128,-1,13
 368 663 368 663 384 663 c 128,-1,14
 400 663 400 663 410 653.5 c 128,-1,15
 420 644 420 644 420 627 c 0,16,17
 420 611 420 611 410 601.5 c 128,-1,9
 400 592 400 592 384 592 c 128,-1,10
456 500 m 1,18,-1
 497 500 l 1,19,-1
 497 0 l 1,20,-1
 460 0 l 1,21,-1
 458 107 l 1,22,23
 435 51 435 51 383 20.5 c 128,-1,24
 331 -10 331 -10 261 -10 c 0,25,26
 179 -10 179 -10 131 35.5 c 128,-1,27
 83 81 83 81 83 169 c 2,28,-1
 83 500 l 1,29,-1
 124 500 l 1,30,-1
 124 179 l 2,31,32
 124 26 124 26 268 26 c 0,33,34
 354 26 354 26 405 80.5 c 128,-1,35
 456 135 456 135 456 209 c 2,36,-1
 456 500 l 1,18,-1
EndSplineSet
Substitution2: "'smcp' Lowercase to Small Capitals lookup 12 subtable" udieresis.sc
Substitution2: "'aalt' Access All Alternates lookup 0 subtable" udieresis.sc
EndChar

StartChar: yacute
Encoding: 253 253 191
Width: 502
GlyphClass: 2
Flags: W
LayerCount: 2
Fore
SplineSet
313 738 m 1,0,-1
 358 738 l 1,1,-1
 266 583 l 1,2,-1
 232 583 l 1,3,-1
 313 738 l 1,0,-1
482 500 m 1,4,-1
 239 -94 l 2,5,6
 211 -162 211 -162 178 -188.5 c 128,-1,7
 145 -215 145 -215 94 -215 c 0,8,9
 32 -215 32 -215 3 -179 c 1,10,-1
 20 -145 l 1,11,12
 44 -179 44 -179 94 -179 c 0,13,14
 131 -179 131 -179 156 -158.5 c 128,-1,15
 181 -138 181 -138 203 -85 c 2,16,-1
 237 0 l 1,17,-1
 184 125 l 1,18,-1
 26 500 l 1,19,-1
 72 500 l 1,20,-1
 234 105 l 1,21,-1
 257 44 l 1,22,-1
 281 109 l 1,23,-1
 437 500 l 1,24,-1
 482 500 l 1,4,-1
EndSplineSet
Substitution2: "Single Substitution lookup 57 subtable" yacute.swsh
Substitution2: "'swsh' Swash lookup 38 subtable" yacute.swsh
Substitution2: "'smcp' Lowercase to Small Capitals lookup 12 subtable" yacute.sc
AlternateSubs2: "'aalt' Access All Alternates lookup 1 subtable" yacute.sc yacute.swsh
EndChar

StartChar: thorn
Encoding: 254 254 192
Width: 603
GlyphClass: 2
Flags: W
LayerCount: 2
Fore
SplineSet
318 510 m 0,0,1
 425 510 425 510 486 441 c 128,-1,2
 547 372 547 372 547 250 c 128,-1,3
 547 128 547 128 486 59 c 128,-1,4
 425 -10 425 -10 318 -10 c 0,5,6
 250 -10 250 -10 201 21.5 c 128,-1,7
 152 53 152 53 129 110 c 1,8,-1
 129 -210 l 1,9,-1
 88 -210 l 1,10,-1
 88 730 l 1,11,-1
 129 730 l 1,12,-1
 129 390 l 1,13,14
 152 447 152 447 201.5 478.5 c 128,-1,15
 251 510 251 510 318 510 c 0,0,1
313 26 m 0,16,17
 404 26 404 26 455 85.5 c 128,-1,18
 506 145 506 145 506 250 c 128,-1,19
 506 355 506 355 455 414.5 c 128,-1,20
 404 474 404 474 313 474 c 0,21,22
 229 474 229 474 179 415 c 128,-1,23
 129 356 129 356 129 254 c 2,24,-1
 129 245 l 2,25,26
 129 144 129 144 179 85 c 128,-1,27
 229 26 229 26 313 26 c 0,16,17
EndSplineSet
Substitution2: "'smcp' Lowercase to Small Capitals lookup 12 subtable" thorn.sc
Substitution2: "'aalt' Access All Alternates lookup 0 subtable" thorn.sc
EndChar

StartChar: ydieresis
Encoding: 255 255 193
Width: 502
GlyphClass: 2
Flags: W
LayerCount: 2
Fore
SplineSet
160 663 m 128,-1,1
 176 663 176 663 186 653.5 c 128,-1,2
 196 644 196 644 196 627 c 0,3,4
 196 611 196 611 186 601.5 c 128,-1,5
 176 592 176 592 160 592 c 128,-1,6
 144 592 144 592 134.5 601.5 c 128,-1,7
 125 611 125 611 125 627 c 128,-1,8
 125 643 125 643 134.5 653 c 128,-1,0
 144 663 144 663 160 663 c 128,-1,1
348 663 m 128,-1,10
 364 663 364 663 374 653.5 c 128,-1,11
 384 644 384 644 384 627 c 0,12,13
 384 611 384 611 374 601.5 c 128,-1,14
 364 592 364 592 348 592 c 128,-1,15
 332 592 332 592 322.5 601.5 c 128,-1,16
 313 611 313 611 313 627 c 128,-1,17
 313 643 313 643 322.5 653 c 128,-1,9
 332 663 332 663 348 663 c 128,-1,10
482 500 m 1,18,-1
 239 -94 l 2,19,20
 211 -162 211 -162 178 -188.5 c 128,-1,21
 145 -215 145 -215 94 -215 c 0,22,23
 32 -215 32 -215 3 -179 c 1,24,-1
 20 -145 l 1,25,26
 44 -179 44 -179 94 -179 c 0,27,28
 131 -179 131 -179 156 -158.5 c 128,-1,29
 181 -138 181 -138 203 -85 c 2,30,-1
 237 0 l 1,31,-1
 184 125 l 1,32,-1
 26 500 l 1,33,-1
 72 500 l 1,34,-1
 234 105 l 1,35,-1
 257 44 l 1,36,-1
 281 109 l 1,37,-1
 437 500 l 1,38,-1
 482 500 l 1,18,-1
EndSplineSet
Substitution2: "Single Substitution lookup 57 subtable" ydieresis.swsh
Substitution2: "'swsh' Swash lookup 38 subtable" ydieresis.swsh
Substitution2: "'smcp' Lowercase to Small Capitals lookup 12 subtable" ydieresis.sc
AlternateSubs2: "'aalt' Access All Alternates lookup 1 subtable" ydieresis.sc ydieresis.swsh
EndChar

StartChar: Amacron
Encoding: 256 256 194
Width: 615
GlyphClass: 2
Flags: W
LayerCount: 2
Fore
SplineSet
463 796 m 1,0,-1
 463 761 l 1,1,-1
 152 761 l 1,2,-1
 152 796 l 1,3,-1
 463 796 l 1,0,-1
554 0 m 1,4,-1
 468 214 l 1,5,-1
 147 214 l 1,6,-1
 61 0 l 1,7,-1
 17 0 l 1,8,-1
 284 660 l 1,9,-1
 332 660 l 1,10,-1
 597 0 l 1,11,-1
 554 0 l 1,4,-1
162 252 m 1,12,-1
 452 252 l 1,13,-1
 330 555 l 1,14,-1
 307 619 l 1,15,-1
 285 557 l 1,16,-1
 162 252 l 1,12,-1
EndSplineSet
Substitution2: "Single Substitution lookup 56 subtable" Amacron.swsh
Substitution2: "'swsh' Swash lookup 32 subtable" Amacron.swsh
Substitution2: "'c2sc' Capitals to Small Capitals lookup 11 subtable" amacron.sc
AlternateSubs2: "'aalt' Access All Alternates lookup 1 subtable" amacron.sc Amacron.swsh
EndChar

StartChar: amacron
Encoding: 257 257 195
Width: 536
GlyphClass: 2
Flags: W
LayerCount: 2
Fore
SplineSet
411 636 m 1,0,-1
 411 601 l 1,1,-1
 100 601 l 1,2,-1
 100 636 l 1,3,-1
 411 636 l 1,0,-1
488 25 m 0,4,5
 512 25 512 25 527 33 c 1,6,-1
 524 -1 l 1,7,8
 504 -10 504 -10 479 -10 c 0,9,10
 403 -10 403 -10 399 80 c 1,11,12
 376 37 376 37 323.5 13.5 c 128,-1,13
 271 -10 271 -10 212 -10 c 0,14,15
 138 -10 138 -10 94 22.5 c 128,-1,16
 50 55 50 55 50 114 c 128,-1,17
 50 173 50 173 96 209.5 c 128,-1,18
 142 246 142 246 239 264 c 2,19,-1
 398 292 l 1,20,-1
 398 341 l 2,21,22
 398 403 398 403 361 438.5 c 128,-1,23
 324 474 324 474 256 474 c 0,24,25
 133 474 133 474 91 365 c 1,26,-1
 60 388 l 1,27,28
 105 510 105 510 256 510 c 0,29,30
 342 510 342 510 390.5 467.5 c 128,-1,31
 439 425 439 425 439 345 c 2,32,-1
 439 83 l 2,33,34
 439 25 439 25 488 25 c 0,4,5
216 26 m 0,35,36
 284 26 284 26 341 61 c 128,-1,37
 398 96 398 96 398 158 c 2,38,-1
 398 258 l 1,39,-1
 254 231 l 2,40,41
 169 215 169 215 130.5 187 c 128,-1,42
 92 159 92 159 92 114 c 0,43,44
 92 72 92 72 125 49 c 128,-1,45
 158 26 158 26 216 26 c 0,35,36
EndSplineSet
Substitution2: "'smcp' Lowercase to Small Capitals lookup 12 subtable" amacron.sc
Substitution2: "'aalt' Access All Alternates lookup 0 subtable" amacron.sc
EndChar

StartChar: Abreve
Encoding: 258 258 196
Width: 615
GlyphClass: 2
Flags: W
LayerCount: 2
Fore
SplineSet
307 739 m 128,-1,1
 246 739 246 739 211 774.5 c 128,-1,2
 176 810 176 810 176 871 c 1,3,-1
 210 871 l 1,4,5
 210 827 210 827 236.5 799 c 128,-1,6
 263 771 263 771 307 771 c 128,-1,7
 351 771 351 771 377.5 799 c 128,-1,8
 404 827 404 827 404 871 c 1,9,-1
 439 871 l 1,10,11
 439 810 439 810 403.5 774.5 c 128,-1,0
 368 739 368 739 307 739 c 128,-1,1
554 0 m 1,12,-1
 468 214 l 1,13,-1
 147 214 l 1,14,-1
 61 0 l 1,15,-1
 17 0 l 1,16,-1
 284 660 l 1,17,-1
 332 660 l 1,18,-1
 597 0 l 1,19,-1
 554 0 l 1,12,-1
162 252 m 1,20,-1
 452 252 l 1,21,-1
 330 555 l 1,22,-1
 307 619 l 1,23,-1
 285 557 l 1,24,-1
 162 252 l 1,20,-1
EndSplineSet
Substitution2: "Single Substitution lookup 56 subtable" Abreve.swsh
Substitution2: "'swsh' Swash lookup 32 subtable" Abreve.swsh
Substitution2: "'c2sc' Capitals to Small Capitals lookup 11 subtable" abreve.sc
AlternateSubs2: "'aalt' Access All Alternates lookup 1 subtable" abreve.sc Abreve.swsh
EndChar

StartChar: abreve
Encoding: 259 259 197
Width: 536
GlyphClass: 2
Flags: W
LayerCount: 2
Fore
SplineSet
255 579 m 128,-1,1
 194 579 194 579 159 614.5 c 128,-1,2
 124 650 124 650 124 711 c 1,3,-1
 158 711 l 1,4,5
 158 667 158 667 184.5 639 c 128,-1,6
 211 611 211 611 255 611 c 128,-1,7
 299 611 299 611 325.5 639 c 128,-1,8
 352 667 352 667 352 711 c 1,9,-1
 387 711 l 1,10,11
 387 650 387 650 351.5 614.5 c 128,-1,0
 316 579 316 579 255 579 c 128,-1,1
488 25 m 0,12,13
 512 25 512 25 527 33 c 1,14,-1
 524 -1 l 1,15,16
 504 -10 504 -10 479 -10 c 0,17,18
 403 -10 403 -10 399 80 c 1,19,20
 376 37 376 37 323.5 13.5 c 128,-1,21
 271 -10 271 -10 212 -10 c 0,22,23
 138 -10 138 -10 94 22.5 c 128,-1,24
 50 55 50 55 50 114 c 128,-1,25
 50 173 50 173 96 209.5 c 128,-1,26
 142 246 142 246 239 264 c 2,27,-1
 398 292 l 1,28,-1
 398 341 l 2,29,30
 398 403 398 403 361 438.5 c 128,-1,31
 324 474 324 474 256 474 c 0,32,33
 133 474 133 474 91 365 c 1,34,-1
 60 388 l 1,35,36
 105 510 105 510 256 510 c 0,37,38
 342 510 342 510 390.5 467.5 c 128,-1,39
 439 425 439 425 439 345 c 2,40,-1
 439 83 l 2,41,42
 439 25 439 25 488 25 c 0,12,13
216 26 m 0,43,44
 284 26 284 26 341 61 c 128,-1,45
 398 96 398 96 398 158 c 2,46,-1
 398 258 l 1,47,-1
 254 231 l 2,48,49
 169 215 169 215 130.5 187 c 128,-1,50
 92 159 92 159 92 114 c 0,51,52
 92 72 92 72 125 49 c 128,-1,53
 158 26 158 26 216 26 c 0,43,44
EndSplineSet
Substitution2: "'smcp' Lowercase to Small Capitals lookup 12 subtable" abreve.sc
Substitution2: "'aalt' Access All Alternates lookup 0 subtable" abreve.sc
EndChar

StartChar: Aogonek
Encoding: 260 260 198
Width: 615
GlyphClass: 2
Flags: W
LayerCount: 2
Fore
SplineSet
601 -159 m 1,0,-1
 610 -187 l 1,1,2
 582 -207 582 -207 535 -207 c 0,3,4
 490 -207 490 -207 462 -184 c 128,-1,5
 434 -161 434 -161 434 -119 c 0,6,7
 434 -78 434 -78 461.5 -47.5 c 128,-1,8
 489 -17 489 -17 551 8 c 1,9,-1
 468 214 l 1,10,-1
 147 214 l 1,11,-1
 61 0 l 1,12,-1
 17 0 l 1,13,-1
 284 660 l 1,14,-1
 332 660 l 1,15,-1
 597 0 l 1,16,-1
 598 0 l 1,17,18
 526 -26 526 -26 497.5 -53.5 c 128,-1,19
 469 -81 469 -81 469 -117 c 0,20,21
 469 -145 469 -145 488.5 -160.5 c 128,-1,22
 508 -176 508 -176 538 -176 c 0,23,24
 578 -176 578 -176 601 -159 c 1,0,-1
162 252 m 1,25,-1
 452 252 l 1,26,-1
 330 555 l 1,27,-1
 307 619 l 1,28,-1
 285 557 l 1,29,-1
 162 252 l 1,25,-1
EndSplineSet
Substitution2: "Single Substitution lookup 56 subtable" Aogonek.swsh
Substitution2: "'swsh' Swash lookup 32 subtable" Aogonek.swsh
Substitution2: "'c2sc' Capitals to Small Capitals lookup 11 subtable" aogonek.sc
AlternateSubs2: "'aalt' Access All Alternates lookup 1 subtable" aogonek.sc Aogonek.swsh
EndChar

StartChar: aogonek
Encoding: 261 261 199
Width: 536
GlyphClass: 2
Flags: W
LayerCount: 2
Fore
SplineSet
456 -176 m 0,0,1
 495 -176 495 -176 516 -162 c 1,2,-1
 526 -190 l 1,3,4
 500 -207 500 -207 454 -207 c 0,5,6
 410 -207 410 -207 382 -184 c 128,-1,7
 354 -161 354 -161 354 -123 c 0,8,9
 354 -51 354 -51 455 -6 c 1,10,11
 404 11 404 11 399 80 c 1,12,13
 377 37 377 37 324 13.5 c 128,-1,14
 271 -10 271 -10 212 -10 c 0,15,16
 138 -10 138 -10 94 22.5 c 128,-1,17
 50 55 50 55 50 114 c 128,-1,18
 50 173 50 173 96 209.5 c 128,-1,19
 142 246 142 246 239 264 c 2,20,-1
 398 292 l 1,21,-1
 398 341 l 2,22,23
 398 403 398 403 361 438.5 c 128,-1,24
 324 474 324 474 256 474 c 0,25,26
 134 474 134 474 91 365 c 1,27,-1
 60 388 l 1,28,29
 105 510 105 510 256 510 c 0,30,31
 342 510 342 510 390.5 467.5 c 128,-1,32
 439 425 439 425 439 345 c 2,33,-1
 439 83 l 2,34,35
 439 25 439 25 488 25 c 0,36,37
 512 25 512 25 527 33 c 1,38,-1
 524 -1 l 1,39,40
 450 -29 450 -29 419.5 -55.5 c 128,-1,41
 389 -82 389 -82 389 -118 c 0,42,43
 389 -145 389 -145 407.5 -160.5 c 128,-1,44
 426 -176 426 -176 456 -176 c 0,0,1
216 26 m 0,45,46
 284 26 284 26 341 61 c 128,-1,47
 398 96 398 96 398 158 c 2,48,-1
 398 258 l 1,49,-1
 254 231 l 2,50,51
 169 215 169 215 130.5 187 c 128,-1,52
 92 159 92 159 92 114 c 0,53,54
 92 72 92 72 125 49 c 128,-1,55
 158 26 158 26 216 26 c 0,45,46
EndSplineSet
Substitution2: "'smcp' Lowercase to Small Capitals lookup 12 subtable" aogonek.sc
Substitution2: "'aalt' Access All Alternates lookup 0 subtable" aogonek.sc
EndChar

StartChar: Cacute
Encoding: 262 262 200
Width: 663
GlyphClass: 2
Flags: W
LayerCount: 2
Fore
SplineSet
403 891 m 1,0,-1
 451 891 l 1,1,-1
 370 743 l 1,2,-1
 335 743 l 1,3,-1
 403 891 l 1,0,-1
622 167 m 1,4,5
 594 83 594 83 525 36.5 c 128,-1,6
 456 -10 456 -10 359 -10 c 0,7,8
 223 -10 223 -10 142 82 c 128,-1,9
 61 174 61 174 61 330 c 128,-1,10
 61 486 61 486 142 578 c 128,-1,11
 223 670 223 670 358 670 c 0,12,13
 558 670 558 670 614 504 c 1,14,-1
 574 485 l 1,15,16
 528 632 528 632 360 632 c 0,17,18
 244 632 244 632 173.5 550.5 c 128,-1,19
 103 469 103 469 103 330 c 128,-1,20
 103 191 103 191 173 109.5 c 128,-1,21
 243 28 243 28 359 28 c 0,22,23
 443 28 443 28 501 68 c 128,-1,24
 559 108 559 108 581 182 c 1,25,-1
 622 167 l 1,4,5
EndSplineSet
Substitution2: "'c2sc' Capitals to Small Capitals lookup 11 subtable" cacute.sc
Substitution2: "'aalt' Access All Alternates lookup 0 subtable" cacute.sc
EndChar

StartChar: cacute
Encoding: 263 263 201
Width: 540
GlyphClass: 2
Flags: W
LayerCount: 2
Fore
SplineSet
341 738 m 1,0,-1
 386 738 l 1,1,-1
 294 583 l 1,2,-1
 260 583 l 1,3,-1
 341 738 l 1,0,-1
290 510 m 0,4,5
 365 510 365 510 417 474.5 c 128,-1,6
 469 439 469 439 491 375 c 1,7,-1
 453 356 l 1,8,9
 436 413 436 413 394 443.5 c 128,-1,10
 352 474 352 474 289 474 c 0,11,12
 198 474 198 474 147 414.5 c 128,-1,13
 96 355 96 355 96 250 c 128,-1,14
 96 145 96 145 146.5 85.5 c 128,-1,15
 197 26 197 26 287 26 c 0,16,17
 354 26 354 26 400.5 59.5 c 128,-1,18
 447 93 447 93 458 150 c 1,19,-1
 495 137 l 1,20,21
 478 69 478 69 422 29.5 c 128,-1,22
 366 -10 366 -10 288 -10 c 0,23,24
 178 -10 178 -10 116.5 59 c 128,-1,25
 55 128 55 128 55 250 c 128,-1,26
 55 372 55 372 117.5 441 c 128,-1,27
 180 510 180 510 290 510 c 0,4,5
EndSplineSet
Substitution2: "'smcp' Lowercase to Small Capitals lookup 12 subtable" cacute.sc
Substitution2: "'aalt' Access All Alternates lookup 0 subtable" cacute.sc
EndChar

StartChar: Ccaron
Encoding: 268 268 202
Width: 663
GlyphClass: 2
Flags: W
LayerCount: 2
Fore
SplineSet
487 893 m 1,0,-1
 376 741 l 1,1,-1
 328 741 l 1,2,-1
 217 893 l 1,3,-1
 256 893 l 1,4,-1
 352 769 l 1,5,-1
 448 893 l 1,6,-1
 487 893 l 1,0,-1
622 167 m 1,7,8
 594 83 594 83 525 36.5 c 128,-1,9
 456 -10 456 -10 359 -10 c 0,10,11
 223 -10 223 -10 142 82 c 128,-1,12
 61 174 61 174 61 330 c 128,-1,13
 61 486 61 486 142 578 c 128,-1,14
 223 670 223 670 358 670 c 0,15,16
 558 670 558 670 614 504 c 1,17,-1
 574 485 l 1,18,19
 528 632 528 632 360 632 c 0,20,21
 244 632 244 632 173.5 550.5 c 128,-1,22
 103 469 103 469 103 330 c 128,-1,23
 103 191 103 191 173 109.5 c 128,-1,24
 243 28 243 28 359 28 c 0,25,26
 443 28 443 28 501 68 c 128,-1,27
 559 108 559 108 581 182 c 1,28,-1
 622 167 l 1,7,8
EndSplineSet
Substitution2: "'c2sc' Capitals to Small Capitals lookup 11 subtable" ccaron.sc
Substitution2: "'aalt' Access All Alternates lookup 0 subtable" ccaron.sc
EndChar

StartChar: ccaron
Encoding: 269 269 203
Width: 540
GlyphClass: 2
Flags: W
LayerCount: 2
Fore
SplineSet
416 735 m 1,0,-1
 306 583 l 1,1,-1
 260 583 l 1,2,-1
 150 735 l 1,3,-1
 189 735 l 1,4,-1
 283 613 l 1,5,-1
 377 735 l 1,6,-1
 416 735 l 1,0,-1
290 510 m 0,7,8
 365 510 365 510 417 474.5 c 128,-1,9
 469 439 469 439 491 375 c 1,10,-1
 453 356 l 1,11,12
 436 413 436 413 394 443.5 c 128,-1,13
 352 474 352 474 289 474 c 0,14,15
 198 474 198 474 147 414.5 c 128,-1,16
 96 355 96 355 96 250 c 128,-1,17
 96 145 96 145 146.5 85.5 c 128,-1,18
 197 26 197 26 287 26 c 0,19,20
 354 26 354 26 400.5 59.5 c 128,-1,21
 447 93 447 93 458 150 c 1,22,-1
 495 137 l 1,23,24
 478 69 478 69 422 29.5 c 128,-1,25
 366 -10 366 -10 288 -10 c 0,26,27
 178 -10 178 -10 116.5 59 c 128,-1,28
 55 128 55 128 55 250 c 128,-1,29
 55 372 55 372 117.5 441 c 128,-1,30
 180 510 180 510 290 510 c 0,7,8
EndSplineSet
Substitution2: "'smcp' Lowercase to Small Capitals lookup 12 subtable" ccaron.sc
Substitution2: "'aalt' Access All Alternates lookup 0 subtable" ccaron.sc
EndChar

StartChar: Dcaron
Encoding: 270 270 204
Width: 698
GlyphClass: 2
Flags: W
LayerCount: 2
Fore
SplineSet
339 741 m 1,0,-1
 291 741 l 1,1,-1
 180 893 l 1,2,-1
 219 893 l 1,3,-1
 315 769 l 1,4,-1
 411 893 l 1,5,-1
 450 893 l 1,6,-1
 339 741 l 1,0,-1
309 660 m 2,7,8
 468 660 468 660 552.5 577 c 128,-1,9
 637 494 637 494 637 336 c 0,10,11
 637 172 637 172 552.5 86 c 128,-1,12
 468 0 468 0 309 0 c 2,13,-1
 103 0 l 1,14,-1
 103 660 l 1,15,-1
 309 660 l 2,7,8
313 38 m 2,16,17
 450 38 450 38 522.5 114.5 c 128,-1,18
 595 191 595 191 595 336 c 0,19,20
 595 475 595 475 522.5 548.5 c 128,-1,21
 450 622 450 622 313 622 c 2,22,-1
 144 622 l 1,23,-1
 144 38 l 1,24,-1
 313 38 l 2,16,17
EndSplineSet
Substitution2: "'c2sc' Capitals to Small Capitals lookup 11 subtable" dcaron.sc
Substitution2: "'aalt' Access All Alternates lookup 0 subtable" dcaron.sc
EndChar

StartChar: dcaron
Encoding: 271 271 205
Width: 614
GlyphClass: 2
Flags: W
LayerCount: 2
Fore
SplineSet
473 385 m 1,0,-1
 473 730 l 1,1,-1
 514 730 l 1,2,-1
 514 0 l 1,3,-1
 477 0 l 1,4,-1
 475 121 l 1,5,6
 455 60 455 60 404.5 25 c 128,-1,7
 354 -10 354 -10 284 -10 c 0,8,9
 177 -10 177 -10 116.5 59 c 128,-1,10
 56 128 56 128 56 250 c 128,-1,11
 56 372 56 372 116.5 441 c 128,-1,12
 177 510 177 510 284 510 c 0,13,14
 352 510 352 510 401.5 477 c 128,-1,15
 451 444 451 444 473 385 c 1,0,-1
613 730 m 1,16,-1
 653 730 l 1,17,-1
 619 533 l 1,18,-1
 589 533 l 1,19,-1
 613 730 l 1,16,-1
290 26 m 0,20,21
 373 26 373 26 423 85 c 128,-1,22
 473 144 473 144 473 245 c 2,23,-1
 473 254 l 2,24,25
 473 356 473 356 423.5 415 c 128,-1,26
 374 474 374 474 290 474 c 0,27,28
 199 474 199 474 148 414.5 c 128,-1,29
 97 355 97 355 97 250 c 128,-1,30
 97 145 97 145 148 85.5 c 128,-1,31
 199 26 199 26 290 26 c 0,20,21
EndSplineSet
Substitution2: "'smcp' Lowercase to Small Capitals lookup 12 subtable" dcaron.sc
Substitution2: "'aalt' Access All Alternates lookup 0 subtable" dcaron.sc
EndChar

StartChar: Dcroat
Encoding: 272 272 206
Width: 709
GlyphClass: 2
Flags: W
LayerCount: 2
Fore
SplineSet
321 660 m 2,0,1
 480 660 480 660 564 577 c 128,-1,2
 648 494 648 494 648 336 c 0,3,4
 648 172 648 172 564 86 c 128,-1,5
 480 0 480 0 321 0 c 2,6,-1
 114 0 l 1,7,-1
 114 318 l 1,8,-1
 13 318 l 1,9,-1
 13 350 l 1,10,-1
 114 350 l 1,11,-1
 114 660 l 1,12,-1
 321 660 l 2,0,1
324 38 m 2,13,14
 461 38 461 38 533.5 114.5 c 128,-1,15
 606 191 606 191 606 336 c 0,16,17
 606 475 606 475 533.5 548.5 c 128,-1,18
 461 622 461 622 324 622 c 2,19,-1
 155 622 l 1,20,-1
 155 350 l 1,21,-1
 358 350 l 1,22,-1
 358 318 l 1,23,-1
 155 318 l 1,24,-1
 155 38 l 1,25,-1
 324 38 l 2,13,14
EndSplineSet
Substitution2: "'c2sc' Capitals to Small Capitals lookup 11 subtable" dcroat.sc
Substitution2: "'aalt' Access All Alternates lookup 0 subtable" dcroat.sc
EndChar

StartChar: dcroat
Encoding: 273 273 207
Width: 602
GlyphClass: 2
Flags: W
LayerCount: 2
Fore
SplineSet
604 614 m 1,0,-1
 604 583 l 1,1,-1
 514 583 l 1,2,-1
 514 0 l 1,3,-1
 477 0 l 1,4,-1
 475 121 l 1,5,6
 455 60 455 60 404.5 25 c 128,-1,7
 354 -10 354 -10 284 -10 c 0,8,9
 177 -10 177 -10 116.5 59 c 128,-1,10
 56 128 56 128 56 250 c 128,-1,11
 56 372 56 372 116.5 441 c 128,-1,12
 177 510 177 510 284 510 c 0,13,14
 352 510 352 510 401.5 477 c 128,-1,15
 451 444 451 444 473 385 c 1,16,-1
 473 583 l 1,17,-1
 301 583 l 1,18,-1
 301 614 l 1,19,-1
 473 614 l 1,20,-1
 473 730 l 1,21,-1
 514 730 l 1,22,-1
 514 614 l 1,23,-1
 604 614 l 1,0,-1
290 26 m 0,24,25
 373 26 373 26 423 85 c 128,-1,26
 473 144 473 144 473 245 c 2,27,-1
 473 254 l 2,28,29
 473 356 473 356 423.5 415 c 128,-1,30
 374 474 374 474 290 474 c 0,31,32
 199 474 199 474 148 414.5 c 128,-1,33
 97 355 97 355 97 250 c 128,-1,34
 97 145 97 145 148 85.5 c 128,-1,35
 199 26 199 26 290 26 c 0,24,25
EndSplineSet
Substitution2: "'smcp' Lowercase to Small Capitals lookup 12 subtable" dcroat.sc
Substitution2: "'aalt' Access All Alternates lookup 0 subtable" dcroat.sc
EndChar

StartChar: Emacron
Encoding: 274 274 208
Width: 604
GlyphClass: 2
Flags: W
AnchorPoint: "Anchor-0" 326 0 basechar 0
LayerCount: 2
Fore
SplineSet
481 796 m 1,0,-1
 481 761 l 1,1,-1
 170 761 l 1,2,-1
 170 796 l 1,3,-1
 481 796 l 1,0,-1
144 38 m 1,4,-1
 566 38 l 1,5,-1
 566 0 l 1,6,-1
 103 0 l 1,7,-1
 103 660 l 1,8,-1
 550 660 l 1,9,-1
 550 622 l 1,10,-1
 144 622 l 1,11,-1
 144 355 l 1,12,-1
 466 355 l 1,13,-1
 466 317 l 1,14,-1
 144 317 l 1,15,-1
 144 38 l 1,4,-1
EndSplineSet
Substitution2: "Single Substitution lookup 57 subtable" Emacron.swsh.001
Substitution2: "Single Substitution lookup 56 subtable" Emacron.swsh
AlternateSubs2: "'swsh' Swash lookup 33 subtable" Emacron.swsh Emacron.swsh.001
Substitution2: "'c2sc' Capitals to Small Capitals lookup 11 subtable" emacron.sc
AlternateSubs2: "'aalt' Access All Alternates lookup 1 subtable" emacron.sc Emacron.swsh Emacron.swsh.001
EndChar

StartChar: emacron
Encoding: 275 275 209
Width: 552
GlyphClass: 2
Flags: W
AnchorPoint: "Anchor-0" 292 0 basechar 0
LayerCount: 2
Fore
SplineSet
436 636 m 1,0,-1
 436 601 l 1,1,-1
 125 601 l 1,2,-1
 125 636 l 1,3,-1
 436 636 l 1,0,-1
500 258 m 0,4,5
 500 252 500 252 499.5 243 c 128,-1,6
 499 234 499 234 499 232 c 2,7,-1
 96 232 l 1,8,9
 101 134 101 134 151.5 80 c 128,-1,10
 202 26 202 26 289 26 c 0,11,12
 349 26 349 26 394 51.5 c 128,-1,13
 439 77 439 77 460 123 c 1,14,-1
 494 105 l 1,15,16
 436 -10 436 -10 289 -10 c 0,17,18
 179 -10 179 -10 117 59 c 128,-1,19
 55 128 55 128 55 250 c 128,-1,20
 55 372 55 372 115.5 441 c 128,-1,21
 176 510 176 510 284 510 c 0,22,23
 385 510 385 510 442.5 441.5 c 128,-1,24
 500 373 500 373 500 258 c 0,4,5
284 474 m 0,25,26
 199 474 199 474 150 420 c 128,-1,27
 101 366 101 366 96 268 c 1,28,-1
 462 268 l 1,29,30
 457 366 457 366 411.5 420 c 128,-1,31
 366 474 366 474 284 474 c 0,25,26
EndSplineSet
Substitution2: "'smcp' Lowercase to Small Capitals lookup 12 subtable" emacron.sc
Substitution2: "'aalt' Access All Alternates lookup 0 subtable" emacron.sc
EndChar

StartChar: Edotaccent
Encoding: 278 278 210
Width: 604
GlyphClass: 2
Flags: W
AnchorPoint: "Anchor-0" 326 0 basechar 0
LayerCount: 2
Fore
SplineSet
325 757 m 128,-1,1
 308 757 308 757 298 767.5 c 128,-1,2
 288 778 288 778 288 794 c 128,-1,3
 288 810 288 810 298 820.5 c 128,-1,4
 308 831 308 831 325 831 c 128,-1,5
 342 831 342 831 352 820.5 c 128,-1,6
 362 810 362 810 362 794 c 128,-1,7
 362 778 362 778 352 767.5 c 128,-1,0
 342 757 342 757 325 757 c 128,-1,1
144 38 m 1,8,-1
 566 38 l 1,9,-1
 566 0 l 1,10,-1
 103 0 l 1,11,-1
 103 660 l 1,12,-1
 550 660 l 1,13,-1
 550 622 l 1,14,-1
 144 622 l 1,15,-1
 144 355 l 1,16,-1
 466 355 l 1,17,-1
 466 317 l 1,18,-1
 144 317 l 1,19,-1
 144 38 l 1,8,-1
EndSplineSet
Substitution2: "Single Substitution lookup 57 subtable" Edotaccent.swsh.001
Substitution2: "Single Substitution lookup 56 subtable" Edotaccent.swsh
AlternateSubs2: "'swsh' Swash lookup 33 subtable" Edotaccent.swsh Edotaccent.swsh.001
Substitution2: "'c2sc' Capitals to Small Capitals lookup 11 subtable" edotaccent.sc
AlternateSubs2: "'aalt' Access All Alternates lookup 1 subtable" edotaccent.sc Edotaccent.swsh Edotaccent.swsh.001
EndChar

StartChar: edotaccent
Encoding: 279 279 211
Width: 552
GlyphClass: 2
Flags: W
AnchorPoint: "Anchor-0" 292 0 basechar 0
LayerCount: 2
Fore
SplineSet
280 597 m 128,-1,1
 264 597 264 597 253.5 607.5 c 128,-1,2
 243 618 243 618 243 634 c 128,-1,3
 243 650 243 650 253.5 660.5 c 128,-1,4
 264 671 264 671 280 671 c 128,-1,5
 296 671 296 671 306.5 660.5 c 128,-1,6
 317 650 317 650 317 634 c 128,-1,7
 317 618 317 618 306.5 607.5 c 128,-1,0
 296 597 296 597 280 597 c 128,-1,1
500 258 m 0,8,9
 500 252 500 252 499.5 243 c 128,-1,10
 499 234 499 234 499 232 c 2,11,-1
 96 232 l 1,12,13
 101 134 101 134 151.5 80 c 128,-1,14
 202 26 202 26 289 26 c 0,15,16
 349 26 349 26 394 51.5 c 128,-1,17
 439 77 439 77 460 123 c 1,18,-1
 494 105 l 1,19,20
 436 -10 436 -10 289 -10 c 0,21,22
 179 -10 179 -10 117 59 c 128,-1,23
 55 128 55 128 55 250 c 128,-1,24
 55 372 55 372 115.5 441 c 128,-1,25
 176 510 176 510 284 510 c 0,26,27
 385 510 385 510 442.5 441.5 c 128,-1,28
 500 373 500 373 500 258 c 0,8,9
284 474 m 0,29,30
 199 474 199 474 150 420 c 128,-1,31
 101 366 101 366 96 268 c 1,32,-1
 462 268 l 1,33,34
 457 366 457 366 411.5 420 c 128,-1,35
 366 474 366 474 284 474 c 0,29,30
EndSplineSet
Substitution2: "'smcp' Lowercase to Small Capitals lookup 12 subtable" edotaccent.sc
Substitution2: "'aalt' Access All Alternates lookup 0 subtable" edotaccent.sc
EndChar

StartChar: Eogonek
Encoding: 280 280 212
Width: 604
GlyphClass: 2
Flags: W
AnchorPoint: "Anchor-0" 326 0 basechar 0
LayerCount: 2
Fore
SplineSet
569 -159 m 1,0,-1
 579 -187 l 1,1,2
 551 -207 551 -207 503 -207 c 0,3,4
 459 -207 459 -207 431 -184 c 128,-1,5
 403 -161 403 -161 403 -121 c 0,6,7
 403 -80 403 -80 428 -51 c 128,-1,8
 453 -22 453 -22 510 0 c 1,9,-1
 103 0 l 1,10,-1
 103 660 l 1,11,-1
 550 660 l 1,12,-1
 550 622 l 1,13,-1
 144 622 l 1,14,-1
 144 355 l 1,15,-1
 466 355 l 1,16,-1
 466 317 l 1,17,-1
 144 317 l 1,18,-1
 144 38 l 1,19,-1
 566 38 l 1,20,-1
 566 0 l 1,21,22
 495 -26 495 -26 466 -53.5 c 128,-1,23
 437 -81 437 -81 437 -117 c 0,24,25
 437 -145 437 -145 456.5 -160.5 c 128,-1,26
 476 -176 476 -176 507 -176 c 0,27,28
 546 -176 546 -176 569 -159 c 1,0,-1
EndSplineSet
Substitution2: "'c2sc' Capitals to Small Capitals lookup 11 subtable" eogonek.sc
Substitution2: "'aalt' Access All Alternates lookup 0 subtable" eogonek.sc
EndChar

StartChar: eogonek
Encoding: 281 281 213
Width: 552
GlyphClass: 2
Flags: W
AnchorPoint: "Anchor-0" 292 0 basechar 0
LayerCount: 2
Fore
SplineSet
500 258 m 0,0,1
 500 252 500 252 499.5 243 c 128,-1,2
 499 234 499 234 499 232 c 2,3,-1
 96 232 l 1,4,5
 101 134 101 134 151.5 80 c 128,-1,6
 202 26 202 26 289 26 c 0,7,8
 349 26 349 26 394 51.5 c 128,-1,9
 439 77 439 77 460 123 c 1,10,-1
 494 105 l 1,11,12
 455 28 455 28 374 3 c 1,13,14
 316 -29 316 -29 291.5 -56.5 c 128,-1,15
 267 -84 267 -84 267 -115 c 0,16,17
 267 -144 267 -144 286.5 -160 c 128,-1,18
 306 -176 306 -176 336 -176 c 0,19,20
 375 -176 375 -176 398 -159 c 1,21,-1
 408 -187 l 1,22,23
 380 -207 380 -207 332 -207 c 0,24,25
 288 -207 288 -207 260 -183.5 c 128,-1,26
 232 -160 232 -160 232 -120 c 0,27,28
 232 -57 232 -57 306 -10 c 1,29,-1
 289 -10 l 2,30,31
 179 -10 179 -10 117 59 c 128,-1,32
 55 128 55 128 55 250 c 128,-1,33
 55 372 55 372 115.5 441 c 128,-1,34
 176 510 176 510 284 510 c 0,35,36
 385 510 385 510 442.5 441.5 c 128,-1,37
 500 373 500 373 500 258 c 0,0,1
284 474 m 0,38,39
 199 474 199 474 150 420 c 128,-1,40
 101 366 101 366 96 268 c 1,41,-1
 462 268 l 1,42,43
 457 366 457 366 411.5 420 c 128,-1,44
 366 474 366 474 284 474 c 0,38,39
EndSplineSet
Substitution2: "'smcp' Lowercase to Small Capitals lookup 12 subtable" eogonek.sc
Substitution2: "'aalt' Access All Alternates lookup 0 subtable" eogonek.sc
EndChar

